<?xml version="1.0" encoding="utf-8"?>
<svg viewBox="0 0 384.59067 218.272" xmlns="http://www.w3.org/2000/svg">
  <svg xmlns="http://www.w3.org/2000/svg" version="1.1" id="svg2" width="269.78" height="218.272" viewBox="0 0 269.78 218.272" x="0" y="0">
    <defs id="defs6">
      <clipPath clipPathUnits="userSpaceOnUse" id="clipPath188">
        <path d="M 0,0 H 194.26797 V 161.39575 H 0 Z" id="path186"/>
      </clipPath>
    </defs>
    <g id="g10" transform="matrix(1.3333333,0,0,-1.3333333,0,218.272)">
      <g id="g12" transform="translate(4.035,1.912)">
        <g id="g14">
          <g id="g16"/>
          <g id="g18">
            <g id="g20"/>
            <g id="g22"/>
            <g id="g24">
              <g id="g26"/>
            </g>
            <g id="g28"/>
            <g id="g30"/>
            <g id="g32"/>
            <g id="g34"/>
            <g id="g36" transform="translate(-0.399,-1.912)">
              <g id="g38" transform="translate(0.399,1.912)">
                <g id="g40">
                  <g id="g42"/>
                  <g id="g44">
                    <g id="g46">
                      <g id="g48">
                        <g id="g50">
                          <path d="M 20.81454,5.55925 V 9.81174 M 45.79199,5.55925 V 9.81174 M 55.50546,5.55925 V 9.81174 M 73.54474,5.55925 V 9.81174 M 92.97165,5.55925 v 4.25249 m 29.14036,-4.25249 v 4.25249 m 29.14037,-4.25249 v 4.25249 m 26.3651,-4.25249 v 4.25249" style="fill:none;stroke:#808080;stroke-width:0.19925;stroke-linecap:butt;stroke-linejoin:miter;stroke-miterlimit:10;stroke-dasharray:none;stroke-opacity:1" id="path52"/>
                        </g>
                      </g>
                      <g id="g54">
                        <g id="g56">
                          <path d="m 81.13223,23.05653 h 4.25189 m -4.25189,30.74205 h 4.25189 m -4.25189,30.74204 h 4.25189 m -4.25189,30.74205 h 4.25189 m -4.25189,30.74205 h 4.25189" style="fill:none;stroke:#808080;stroke-width:0.19925;stroke-linecap:butt;stroke-linejoin:miter;stroke-miterlimit:10;stroke-dasharray:none;stroke-opacity:1" id="path58"/>
                        </g>
                      </g>
                      <g id="g60">
                        <path d="M 0,7.6855 H 191.6777" style="fill:none;stroke:#000000;stroke-width:0.79701;stroke-linecap:butt;stroke-linejoin:miter;stroke-miterlimit:10;stroke-dasharray:none;stroke-opacity:1" id="path62"/>
                        <g id="g64" transform="translate(191.6777,7.6855)">
                          <g id="g66">
                            <path d="M 2.59026,0 -1.55415,2.0722 0,0 -1.55415,-2.0722" style="fill:#000000;fill-opacity:1;fill-rule:nonzero;stroke:none" id="path68"/>
                          </g>
                        </g>
                      </g>
                      <g id="g70">
                        <path d="M 83.2582,0 V 158.80548" style="fill:none;stroke:#000000;stroke-width:0.79701;stroke-linecap:butt;stroke-linejoin:miter;stroke-miterlimit:10;stroke-dasharray:none;stroke-opacity:1" id="path72"/>
                        <g id="g74" transform="rotate(90,-37.77364,121.03184)">
                          <g id="g76">
                            <path d="M 2.59026,0 -1.55415,2.0722 0,0 -1.55415,-2.0722" style="fill:#000000;fill-opacity:1;fill-rule:nonzero;stroke:none" id="path78"/>
                          </g>
                        </g>
                      </g>
                      <g id="g80">
                        <g id="g82" transform="translate(20.814,1.724)">
                          <g id="g84"/>
                          <g id="g86" transform="translate(-20.814,-1.724)"/>
                        </g>
                      </g>
                      <g id="g88">
                        <g id="g90" transform="translate(45.791,1.724)">
                          <g id="g92"/>
                          <g id="g94" transform="translate(-45.791,-1.724)"/>
                        </g>
                      </g>
                      <g id="g96">
                        <g id="g98" transform="translate(55.505,1.724)">
                          <g id="g100"/>
                          <g id="g102" transform="translate(-55.505,-1.724)"/>
                        </g>
                      </g>
                      <g id="g104">
                        <g id="g106" transform="translate(73.544,1.724)">
                          <g id="g108"/>
                          <g id="g110" transform="translate(-73.544,-1.724)"/>
                        </g>
                      </g>
                      <g id="g112">
                        <g id="g114" transform="translate(92.97,1.724)">
                          <g id="g116"/>
                          <g id="g118" transform="translate(-92.97,-1.724)"/>
                        </g>
                      </g>
                      <g id="g120">
                        <g id="g122" transform="translate(122.11,1.724)">
                          <g id="g124"/>
                          <g id="g126" transform="translate(-122.11,-1.724)"/>
                        </g>
                      </g>
                      <g id="g128">
                        <g id="g130" transform="translate(151.25,1.724)">
                          <g id="g132"/>
                          <g id="g134" transform="translate(-151.25,-1.724)"/>
                        </g>
                      </g>
                      <g id="g136">
                        <g id="g138" transform="translate(177.615,1.724)">
                          <g id="g140"/>
                          <g id="g142" transform="translate(-177.615,-1.724)"/>
                        </g>
                      </g>
                      <g id="g144">
                        <g id="g146" transform="translate(84.966,26.891)">
                          <g id="g148"/>
                          <g id="g150" transform="translate(-84.966,-26.891)"/>
                        </g>
                      </g>
                      <g id="g152">
                        <g id="g154" transform="translate(84.966,57.633)">
                          <g id="g156"/>
                          <g id="g158" transform="translate(-84.966,-57.633)"/>
                        </g>
                      </g>
                      <g id="g160">
                        <g id="g162" transform="translate(84.966,88.375)">
                          <g id="g164"/>
                          <g id="g166" transform="translate(-84.966,-88.375)"/>
                        </g>
                      </g>
                      <g id="g168">
                        <g id="g170" transform="translate(84.966,119.116)">
                          <g id="g172"/>
                          <g id="g174" transform="translate(-84.966,-119.116)"/>
                        </g>
                      </g>
                      <g id="g176">
                        <g id="g178" transform="translate(84.966,149.858)">
                          <g id="g180"/>
                          <g id="g182" transform="translate(-84.966,-149.858)"/>
                        </g>
                      </g>
                      <g id="g184" clip-path="url(#clipPath188)">
                        <g id="g190">
                          <path d="m 6.93817,146.02472 h 0.35039 0.35042 0.3504 0.3504 0.35041 0.3504 0.35041 l 0.35041,-3.2e-4 0.3504,3.2e-4 h 0.3504 0.35041 0.3504 0.35042 0.3504 0.3504 l 0.35041,-3.2e-4 h 0.35038 l 0.35042,-4.4e-4 0.35041,-1.6e-4 0.3504,-6.2e-4 0.3504,-0.001 0.3504,-0.002 0.35041,-0.003 0.35042,-0.005 0.3504,-0.008 0.3504,-0.0126 0.35041,-0.0209 0.3504,-0.0344 0.35041,-0.0572 0.35041,-0.0944 0.3504,-0.15494 0.3504,-0.25377 0.35039,-0.4107 0.3504,-0.65683 0.35042,-1.02678 0.3504,-1.5506 0.35041,-2.22244 0.3504,-2.96079 0.3504,-3.58221 0.35042,-3.85506 0.3504,-3.67103 0.35041,-3.10401 0.3504,-2.37144 0.3504,-1.67539 0.35041,-1.11854 0.35042,-0.72045 0.3504,-0.45269 0.3504,-0.27959 0.3504,-0.17122 0.3504,-0.10437 0.35042,-0.0633 0.35039,-0.0383 0.3504,-0.0232 0.35041,-0.0138 0.3504,-0.009 0.3504,-0.005 0.35042,-0.003 0.3504,-0.002 0.35041,-10e-4 0.3504,-6.3e-4 0.3504,-1.5e-4 0.35042,-3e-4 h 0.3504 l 0.3504,-1.6e-4 0.35041,-3e-4 h 0.3504 0.3504 0.35041 0.3504 l 0.3504,3e-4 0.35041,-3e-4 h 0.3504 0.35042 0.3504 0.3504 0.3504 0.35041 0.3504 0.35042 0.3504 0.3504 0.35041 0.3504 0.35042 0.35038 0.35041 0.3504 0.3504 0.35041 0.35042 0.3504 0.3504 0.3504 0.3504 0.35042 0.35041 0.3504 0.3504 0.3504" style="fill:none;stroke:#000000;stroke-width:0.79701;stroke-linecap:butt;stroke-linejoin:miter;stroke-miterlimit:10;stroke-dasharray:none;stroke-opacity:1" id="path192"/>
                        </g>
                        <g id="g194">
                          <path d="m 41.62909,115.20642 0.0981,-0.0112 0.09811,-0.0134 0.09812,-0.0152 0.09811,-0.0177 0.09811,-0.0201 0.09812,-0.0229 0.09811,-0.0268 0.09812,-0.031 0.09811,-0.0352 0.09811,-0.0403 0.09812,-0.0467 0.09811,-0.0536 0.09812,-0.0613 0.09811,-0.0701 0.09811,-0.0807 0.09812,-0.0925 0.09811,-0.10578 0.09812,-0.1208 0.0981,-0.13773 0.09809,-0.15757 0.09812,-0.1792 0.09811,-0.20414 0.09812,-0.23118 0.09811,-0.26254 0.09812,-0.29573 0.09811,-0.33312 0.09811,-0.37503 0.09812,-0.41885 0.09811,-0.46714 0.09811,-0.51825 0.09812,-0.57267 0.09811,-0.6304 0.09811,-0.6888 0.09812,-0.74716 0.09811,-0.805 0.09812,-0.86328 0.09811,-0.91603 0.09812,-0.96467 0.09811,-1.0062 0.09811,-1.04116 0.0981,-1.06641 0.09812,-1.0815 0.09811,-1.08299 0.09811,-1.08037 0.09812,-1.06357 0.09811,-1.03658 0.09812,-1.00199 0.09811,-0.95807 0.09811,-0.90825 0.09812,-0.85483 0.09811,-0.79804 0.09812,-0.73858 0.09811,-0.6799 0.0981,-0.62152 0.09811,-0.5659 0.09812,-0.51063 0.09811,-0.46067 0.09812,-0.41303 0.09811,-0.36828 0.09811,-0.32757 0.09812,-0.29082 0.09811,-0.2576 0.0981,-0.22735 0.09812,-0.19996 0.09811,-0.17649 0.09811,-0.15432 0.09812,-0.13556 0.09811,-0.11867 0.09811,-0.10358 0.09812,-0.09102 0.09812,-0.07902 0.0981,-0.06915 0.09812,-0.06009 0.09811,-0.05226 0.09812,-0.04581 0.09811,-0.03966 0.09812,-0.03474 0.09811,-0.02996 0.09811,-0.0263 0.09812,-0.02276 0.09811,-0.01998 0.0981,-0.01705 0.09813,-0.01509 0.0981,-0.01289 0.09811,-0.01123 0.09812,-0.0098 0.09811,-0.0081 0.0981,-0.0079 0.09811,-0.0063 0.09812,-0.0055 0.09811,-0.0048 0.09812,-0.0041 0.09811,-0.0038 0.09811,-0.0033 0.09812,-0.0026 0.09811,-0.0026 0.09812,-0.0018 0.09811,-0.0019 0.09811,-0.0017" style="fill:none;stroke:#000000;stroke-width:0.79701;stroke-linecap:butt;stroke-linejoin:miter;stroke-miterlimit:10;stroke-dasharray:none;stroke-opacity:1" id="path196"/>
                        </g>
                        <g id="g198">
                          <path d="m 51.34254,84.46437 0.08411,-0.0095 0.08409,-0.01108 0.08409,-0.01245 0.08411,-0.01381 0.08409,-0.01599 0.08411,-0.01784 0.08409,-0.02014 0.08409,-0.0226 0.08411,-0.0255 0.08409,-0.0289 0.0841,-0.03227 0.0841,-0.03659 0.08408,-0.04104 0.08411,-0.04642 0.08409,-0.05196 0.08411,-0.05826 0.08409,-0.06626 0.0841,-0.07407 0.0841,-0.08286 0.08409,-0.09343 0.08411,-0.10438 0.08409,-0.11713 0.08409,-0.13112 0.08411,-0.14709 0.08409,-0.16386 0.0841,-0.18245 0.08409,-0.20414 0.0841,-0.22657 0.0841,-0.25084 0.08409,-0.279 0.08411,-0.30772 0.08409,-0.33984 0.08409,-0.37308 0.08411,-0.4101 0.08409,-0.44758 0.08411,-0.48827 0.08409,-0.52958 0.08409,-0.57113 0.0841,-0.6161 0.0841,-0.65794 0.0841,-0.70186 0.08409,-0.74257 0.08409,-0.7816 0.08413,-0.81902 0.08409,-0.8502 0.0841,-0.87903 0.0841,-0.90102 0.08409,-0.91766 0.0841,-0.92834 0.08409,-0.92745 0.08411,-0.92842 0.08409,-0.91762 0.08409,-0.90103 0.08411,-0.87901 0.08409,-0.85121 0.08411,-0.81794 0.08409,-0.78267 0.0841,-0.74255 0.08409,-0.70099 0.0841,-0.65887 0.0841,-0.6152 0.0841,-0.57218 0.0841,-0.52965 0.0841,-0.48742 0.08408,-0.44745 0.08411,-0.40995 0.08409,-0.37413 0.08411,-0.33938 0.08409,-0.30818 0.08409,-0.27839 0.08411,-0.25177 0.08409,-0.22673 0.0841,-0.20337 0.0841,-0.1832 0.08409,-0.1637 0.0841,-0.14664 0.08409,-0.13113 0.08411,-0.11774 0.08409,-0.10437 0.08409,-0.09345 0.08411,-0.08285 0.08409,-0.07407 0.08411,-0.06579 0.08409,-0.05873 0.08409,-0.05196 0.08411,-0.04642 0.08409,-0.04105 0.0841,-0.03658 0.08411,-0.03228 0.08409,-0.0289 0.08411,-0.02549 0.08409,-0.0226 0.08411,-0.02015 0.08409,-0.01782 0.08409,-0.01567 0.0841,-0.01414 0.0841,-0.01245 0.0841,-0.01107 0.08409,-0.0099" style="fill:none;stroke:#000000;stroke-width:0.79701;stroke-linecap:butt;stroke-linejoin:miter;stroke-miterlimit:10;stroke-dasharray:none;stroke-opacity:1" id="path200"/>
                        </g>
                        <g id="g202">
                          <path d="m 59.66837,53.79858 h 0.26629 0.26631 0.26628 0.26632 0.26629 0.26631 0.26629 0.26631 0.26629 0.26632 0.26629 0.2663 0.26629 0.26632 0.26631 0.26628 0.26631 0.2663 0.26631 l 0.26629,-3.2e-4 h 0.2663 l 0.2663,-1.5e-4 0.26631,-3.1e-4 h 0.2663 l 0.26631,-1.5e-4 0.26628,-4.7e-4 0.26631,-7.6e-4 0.2663,-6.3e-4 0.26631,-0.0014 0.2663,-0.0022 0.26629,-0.0031 0.26631,-0.0044 0.2663,-0.0062 0.26631,-0.0095 0.26628,-0.01385 0.26631,-0.01998 0.2663,-0.02951 0.26631,-0.0435 0.26629,-0.06334 0.2663,-0.09237 0.26632,-0.13466 0.26629,-0.19551 0.26631,-0.28267 0.26628,-0.40503 0.26632,-0.5761 0.26629,-0.80545 0.26631,-1.10348 0.26628,-1.4713 0.26632,-1.8897 0.26629,-2.31739 0.26632,-2.68045 0.26631,-2.90123 0.26628,-2.92087 0.26631,-2.74192 0.2663,-2.40361 0.26631,-1.98345 0.26628,-1.55893 0.26631,-1.17742 0.2663,-0.86308 0.26631,-0.61947 0.26629,-0.4376 0.2663,-0.3059 0.2663,-0.2118 0.26631,-0.14618 0.26631,-0.10005 0.26628,-0.06903 0.26631,-0.04689 0.2663,-0.0318 0.26631,-0.02214 0.2663,-0.01492 0.26629,-0.01014 0.2663,-0.0071 0.26631,-0.0046 0.2663,-0.0031 0.2663,-0.0024 0.26631,-0.0014 0.26629,-0.0011 0.26632,-7.7e-4 0.26629,-4.7e-4 h 0.2663 l 0.26629,-5.9e-4 h 0.26632 0.26629 0.26631 0.26629 l 0.26631,-3.1e-4 0.26629,-1.53711 0.26631,1.53711 h 0.2663 0.2663 0.26631 0.2663 0.26631 0.26628 0.26631 0.2663 0.26631 0.26628 0.26631" style="fill:none;stroke:#000000;stroke-width:0.79701;stroke-linecap:butt;stroke-linejoin:miter;stroke-miterlimit:10;stroke-dasharray:none;stroke-opacity:1" id="path204"/>
                        </g>
                        <g id="g206">
                          <path d="m 83.2582,23.05653 h 0.25227 0.25229 0.25227 0.25229 l 0.2523,3.1e-4 h 0.25228 0.25229 l 0.25227,1.5e-4 0.25229,2.9e-4 0.2523,1.5e-4 0.25228,4.7e-4 0.25228,4.6e-4 0.25229,9.4e-4 0.25229,0.0014 0.25229,0.002 0.25227,0.0025 0.25229,0.0038 0.25229,0.0055 0.25229,0.0078 0.25229,0.01107 0.25227,0.01615 0.25229,0.02289 0.25229,0.03337 0.25229,0.04764 0.25229,0.06825 0.25229,0.09762 0.25227,0.13926 0.2523,0.19813 0.25228,0.28098 0.25229,0.39503 0.25229,0.54997 0.25227,0.75638 0.2523,1.02036 0.25227,1.34555 0.2523,1.71525 0.25228,2.10242 0.25228,2.45065 0.2523,2.69771 0.25229,2.78316 0.25227,2.69841 0.25229,2.45191 0.25228,2.10282 0.2523,1.71733 0.25229,1.34609 0.25227,1.02217 0.25229,0.75686 0.25229,0.55045 0.25229,0.39565 0.25229,0.28175 0.25227,0.19828 0.25229,0.13973 0.25231,0.0976 0.25227,0.06825 0.25229,0.04779 0.25227,0.03305 0.25229,0.02322 0.2523,0.01568 0.25228,0.01184 0.25229,0.0077 0.25227,0.0054 0.2523,0.0038 0.25229,0.0028 0.25227,0.0017 0.2523,0.0014 0.25228,6.3e-4 0.25229,7.6e-4 0.25229,4.7e-4 0.25228,1.5e-4 h 0.25228 l 0.25229,3.1e-4 0.25229,1.5e-4 h 0.25229 l 0.25229,0.15403 0.25227,-0.15371 h 0.25229 0.25229 0.25229 0.25229 0.25227 0.25231 0.25227 0.25229 0.25229 0.25227 0.2523 0.25229 0.25228 0.25229 0.25227 0.2523 0.25229 0.25227 0.2523 0.25228 0.25229 0.25229 0.25227 0.25229 0.25231" style="fill:none;stroke:#000000;stroke-width:0.79701;stroke-linecap:butt;stroke-linejoin:miter;stroke-miterlimit:10;stroke-dasharray:none;stroke-opacity:1" id="path208"/>
                        </g>
                        <g id="g210">
                          <path d="m 108.23564,53.79858 h 0.37843 0.37844 0.37843 0.37845 0.37841 0.37844 l 0.37845,3.1e-4 0.37843,-3.1e-4 h 0.37842 0.37843 0.37845 0.37844 0.37843 l 0.37843,3.1e-4 h 0.37844 0.37843 l 0.37845,4.4e-4 0.37843,4.6e-4 0.37842,9.3e-4 0.37845,0.0014 0.37843,0.0023 0.37843,0.0045 0.37845,0.0075 0.37842,0.01293 0.37843,0.02229 0.37845,0.03796 0.37843,0.06593 0.37842,0.11252 0.37844,0.1926 0.37844,0.32648 0.37844,0.54768 0.37843,0.89859 0.37843,1.42812 0.37844,2.15551 0.37843,3.00771 0.37845,3.7782 0.37843,4.15443 0.37842,3.96224 0.37845,3.28996 0.37843,2.43442 0.37843,1.65098 0.37845,1.05446 0.37842,0.64882 0.37843,0.38934 0.37845,0.23012 0.37844,0.1348 0.37843,0.07884 0.37843,0.04567 0.37844,0.02675 0.37843,0.01552 0.37843,0.0091 0.37844,0.0052 0.37843,0.0029 0.37843,0.0018 0.37845,9.2e-4 0.37844,6.3e-4 h 0.37841 l 0.37845,4.5e-4 h 0.37844 0.37843 l 0.37843,3.1e-4 h 0.37844 0.37843 0.37844 0.37844 0.37842 0.37844 0.37844 0.37843 0.37843 0.37843 0.37844 0.37843 0.37845 0.37844 0.37841 0.37845 0.37844 0.37843 0.37843 0.37843 0.37844 0.37845 0.37843 0.37842 0.37845 0.37843 0.37843 0.37845 0.37842 0.37843 0.37844 0.37844 0.37842 0.37844 0.37844 0.37844 0.37843 0.37843" style="fill:none;stroke:#000000;stroke-width:0.79701;stroke-linecap:butt;stroke-linejoin:miter;stroke-miterlimit:10;stroke-dasharray:none;stroke-opacity:1" id="path212"/>
                        </g>
                        <g id="g214">
                          <path d="m 145.70183,84.55092 0.15417,0.0026 0.15416,0.0031 0.15416,0.0044 0.15416,0.0046 0.15418,0.0063 0.15417,0.0078 0.15416,0.0095 0.15416,0.01231 0.15417,0.0149 0.15418,0.01875 0.15416,0.02368 0.15416,0.02934 0.15418,0.03643 0.15415,0.04551 0.15418,0.05671 0.15416,0.07041 0.15417,0.08716 0.15416,0.10883 0.15416,0.13464 0.15418,0.16587 0.15416,0.20518 0.15417,0.25224 0.15416,0.30944 0.15417,0.37628 0.15416,0.45756 0.15418,0.55109 0.15416,0.65785 0.15416,0.77962 0.15416,0.91287 0.15419,1.05512 0.15416,1.2001 0.15416,1.34254 0.15415,1.47208 0.1542,1.58121 0.15416,1.65973 0.15416,1.70047 0.15416,1.69704 0.15417,1.66055 0.15417,1.58142 0.15416,1.47343 0.15416,1.34262 0.15418,1.20174 0.15416,1.05576 0.15417,0.91388 0.15416,0.78066 0.15418,0.65928 0.15416,0.55151 0.15417,0.45775 0.15416,0.37736 0.15418,0.31018 0.15416,0.2524 0.15416,0.20489 0.15415,0.16663 0.15419,0.13478 0.15416,0.10883 0.15416,0.0875 0.15416,0.0706 0.15418,0.0566 0.15417,0.0457 0.15416,0.0364 0.15416,0.0296 0.15416,0.0234 0.15419,0.0191 0.15416,0.0149 0.15416,0.0123 0.15416,0.01 0.15418,0.008 0.15417,0.006 0.15416,0.005 0.15416,0.004 0.15417,0.003 0.15418,0.003 0.15416,0.002 0.15416,0.002 0.15417,0.001 0.15416,10e-4 0.15416,6.3e-4 0.15417,7.6e-4 0.15418,6.3e-4 0.15416,3e-4 0.15416,4.6e-4 0.15418,1.7e-4 0.15417,3e-4 h 0.15416 l 0.15416,1.5e-4 h 0.15416 0.15419 l 0.15416,3.1e-4 0.15416,1.4e-4 h 0.15416 0.15417 0.15418 l 0.15415,3.2e-4 h 0.15417 0.15416 0.15419 0.15416 0.15415 0.15417" style="fill:none;stroke:#000000;stroke-width:0.79701;stroke-linecap:butt;stroke-linejoin:miter;stroke-miterlimit:10;stroke-dasharray:none;stroke-opacity:1" id="path216"/>
                        </g>
                        <g id="g218">
                          <path d="m 160.96584,115.28267 h 0.25227 0.25229 0.25229 0.25229 0.25228 0.25228 0.2523 0.25228 0.25228 0.2523 0.25227 0.2523 0.25229 0.25227 0.25229 0.25228 0.2523 0.25229 0.25227 0.25229 0.25229 0.25229 0.25229 0.25227 0.25229 0.2523 0.25228 0.25229 0.25227 0.25229 0.2523 l 0.25228,3e-4 h 0.25229 l 0.25227,1.6e-4 h 0.25229 l 0.2523,3e-4 h 0.25228 l 0.25228,4.6e-4 0.2523,3.2e-4 0.25228,7.6e-4 0.25229,0.001 0.25227,10e-4 0.25229,0.002 0.25229,0.003 0.25229,0.005 0.25229,0.006 0.25227,0.009 0.25229,0.0135 0.25229,0.0186 0.25229,0.0282 0.25229,0.0398 0.25229,0.057 0.25227,0.0816 0.25231,0.11638 0.25227,0.16632 0.25229,0.23639 0.25229,0.33355 0.25227,0.46619 0.2523,0.64606 0.25228,0.88046 0.25229,1.17587 0.25228,1.52465 0.25228,1.90937 0.2523,2.28465 0.25229,2.59136 0.25227,2.76341 0.25229,2.76113 0.25228,2.59227 0.2523,2.2867 0.25229,1.91163 0.25227,1.52803 0.25229,1.17696 0.25231,0.88244 0.25227,0.64743 0.25229,0.46712 0.25227,0.33415 0.25229,0.23656 0.25231,0.16647 0.25227,0.11713 0.25229,0.0818 0.25227,0.057 0.25229,0.0398 0.25231,0.0277 0.25227,0.0195 0.25229,0.0134 0.25229,0.009 0.25228,0.007 0.25229,0.004 0.25228,0.003 0.25229,0.002 0.25228,0.001 0.25229,0.001 0.25229,7.6e-4 0.25228,3.2e-4 0.25228,4.6e-4 h 0.25229 l 0.25229,2.9e-4 0.25229,1.5e-4 h 0.25229" style="fill:none;stroke:#000000;stroke-width:0.79701;stroke-linecap:butt;stroke-linejoin:miter;stroke-miterlimit:10;stroke-dasharray:none;stroke-opacity:1" id="path220"/>
                        </g>
                        <g id="g222">
                          <path d="M 20.81454,161.39575 V 7.6855" style="fill:none;stroke:#808080;stroke-width:0.19925;stroke-linecap:butt;stroke-linejoin:miter;stroke-miterlimit:10;stroke-dasharray:2.98883, 2.98883;stroke-dashoffset:0;stroke-opacity:1" id="path224"/>
                        </g>
                        <g id="g226">
                          <path d="M 45.79199,161.39575 V 7.6855" style="fill:none;stroke:#808080;stroke-width:0.19925;stroke-linecap:butt;stroke-linejoin:miter;stroke-miterlimit:10;stroke-dasharray:2.98883, 2.98883;stroke-dashoffset:0;stroke-opacity:1" id="path228"/>
                        </g>
                        <g id="g230">
                          <path d="M 55.50546,161.39575 V 7.6855" style="fill:none;stroke:#808080;stroke-width:0.19925;stroke-linecap:butt;stroke-linejoin:miter;stroke-miterlimit:10;stroke-dasharray:2.98883, 2.98883;stroke-dashoffset:0;stroke-opacity:1" id="path232"/>
                        </g>
                        <g id="g234">
                          <path d="M 73.54474,161.39575 V 7.6855" style="fill:none;stroke:#808080;stroke-width:0.19925;stroke-linecap:butt;stroke-linejoin:miter;stroke-miterlimit:10;stroke-dasharray:2.98883, 2.98883;stroke-dashoffset:0;stroke-opacity:1" id="path236"/>
                        </g>
                        <g id="g238">
                          <path d="M 151.25238,169.08125 V 7.6855" style="fill:none;stroke:#808080;stroke-width:0.19925;stroke-linecap:butt;stroke-linejoin:miter;stroke-miterlimit:10;stroke-dasharray:2.98883, 2.98883;stroke-dashoffset:0;stroke-opacity:1" id="path240"/>
                        </g>
                        <g id="g242">
                          <path d="M 122.11201,169.08125 V 7.6855" style="fill:none;stroke:#808080;stroke-width:0.19925;stroke-linecap:butt;stroke-linejoin:miter;stroke-miterlimit:10;stroke-dasharray:2.98883, 2.98883;stroke-dashoffset:0;stroke-opacity:1" id="path244"/>
                        </g>
                        <g id="g246">
                          <path d="M 92.97165,169.08125 V 7.6855" style="fill:none;stroke:#808080;stroke-width:0.19925;stroke-linecap:butt;stroke-linejoin:miter;stroke-miterlimit:10;stroke-dasharray:2.98883, 2.98883;stroke-dashoffset:0;stroke-opacity:1" id="path248"/>
                        </g>
                        <g id="g250">
                          <path d="M 177.61748,169.08125 V 7.6855" style="fill:none;stroke:#808080;stroke-width:0.19925;stroke-linecap:butt;stroke-linejoin:miter;stroke-miterlimit:10;stroke-dasharray:2.98883, 2.98883;stroke-dashoffset:0;stroke-opacity:1" id="path252"/>
                        </g>
                        <g id="g254">
                          <path d="m 0,146.02472 h 8.09448 8.09452 8.09448 8.09451 8.09448 8.09452 8.09448 8.09451 8.09452 8.09448 8.09451 8.09448 8.09452 8.09448 8.09451 8.09448 8.09452 8.09451 8.09448 8.09451 8.09449 8.09449 8.0945 8.09451" style="fill:none;stroke:#000000;stroke-width:0.19925;stroke-linecap:butt;stroke-linejoin:miter;stroke-miterlimit:10;stroke-dasharray:2.98883, 2.98883;stroke-dashoffset:0;stroke-opacity:1" id="path256"/>
                        </g>
                        <g id="g258">
                          <path d="m 0,115.28267 h 8.09448 8.09452 8.09448 8.09451 8.09448 8.09452 8.09448 8.09451 8.09452 8.09448 8.09451 8.09448 8.09452 8.09448 8.09451 8.09448 8.09452 8.09451 8.09448 8.09451 8.09449 8.09449 8.0945 8.09451" style="fill:none;stroke:#000000;stroke-width:0.19925;stroke-linecap:butt;stroke-linejoin:miter;stroke-miterlimit:10;stroke-dasharray:2.98883, 2.98883;stroke-dashoffset:0;stroke-opacity:1" id="path260"/>
                        </g>
                        <g id="g262">
                          <path d="m 0,84.54062 h 8.09448 8.09452 8.09448 8.09451 8.09448 8.09452 8.09448 8.09451 8.09452 8.09448 8.09451 8.09448 8.09452 8.09448 8.09451 8.09448 8.09452 8.09451 8.09448 8.09451 8.09449 8.09449 8.0945 8.09451" style="fill:none;stroke:#000000;stroke-width:0.19925;stroke-linecap:butt;stroke-linejoin:miter;stroke-miterlimit:10;stroke-dasharray:2.98883, 2.98883;stroke-dashoffset:0;stroke-opacity:1" id="path264"/>
                        </g>
                        <g id="g266">
                          <path d="m 0,53.79858 h 8.09448 8.09452 8.09448 8.09451 8.09448 8.09452 8.09448 8.09451 8.09452 8.09448 8.09451 8.09448 8.09452 8.09448 8.09451 8.09448 8.09452 8.09451 8.09448 8.09451 8.09449 8.09449 8.0945 8.09451" style="fill:none;stroke:#000000;stroke-width:0.19925;stroke-linecap:butt;stroke-linejoin:miter;stroke-miterlimit:10;stroke-dasharray:2.98883, 2.98883;stroke-dashoffset:0;stroke-opacity:1" id="path268"/>
                        </g>
                        <g id="g270">
                          <path d="m 0,23.05653 h 8.09448 8.09452 8.09448 8.09451 8.09448 8.09452 8.09448 8.09451 8.09452 8.09448 8.09451 8.09448 8.09452 8.09448 8.09451 8.09448 8.09452 8.09451 8.09448 8.09451 8.09449 8.09449 8.0945 8.09451" style="fill:none;stroke:#000000;stroke-width:0.19925;stroke-linecap:butt;stroke-linejoin:miter;stroke-miterlimit:10;stroke-dasharray:2.98883, 2.98883;stroke-dashoffset:0;stroke-opacity:1" id="path272"/>
                        </g>
                      </g>
                    </g>
                    <g id="g274">
                      <path d="m 44.38306,98.5027 2.81788,2.8179 m -2.81788,0 2.81788,-2.8179" style="fill:none;stroke:#000000;stroke-width:0.79701;stroke-linecap:butt;stroke-linejoin:miter;stroke-miterlimit:10;stroke-dasharray:none;stroke-opacity:1" id="path276"/>
                    </g>
                    <g id="g278">
                      <path d="m 19.4056,129.24475 2.8179,2.8179 m -2.8179,0 2.8179,-2.8179" style="fill:none;stroke:#000000;stroke-width:0.79701;stroke-linecap:butt;stroke-linejoin:miter;stroke-miterlimit:10;stroke-dasharray:none;stroke-opacity:1" id="path280"/>
                    </g>
                    <g id="g282">
                      <path d="m 54.09651,67.76065 2.81789,2.8179 m -2.81789,0 2.81789,-2.8179" style="fill:none;stroke:#000000;stroke-width:0.79701;stroke-linecap:butt;stroke-linejoin:miter;stroke-miterlimit:10;stroke-dasharray:none;stroke-opacity:1" id="path284"/>
                    </g>
                    <g id="g286">
                      <path d="m 72.13579,37.0186 2.81788,2.8179 m -2.81788,0 2.81788,-2.8179" style="fill:none;stroke:#000000;stroke-width:0.79701;stroke-linecap:butt;stroke-linejoin:miter;stroke-miterlimit:10;stroke-dasharray:none;stroke-opacity:1" id="path288"/>
                    </g>
                    <g id="g290">
                      <path d="m 91.5627,37.0186 2.8179,2.8179 m -2.8179,0 2.8179,-2.8179" style="fill:none;stroke:#000000;stroke-width:0.79701;stroke-linecap:butt;stroke-linejoin:miter;stroke-miterlimit:10;stroke-dasharray:none;stroke-opacity:1" id="path292"/>
                    </g>
                    <g id="g294">
                      <path d="m 120.70306,67.76065 2.81791,2.8179 m -2.81791,0 2.81791,-2.8179" style="fill:none;stroke:#000000;stroke-width:0.79701;stroke-linecap:butt;stroke-linejoin:miter;stroke-miterlimit:10;stroke-dasharray:none;stroke-opacity:1" id="path296"/>
                    </g>
                    <g id="g298">
                      <path d="m 149.84343,98.5027 2.8179,2.8179 m -2.8179,0 2.8179,-2.8179" style="fill:none;stroke:#000000;stroke-width:0.79701;stroke-linecap:butt;stroke-linejoin:miter;stroke-miterlimit:10;stroke-dasharray:none;stroke-opacity:1" id="path300"/>
                    </g>
                    <g id="g302">
                      <path d="m 176.20853,129.24475 2.8179,2.8179 m -2.8179,0 2.8179,-2.8179" style="fill:none;stroke:#000000;stroke-width:0.79701;stroke-linecap:butt;stroke-linejoin:miter;stroke-miterlimit:10;stroke-dasharray:none;stroke-opacity:1" id="path304"/>
                    </g>
                  </g>
                </g>
                <g id="g306" transform="translate(-0.399,-1.912)"/>
              </g>
              <g id="g308" transform="translate(0.399,1.912)"/>
            </g>
            <g id="g310"/>
            <g id="g312"/>
          </g>
        </g>
      </g>
    </g>
  </svg>
  <svg xmlns="http://www.w3.org/2000/svg" version="1.1" id="svg2" width="114.81067" height="102.904" viewBox="0 0 114.81067 102.904" x="269.78" y="57.684002">
    <g id="g10" transform="matrix(1.3333333,0,0,-1.3333333,0,102.904)">
      <g id="g12" transform="translate(47.266,38.459)">
        <g id="g14">
          <g id="g16"/>
          <g id="g18">
            <path d="m 25.51237,0 c 0,14.09027 -11.4221,25.51237 -25.51237,25.51237 -14.09027,0 -25.51237,-11.4221 -25.51237,-25.51237 0,-14.09027 11.4221,-25.51237 25.51237,-25.51237 14.09027,0 25.51237,11.4221 25.51237,25.51237 z" style="fill:none;stroke:#000000;stroke-width:0.3985;stroke-linecap:butt;stroke-linejoin:miter;stroke-miterlimit:10;stroke-dasharray:none;stroke-opacity:1" id="path20"/>
            <g id="g22">
              <g id="g24" transform="matrix(0.6,0,0,0.6,31.026,-1.926)">
                <g id="g26">
                  <g id="g28" transform="translate(-78.292,-36.533)">
                    <text transform="matrix(1,0,0,-1,78.292,36.533)" style="font-variant: normal; font-weight: normal; font-size: 9.9626px; font-family: CMR10; writing-mode: lr-tb; fill: rgb(0, 0, 0); fill-opacity: 1; fill-rule: nonzero; stroke: none; white-space: pre;" id="text32"><tspan x="0" y="0" id="tspan30">0</tspan></text>
                    <g id="g34" transform="translate(78.292,36.533)"/>
                  </g>
                </g>
                <g id="g36" transform="translate(-31.026,1.926)"/>
              </g>
            </g>
            <g id="g38">
              <g id="g40" transform="matrix(0.6,0,0,0.6,18.951,22.557)">
                <g id="g42">
                  <g id="g44" transform="translate(-66.217,-61.016)">
                    <text transform="matrix(1,0,0,-1,66.217,61.016)" style="font-variant: normal; font-weight: normal; font-size: 9.9626px; font-family: CMR10; writing-mode: lr-tb; fill: rgb(0, 0, 0); fill-opacity: 1; fill-rule: nonzero; stroke: none; white-space: pre;" id="text48"><tspan x="0" y="0" id="tspan46">1</tspan></text>
                    <g id="g50" transform="translate(66.217,61.016)"/>
                  </g>
                </g>
                <g id="g52" transform="translate(-18.951,-22.557)"/>
              </g>
            </g>
            <g id="g54">
              <g id="g56" transform="matrix(0.6,0,0,0.6,13.969,-26.044)">
                <g id="g58">
                  <g id="g60" transform="translate(-61.235,-12.415)">
                    <text transform="matrix(1,0,0,-1,61.235,12.415)" style="font-variant: normal; font-weight: normal; font-size: 9.9626px; font-family: CMMI10; writing-mode: lr-tb; fill: rgb(0, 0, 0); fill-opacity: 1; fill-rule: nonzero; stroke: none; white-space: pre;" id="text64"><tspan x="0" y="0" id="tspan62">e</tspan></text>
                    <text transform="matrix(1,0,0,-1,68.088,12.415)" style="font-variant: normal; font-weight: normal; font-size: 9.9626px; font-family: CMR10; writing-mode: lr-tb; fill: rgb(0, 0, 0); fill-opacity: 1; fill-rule: nonzero; stroke: none; white-space: pre;" id="text68"><tspan x="0" y="0" id="tspan66">+</tspan></text>
                    <text transform="matrix(1,0,0,-1,78.051,12.415)" style="font-variant: normal; font-weight: normal; font-size: 9.9626px; font-family: CMMI10; writing-mode: lr-tb; fill: rgb(0, 0, 0); fill-opacity: 1; fill-rule: nonzero; stroke: none; white-space: pre;" id="text72"><tspan x="0" y="0" id="tspan70">r</tspan></text>
                    <g id="g74" transform="translate(61.235,12.415)"/>
                  </g>
                </g>
                <g id="g76" transform="translate(-13.969,26.044)"/>
              </g>
            </g>
            <g id="g78">
              <path d="m 0,0 18.03984,-18.03984 c 9.96304,9.96304 9.96304,26.11688 0,36.07992" style="fill:#b3b3b3;fill-opacity:0.5;fill-rule:nonzero;stroke:none" id="path80"/>
            </g>
            <g id="g82">
              <path d="m 0,0 -19.54329,16.39912 c -9.05678,-10.79338 -7.64912,-26.88574 3.14427,-35.94252" style="fill:#b3b3b3;fill-opacity:0.5;fill-rule:nonzero;stroke:none" id="path84"/>
            </g>
            <g id="g86">
              <g id="g88" transform="matrix(0.6,0,0,0.6,10.13,-1.594)">
                <g id="g90">
                  <g id="g92" transform="translate(-57.396,-36.865)">
                    <text transform="matrix(1,0,0,-1,57.396,36.865)" style="font-variant: normal; font-weight: normal; font-size: 9.9626px; font-family: CMMI10; writing-mode: lr-tb; fill: rgb(0, 0, 0); fill-opacity: 1; fill-rule: nonzero; stroke: none; white-space: pre;" id="text96"><tspan x="0" y="0" id="tspan94">C</tspan></text>
                    <text transform="matrix(1,0,0,-1,64.516,35.371)" style="font-variant: normal; font-weight: normal; font-size: 6.9738px; font-family: CMR7; writing-mode: lr-tb; fill: rgb(0, 0, 0); fill-opacity: 1; fill-rule: nonzero; stroke: none; white-space: pre;" id="text100"><tspan x="0" y="0" id="tspan98">0</tspan></text>
                    <g id="g102" transform="translate(57.396,36.865)"/>
                  </g>
                </g>
                <g id="g104" transform="translate(-10.13,1.594)"/>
              </g>
            </g>
            <g id="g106">
              <g id="g108" transform="matrix(0.6,0,0,0.6,-17.364,-1.594)">
                <g id="g110">
                  <g id="g112" transform="translate(-29.902,-36.865)">
                    <text transform="matrix(1,0,0,-1,29.902,36.865)" style="font-variant: normal; font-weight: normal; font-size: 9.9626px; font-family: CMMI10; writing-mode: lr-tb; fill: rgb(0, 0, 0); fill-opacity: 1; fill-rule: nonzero; stroke: none; white-space: pre;" id="text116"><tspan x="0" y="0" id="tspan114">C</tspan></text>
                    <text transform="matrix(1,0,0,-1,37.022,35.371)" style="font-variant: normal; font-weight: normal; font-size: 6.9738px; font-family: CMMI7; writing-mode: lr-tb; fill: rgb(0, 0, 0); fill-opacity: 1; fill-rule: nonzero; stroke: none; white-space: pre;" id="text120"><tspan x="0" y="0" id="tspan118">π</tspan></text>
                    <g id="g122" transform="translate(29.902,36.865)"/>
                  </g>
                </g>
                <g id="g124" transform="translate(17.364,1.594)"/>
              </g>
            </g>
            <g id="g126">
              <g id="g128" transform="matrix(0.6,0,0,0.6,12.963,27.152)">
                <g id="g130">
                  <g id="g132" transform="translate(-60.229,-65.611)">
                    <text transform="matrix(1,0,0,-1,60.229,65.611)" style="font-variant: normal; font-weight: normal; font-size: 9.9626px; font-family: CMR10; writing-mode: lr-tb; fill: rgb(0, 0, 0); fill-opacity: 1; fill-rule: nonzero; stroke: none; white-space: pre;" id="text136"><tspan x="0" y="0" id="tspan134">2</tspan></text>
                    <g id="g138" transform="translate(60.229,65.611)"/>
                  </g>
                </g>
                <g id="g140" transform="translate(-12.963,-27.152)"/>
              </g>
            </g>
            <g id="g142">
              <g id="g144" transform="matrix(0.6,0,0,0.6,-16.468,-33.134)">
                <g id="g146">
                  <g id="g148" transform="translate(-30.798,-5.325)">
                    <text transform="matrix(1,0,0,-1,30.798,5.325)" style="font-variant: normal; font-weight: normal; font-size: 9.9626px; font-family: CMMI10; writing-mode: lr-tb; fill: rgb(0, 0, 0); fill-opacity: 1; fill-rule: nonzero; stroke: none; white-space: pre;" id="text152"><tspan x="0" y="0" id="tspan150">r</tspan></text>
                    <text transform="matrix(1,0,0,-1,37.784,5.325)" style="font-variant: normal; font-weight: normal; font-size: 9.9626px; font-family: CMR10; writing-mode: lr-tb; fill: rgb(0, 0, 0); fill-opacity: 1; fill-rule: nonzero; stroke: none; white-space: pre;" id="text156"><tspan x="0 9.9606075" y="0" id="tspan154">+1</tspan></text>
                    <g id="g158" transform="translate(30.798,5.325)"/>
                  </g>
                </g>
                <g id="g160" transform="translate(16.468,33.134)"/>
              </g>
            </g>
            <g id="g162">
              <path d="m -7.36507,-23.9739 c 0,0.75147 -0.6092,1.36068 -1.36067,1.36068 -0.75148,0 -1.36069,-0.60921 -1.36069,-1.36068 0,-0.75149 0.60921,-1.3607 1.36069,-1.3607 0.75147,0 1.36067,0.60921 1.36067,1.3607 z" style="fill:#ffffff;fill-opacity:1;fill-rule:nonzero;stroke:#000000;stroke-width:0.3985;stroke-linecap:butt;stroke-linejoin:miter;stroke-miterlimit:10;stroke-dasharray:none;stroke-opacity:1" id="path164"/>
            </g>
            <g id="g166">
              <g id="g168" transform="matrix(0.6,0,0,0.6,5.989,30.04)">
                <g id="g170">
                  <g id="g172" transform="translate(-53.255,-68.499)">
                    <text transform="matrix(1,0,0,-1,53.255,68.499)" style="font-variant: normal; font-weight: normal; font-size: 9.9626px; font-family: CMR10; writing-mode: lr-tb; fill: rgb(0, 0, 0); fill-opacity: 1; fill-rule: nonzero; stroke: none; white-space: pre;" id="text176"><tspan x="0" y="0" id="tspan174">3</tspan></text>
                    <g id="g178" transform="translate(53.255,68.499)"/>
                  </g>
                </g>
                <g id="g180" transform="translate(-5.989,-30.04)"/>
              </g>
            </g>
            <g id="g182">
              <g id="g184" transform="matrix(0.6,0,0,0.6,-24.26,18.585)">
                <g id="g186"/>
                <g id="g188" transform="translate(24.26,-18.585)"/>
              </g>
            </g>
            <g id="g190">
              <g id="g192" transform="matrix(0.6,0,0,0.6,-42.439,-11.566)">
                <g id="g194">
                  <g id="g196" transform="translate(-4.827,-26.893)">
                    <text transform="matrix(1,0,0,-1,4.827,26.893)" style="font-variant: normal; font-weight: normal; font-size: 9.9626px; font-family: CMMI10; writing-mode: lr-tb; fill: rgb(0, 0, 0); fill-opacity: 1; fill-rule: nonzero; stroke: none; white-space: pre;" id="text200"><tspan x="0" y="0" id="tspan198">r</tspan></text>
                    <text transform="matrix(1,0,0,-1,11.812,26.893)" style="font-variant: normal; font-weight: normal; font-size: 9.9626px; font-family: CMSY10; writing-mode: lr-tb; fill: rgb(0, 0, 0); fill-opacity: 1; fill-rule: nonzero; stroke: none; white-space: pre;" id="text204"><tspan x="0" y="0" id="tspan202">−</tspan></text>
                    <text transform="matrix(1,0,0,-1,21.775,26.893)" style="font-variant: normal; font-weight: normal; font-size: 9.9626px; font-family: CMR10; writing-mode: lr-tb; fill: rgb(0, 0, 0); fill-opacity: 1; fill-rule: nonzero; stroke: none; white-space: pre;" id="text208"><tspan x="0" y="0" id="tspan206">1</tspan></text>
                    <g id="g210" transform="translate(4.827,26.893)"/>
                  </g>
                </g>
                <g id="g212" transform="translate(42.439,11.566)"/>
              </g>
            </g>
            <g id="g214">
              <g id="g216" transform="matrix(0.6,0,0,0.6,-23.56,-23.435)">
                <g id="g218">
                  <g id="g220" transform="translate(-23.706,-15.024)">
                    <text transform="matrix(1,0,0,-1,23.706,15.024)" style="font-variant: normal; font-weight: normal; font-size: 9.9626px; font-family: CMMI10; writing-mode: lr-tb; fill: rgb(0, 0, 0); fill-opacity: 1; fill-rule: nonzero; stroke: none; white-space: pre;" id="text224"><tspan x="0" y="0" id="tspan222">r</tspan></text>
                    <g id="g226" transform="translate(23.706,15.024)"/>
                  </g>
                </g>
                <g id="g228" transform="translate(23.56,23.435)"/>
              </g>
            </g>
            <g id="g230">
              <path d="m -15.03844,-19.54329 c 0,0.75148 -0.6092,1.36069 -1.36068,1.36069 -0.75148,0 -1.36069,-0.60921 -1.36069,-1.36069 0,-0.75148 0.60921,-1.36069 1.36069,-1.36069 0.75148,0 1.36068,0.60921 1.36068,1.36069 z" style="fill:#999999;fill-opacity:1;fill-rule:nonzero;stroke:#000000;stroke-width:0.3985;stroke-linecap:butt;stroke-linejoin:miter;stroke-miterlimit:10;stroke-dasharray:none;stroke-opacity:1" id="path232"/>
            </g>
            <g id="g234">
              <path d="m -22.61322,-8.72574 c 0,0.75147 -0.60921,1.36067 -1.36068,1.36067 -0.75149,0 -1.3607,-0.6092 -1.3607,-1.36067 0,-0.75148 0.60921,-1.36069 1.3607,-1.36069 0.75147,0 1.36068,0.60921 1.36068,1.36069 z" style="fill:#999999;fill-opacity:1;fill-rule:nonzero;stroke:#000000;stroke-width:0.3985;stroke-linecap:butt;stroke-linejoin:miter;stroke-miterlimit:10;stroke-dasharray:none;stroke-opacity:1" id="path236"/>
            </g>
            <g id="g238">
              <path d="m -18.1826,16.39912 c 0,0.75148 -0.60921,1.36069 -1.36069,1.36069 -0.75148,0 -1.36069,-0.60921 -1.36069,-1.36069 0,-0.75148 0.60921,-1.36068 1.36069,-1.36068 0.75148,0 1.36069,0.6092 1.36069,1.36068 z" style="fill:#999999;fill-opacity:1;fill-rule:nonzero;stroke:#000000;stroke-width:0.3985;stroke-linecap:butt;stroke-linejoin:miter;stroke-miterlimit:10;stroke-dasharray:none;stroke-opacity:1" id="path240"/>
            </g>
            <g id="g242">
              <path d="m 26.87305,0 c 0,0.75146 -0.60921,1.36067 -1.36069,1.36067 -0.75148,0 -1.36069,-0.60921 -1.36069,-1.36067 0,-0.75146 0.60921,-1.36067 1.36069,-1.36067 0.75148,0 1.36069,0.60921 1.36069,1.36067 z" style="fill:#999999;fill-opacity:1;fill-rule:nonzero;stroke:#000000;stroke-width:0.3985;stroke-linecap:butt;stroke-linejoin:miter;stroke-miterlimit:10;stroke-dasharray:none;stroke-opacity:1" id="path244"/>
            </g>
            <g id="g246">
              <path d="m 19.40053,18.03984 c 0,0.75148 -0.60921,1.36069 -1.36069,1.36069 -0.75148,0 -1.36067,-0.60921 -1.36067,-1.36069 0,-0.75148 0.60919,-1.36067 1.36067,-1.36067 0.75148,0 1.36069,0.60919 1.36069,1.36067 z" style="fill:#999999;fill-opacity:1;fill-rule:nonzero;stroke:#000000;stroke-width:0.3985;stroke-linecap:butt;stroke-linejoin:miter;stroke-miterlimit:10;stroke-dasharray:none;stroke-opacity:1" id="path248"/>
            </g>
            <g id="g250">
              <path d="m 19.40053,-18.03984 c 0,0.75148 -0.60921,1.36067 -1.36069,1.36067 -0.75148,0 -1.36067,-0.60919 -1.36067,-1.36067 0,-0.75148 0.60919,-1.36069 1.36067,-1.36069 0.75148,0 1.36069,0.60921 1.36069,1.36069 z" style="fill:#999999;fill-opacity:1;fill-rule:nonzero;stroke:#000000;stroke-width:0.3985;stroke-linecap:butt;stroke-linejoin:miter;stroke-miterlimit:10;stroke-dasharray:none;stroke-opacity:1" id="path252"/>
            </g>
            <g id="g254">
              <path d="m 14.11685,22.0944 c 0,0.75149 -0.60921,1.3607 -1.36069,1.3607 -0.75148,0 -1.36066,-0.60921 -1.36066,-1.3607 0,-0.75147 0.60918,-1.36067 1.36066,-1.36067 0.75148,0 1.36069,0.6092 1.36069,1.36067 z" style="fill:#ffffff;fill-opacity:1;fill-rule:nonzero;stroke:#000000;stroke-width:0.3985;stroke-linecap:butt;stroke-linejoin:miter;stroke-miterlimit:10;stroke-dasharray:none;stroke-opacity:1" id="path256"/>
            </g>
            <g id="g258">
              <path d="m -11.3955,22.0944 c 0,0.75149 -0.60918,1.3607 -1.36066,1.3607 -0.75148,0 -1.36069,-0.60921 -1.36069,-1.3607 0,-0.75147 0.60921,-1.36067 1.36069,-1.36067 0.75148,0 1.36066,0.6092 1.36066,1.36067 z" style="fill:#ffffff;fill-opacity:1;fill-rule:nonzero;stroke:#000000;stroke-width:0.3985;stroke-linecap:butt;stroke-linejoin:miter;stroke-miterlimit:10;stroke-dasharray:none;stroke-opacity:1" id="path260"/>
            </g>
            <g id="g262">
              <path d="m 5.79076,25.1249 c 0,0.75147 -0.60921,1.36068 -1.36068,1.36068 -0.75148,0 -1.36068,-0.60921 -1.36068,-1.36068 0,-0.75149 0.6092,-1.3607 1.36068,-1.3607 0.75147,0 1.36068,0.60921 1.36068,1.3607 z" style="fill:#ffffff;fill-opacity:1;fill-rule:nonzero;stroke:#000000;stroke-width:0.3985;stroke-linecap:butt;stroke-linejoin:miter;stroke-miterlimit:10;stroke-dasharray:none;stroke-opacity:1" id="path264"/>
            </g>
            <g id="g266">
              <g id="g268" transform="matrix(0.6,0,0,0.6,-15.848,27.152)">
                <g id="g270">
                  <g id="g272" transform="translate(-31.418,-65.611)">
                    <text transform="matrix(1,0,0,-1,31.418,65.611)" style="font-variant: normal; font-weight: normal; font-size: 9.9626px; font-family: CMMI10; writing-mode: lr-tb; fill: rgb(0, 0, 0); fill-opacity: 1; fill-rule: nonzero; stroke: none; white-space: pre;" id="text276"><tspan x="0" y="0" id="tspan274">e</tspan></text>
                    <g id="g278" transform="translate(31.418,65.611)"/>
                  </g>
                </g>
                <g id="g280" transform="translate(15.848,-27.152)"/>
              </g>
            </g>
            <g id="g282">
              <path d="m 2.51997,28.80367 c -4.20408,0.3675 -8.44349,-0.19016 -12.40936,-1.63331" style="fill:none;stroke:#000000;stroke-width:0.79701;stroke-linecap:butt;stroke-linejoin:miter;stroke-miterlimit:10;stroke-dasharray:0.79701, 1.99255;stroke-dashoffset:0;stroke-opacity:1" id="path284"/>
            </g>
            <g id="g286">
              <path d="m -25.04028,14.45685 c -3.3985,-5.88638 -4.61487,-12.78398 -3.4347,-19.47774" style="fill:none;stroke:#000000;stroke-width:0.79701;stroke-linecap:butt;stroke-linejoin:miter;stroke-miterlimit:10;stroke-dasharray:0.79701, 1.99255;stroke-dashoffset:0;stroke-opacity:1" id="path288"/>
            </g>
            <g id="g290">
              <path d="m 0,-28.91397 c 4.22043,0 8.39499,0.92563 12.2197,2.70892" style="fill:none;stroke:#000000;stroke-width:0.79701;stroke-linecap:butt;stroke-linejoin:miter;stroke-miterlimit:10;stroke-dasharray:0.79701, 1.99255;stroke-dashoffset:0;stroke-opacity:1" id="path292"/>
            </g>
          </g>
        </g>
      </g>
    </g>
  </svg>
  <text style="fill: rgb(51, 51, 51); font-family: Arial, sans-serif; font-size: 3.6px; white-space: pre; opacity: 0.4;" x="364.47" y="130.676">© D. Ulbrich</text>
  <text style="white-space: pre; fill: rgb(51, 51, 51); font-family: Arial, sans-serif; font-size: 9.6px;" x="412.064" y="129.035"> </text>
  <text style="white-space: pre; fill: rgb(51, 51, 51); font-family: Arial, sans-serif; font-size: 9.6px;" x="409.875" y="172.799"> </text>
  <text style="white-space: pre; fill: rgb(51, 51, 51); font-family: Arial, sans-serif; font-size: 9.6px;" x="422.458" y="171.978"> </text>
  <text style="white-space: pre; fill: rgb(51, 51, 51); font-family: Arial, sans-serif; font-size: 9.6px;" x="406.046" y="188.116"> </text>
  <text style="white-space: pre; fill: rgb(51, 51, 51); font-family: Arial, sans-serif; font-size: 9.6px;" x="400.576" y="179.363"> </text>
  <text style="white-space: pre; fill: rgb(51, 51, 51); font-family: Arial, sans-serif; font-size: 9.6px;" x="413.978" y="188.116"> </text>
  <text style="white-space: pre; fill: rgb(51, 51, 51); font-family: Arial, sans-serif; font-size: 9.6px;" x="273.114" y="194.681"> </text>
</svg>