<svg xmlns="http://www.w3.org/2000/svg" xmlns:xlink="http://www.w3.org/1999/xlink" version="1.1" width="1000" height="1000" viewBox="0 0 1000 1000" xml:space="preserve">
<desc>Created with Fabric.js 3.5.0</desc>
<defs>
</defs>
<rect x="0" y="0" width="100%" height="100%" fill="#ffffff"></rect>
<g transform="matrix(2.3638 0 0 2.3638 500.0022 500.0013)" id="255079"  >
<g style="" vector-effect="non-scaling-stroke"   >
		<g transform="matrix(1.3333 0 0 -1.3333 -54.6299 96.3393)" id="path52"  >
<path style="stroke: rgb(128,128,128); stroke-width: 0.1993; stroke-dasharray: none; stroke-linecap: butt; stroke-dashoffset: 0; stroke-linejoin: miter; stroke-miterlimit: 10; is-custom-font: none; font-file-url: none; fill: none; fill-rule: nonzero; opacity: 1;"  transform=" translate(-99.216, -7.6855)" d="M 20.81454 5.55925 V 9.81174 M 45.79199 5.55925 V 9.81174 M 55.50546 5.55925 V 9.81174 M 73.54474 5.55925 V 9.81174 M 92.97165 5.55925 v 4.25249 m 29.14036 -4.25249 v 4.25249 m 29.14037 -4.25249 v 4.25249 m 26.3651 -4.25249 v 4.25249" stroke-linecap="round" />
</g>
		<g transform="matrix(1.3333 0 0 -1.3333 -75.9045 -6.1362)" id="path58"  >
<path style="stroke: rgb(128,128,128); stroke-width: 0.1993; stroke-dasharray: none; stroke-linecap: butt; stroke-dashoffset: 0; stroke-linejoin: miter; stroke-miterlimit: 10; is-custom-font: none; font-file-url: none; fill: none; fill-rule: nonzero; opacity: 1;"  transform=" translate(-83.2582, -84.5406)" d="m 81.13223 23.05653 h 4.25189 m -4.25189 30.74205 h 4.25189 m -4.25189 30.74204 h 4.25189 m -4.25189 30.74205 h 4.25189 m -4.25189 30.74205 h 4.25189" stroke-linecap="round" />
</g>
		<g transform="matrix(1.3333 0 0 -1.3333 -59.1334 96.3393)" id="path62"  >
<path style="stroke: rgb(0,0,0); stroke-width: 0.797; stroke-dasharray: none; stroke-linecap: butt; stroke-dashoffset: 0; stroke-linejoin: miter; stroke-miterlimit: 10; is-custom-font: none; font-file-url: none; fill: none; fill-rule: nonzero; opacity: 1;"  transform=" translate(-95.8388, -7.6855)" d="M 0 7.6855 H 191.6777" stroke-linecap="round" />
</g>
		<g transform="matrix(1.3333 0 0 -1.3333 69.3456 96.3392)" id="path68"  >
<path style="stroke: none; stroke-width: 1; stroke-dasharray: none; stroke-linecap: butt; stroke-dashoffset: 0; stroke-linejoin: miter; stroke-miterlimit: 4; is-custom-font: none; font-file-url: none; fill: rgb(0,0,0); fill-rule: nonzero; opacity: 1;"  transform=" translate(-0.5181, 0)" d="M 2.59026 0 L -1.55415 2.0722 L 0 0 L -1.55415 -2.0722" stroke-linecap="round" />
</g>
		<g transform="matrix(1.3333 0 0 -1.3333 -75.9044 0.7137)" id="path72"  >
<path style="stroke: rgb(0,0,0); stroke-width: 0.797; stroke-dasharray: none; stroke-linecap: butt; stroke-dashoffset: 0; stroke-linejoin: miter; stroke-miterlimit: 10; is-custom-font: none; font-file-url: none; fill: none; fill-rule: nonzero; opacity: 1;"  transform=" translate(-83.2582, -79.4027)" d="M 83.2582 0 V 158.80548" stroke-linecap="round" />
</g>
		<g transform="matrix(0 -1.3333 -1.3333 0 -75.9045 -105.8446)" id="path78"  >
<path style="stroke: none; stroke-width: 1; stroke-dasharray: none; stroke-linecap: butt; stroke-dashoffset: 0; stroke-linejoin: miter; stroke-miterlimit: 4; is-custom-font: none; font-file-url: none; fill: rgb(0,0,0); fill-rule: nonzero; opacity: 1;"  transform=" translate(-0.5181, 0)" d="M 2.59026 0 L -1.55415 2.0722 L 0 0 L -1.55415 -2.0722" stroke-linecap="round" />
</g>
		<g transform="matrix(1.3333 0 0 -1.3333 -154.5384 -67.6181)" id="path192" clip-path="url(#CLIPPATH_2)"  >
<clipPath id="CLIPPATH_2" >
	<path transform="matrix(0.75 0 0 -0.75 44.5323 -29.3846) translate(-97.134, -80.6979)" id="path186" d="M 0 0 H 194.26797 V 161.39575 H 0 Z" stroke-linecap="round" />
</clipPath>
<path style="stroke: rgb(0,0,0); stroke-width: 0.797; stroke-dasharray: none; stroke-linecap: butt; stroke-dashoffset: 0; stroke-linejoin: miter; stroke-miterlimit: 10; is-custom-font: none; font-file-url: none; fill: none; fill-rule: nonzero; opacity: 1;"  transform=" translate(-24.2832, -130.6532)" d="m 6.93817 146.02472 h 0.35039 h 0.35042 h 0.3504 h 0.3504 h 0.35041 h 0.3504 h 0.35041 l 0.35041 -0.00032 l 0.3504 0.00032 h 0.3504 h 0.35041 h 0.3504 h 0.35042 h 0.3504 h 0.3504 l 0.35041 -0.00032 h 0.35038 l 0.35042 -0.00044 l 0.35041 -0.00016 l 0.3504 -0.00062 l 0.3504 -0.001 l 0.3504 -0.002 l 0.35041 -0.003 l 0.35042 -0.005 l 0.3504 -0.008 l 0.3504 -0.0126 l 0.35041 -0.0209 l 0.3504 -0.0344 l 0.35041 -0.0572 l 0.35041 -0.0944 l 0.3504 -0.15494 l 0.3504 -0.25377 l 0.35039 -0.4107 l 0.3504 -0.65683 l 0.35042 -1.02678 l 0.3504 -1.5506 l 0.35041 -2.22244 l 0.3504 -2.96079 l 0.3504 -3.58221 l 0.35042 -3.85506 l 0.3504 -3.67103 l 0.35041 -3.10401 l 0.3504 -2.37144 l 0.3504 -1.67539 l 0.35041 -1.11854 l 0.35042 -0.72045 l 0.3504 -0.45269 l 0.3504 -0.27959 l 0.3504 -0.17122 l 0.3504 -0.10437 l 0.35042 -0.0633 l 0.35039 -0.0383 l 0.3504 -0.0232 l 0.35041 -0.0138 l 0.3504 -0.009 l 0.3504 -0.005 l 0.35042 -0.003 l 0.3504 -0.002 l 0.35041 -0.001 l 0.3504 -0.00063 l 0.3504 -0.00015 l 0.35042 -0.0003 h 0.3504 l 0.3504 -0.00016 l 0.35041 -0.0003 h 0.3504 h 0.3504 h 0.35041 h 0.3504 l 0.3504 0.0003 l 0.35041 -0.0003 h 0.3504 h 0.35042 h 0.3504 h 0.3504 h 0.3504 h 0.35041 h 0.3504 h 0.35042 h 0.3504 h 0.3504 h 0.35041 h 0.3504 h 0.35042 h 0.35038 h 0.35041 h 0.3504 h 0.3504 h 0.35041 h 0.35042 h 0.3504 h 0.3504 h 0.3504 h 0.3504 h 0.35042 h 0.35041 h 0.3504 h 0.3504 h 0.3504" stroke-linecap="round" />
</g>
		<g transform="matrix(1.3333 0 0 -1.3333 -124.9346 -26.5855)" id="path196" clip-path="url(#CLIPPATH_3)"  >
<clipPath id="CLIPPATH_3" >
	<path transform="matrix(0.75 0 0 -0.75 22.3298 1.3899) translate(-97.134, -80.6979)" id="path186" d="M 0 0 H 194.26797 V 161.39575 H 0 Z" stroke-linecap="round" />
</clipPath>
<path style="stroke: rgb(0,0,0); stroke-width: 0.797; stroke-dasharray: none; stroke-linecap: butt; stroke-dashoffset: 0; stroke-linejoin: miter; stroke-miterlimit: 10; is-custom-font: none; font-file-url: none; fill: none; fill-rule: nonzero; opacity: 1;"  transform=" translate(-46.4857, -99.8787)" d="m 41.62909 115.20642 l 0.0981 -0.0112 l 0.09811 -0.0134 l 0.09812 -0.0152 l 0.09811 -0.0177 l 0.09811 -0.0201 l 0.09812 -0.0229 l 0.09811 -0.0268 l 0.09812 -0.031 l 0.09811 -0.0352 l 0.09811 -0.0403 l 0.09812 -0.0467 l 0.09811 -0.0536 l 0.09812 -0.0613 l 0.09811 -0.0701 l 0.09811 -0.0807 l 0.09812 -0.0925 l 0.09811 -0.10578 l 0.09812 -0.1208 l 0.0981 -0.13773 l 0.09809 -0.15757 l 0.09812 -0.1792 l 0.09811 -0.20414 l 0.09812 -0.23118 l 0.09811 -0.26254 l 0.09812 -0.29573 l 0.09811 -0.33312 l 0.09811 -0.37503 l 0.09812 -0.41885 l 0.09811 -0.46714 l 0.09811 -0.51825 l 0.09812 -0.57267 l 0.09811 -0.6304 l 0.09811 -0.6888 l 0.09812 -0.74716 l 0.09811 -0.805 l 0.09812 -0.86328 l 0.09811 -0.91603 l 0.09812 -0.96467 l 0.09811 -1.0062 l 0.09811 -1.04116 l 0.0981 -1.06641 l 0.09812 -1.0815 l 0.09811 -1.08299 l 0.09811 -1.08037 l 0.09812 -1.06357 l 0.09811 -1.03658 l 0.09812 -1.00199 l 0.09811 -0.95807 l 0.09811 -0.90825 l 0.09812 -0.85483 l 0.09811 -0.79804 l 0.09812 -0.73858 l 0.09811 -0.6799 l 0.0981 -0.62152 l 0.09811 -0.5659 l 0.09812 -0.51063 l 0.09811 -0.46067 l 0.09812 -0.41303 l 0.09811 -0.36828 l 0.09811 -0.32757 l 0.09812 -0.29082 l 0.09811 -0.2576 l 0.0981 -0.22735 l 0.09812 -0.19996 l 0.09811 -0.17649 l 0.09811 -0.15432 l 0.09812 -0.13556 l 0.09811 -0.11867 l 0.09811 -0.10358 l 0.09812 -0.09102 l 0.09812 -0.07902 l 0.0981 -0.06915 l 0.09812 -0.06009 l 0.09811 -0.05226 l 0.09812 -0.04581 l 0.09811 -0.03966 l 0.09812 -0.03474 l 0.09811 -0.02996 l 0.09811 -0.0263 l 0.09812 -0.02276 l 0.09811 -0.01998 l 0.0981 -0.01705 l 0.09813 -0.01509 l 0.0981 -0.01289 l 0.09811 -0.01123 l 0.09812 -0.0098 l 0.09811 -0.0081 l 0.0981 -0.0079 l 0.09811 -0.0063 l 0.09812 -0.0055 l 0.09811 -0.0048 l 0.09812 -0.0041 l 0.09811 -0.0038 l 0.09811 -0.0033 l 0.09812 -0.0026 l 0.09811 -0.0026 l 0.09812 -0.0018 l 0.09811 -0.0019 l 0.09811 -0.0017" stroke-linecap="round" />
</g>
		<g transform="matrix(1.3333 0 0 -1.3333 -112.9084 14.3603)" id="path200" clip-path="url(#CLIPPATH_4)"  >
<clipPath id="CLIPPATH_4" >
	<path transform="matrix(0.75 0 0 -0.75 13.3101 32.0992) translate(-97.134, -80.6979)" id="path186" d="M 0 0 H 194.26797 V 161.39575 H 0 Z" stroke-linecap="round" />
</clipPath>
<path style="stroke: rgb(0,0,0); stroke-width: 0.797; stroke-dasharray: none; stroke-linecap: butt; stroke-dashoffset: 0; stroke-linejoin: miter; stroke-miterlimit: 10; is-custom-font: none; font-file-url: none; fill: none; fill-rule: nonzero; opacity: 1;"  transform=" translate(-55.5054, -69.1694)" d="m 51.34254 84.46437 l 0.08411 -0.0095 l 0.08409 -0.01108 l 0.08409 -0.01245 l 0.08411 -0.01381 l 0.08409 -0.01599 l 0.08411 -0.01784 l 0.08409 -0.02014 l 0.08409 -0.0226 l 0.08411 -0.0255 l 0.08409 -0.0289 l 0.0841 -0.03227 l 0.0841 -0.03659 l 0.08408 -0.04104 l 0.08411 -0.04642 l 0.08409 -0.05196 l 0.08411 -0.05826 l 0.08409 -0.06626 l 0.0841 -0.07407 l 0.0841 -0.08286 l 0.08409 -0.09343 l 0.08411 -0.10438 l 0.08409 -0.11713 l 0.08409 -0.13112 l 0.08411 -0.14709 l 0.08409 -0.16386 l 0.0841 -0.18245 l 0.08409 -0.20414 l 0.0841 -0.22657 l 0.0841 -0.25084 l 0.08409 -0.279 l 0.08411 -0.30772 l 0.08409 -0.33984 l 0.08409 -0.37308 l 0.08411 -0.4101 l 0.08409 -0.44758 l 0.08411 -0.48827 l 0.08409 -0.52958 l 0.08409 -0.57113 l 0.0841 -0.6161 l 0.0841 -0.65794 l 0.0841 -0.70186 l 0.08409 -0.74257 l 0.08409 -0.7816 l 0.08413 -0.81902 l 0.08409 -0.8502 l 0.0841 -0.87903 l 0.0841 -0.90102 l 0.08409 -0.91766 l 0.0841 -0.92834 l 0.08409 -0.92745 l 0.08411 -0.92842 l 0.08409 -0.91762 l 0.08409 -0.90103 l 0.08411 -0.87901 l 0.08409 -0.85121 l 0.08411 -0.81794 l 0.08409 -0.78267 l 0.0841 -0.74255 l 0.08409 -0.70099 l 0.0841 -0.65887 l 0.0841 -0.6152 l 0.0841 -0.57218 l 0.0841 -0.52965 l 0.0841 -0.48742 l 0.08408 -0.44745 l 0.08411 -0.40995 l 0.08409 -0.37413 l 0.08411 -0.33938 l 0.08409 -0.30818 l 0.08409 -0.27839 l 0.08411 -0.25177 l 0.08409 -0.22673 l 0.0841 -0.20337 l 0.0841 -0.1832 l 0.08409 -0.1637 l 0.0841 -0.14664 l 0.08409 -0.13113 l 0.08411 -0.11774 l 0.08409 -0.10437 l 0.08409 -0.09345 l 0.08411 -0.08285 l 0.08409 -0.07407 l 0.08411 -0.06579 l 0.08409 -0.05873 l 0.08409 -0.05196 l 0.08411 -0.04642 l 0.08409 -0.04105 l 0.0841 -0.03658 l 0.08411 -0.03228 l 0.08409 -0.0289 l 0.08411 -0.02549 l 0.08409 -0.0226 l 0.08411 -0.02015 l 0.08409 -0.01782 l 0.08409 -0.01567 l 0.0841 -0.01414 l 0.0841 -0.01245 l 0.0841 -0.01107 l 0.08409 -0.0099" stroke-linecap="round" />
</g>
		<g transform="matrix(1.3333 0 0 -1.3333 -89.7821 56.3742)" id="path204" clip-path="url(#CLIPPATH_5)"  >
<clipPath id="CLIPPATH_5" >
	<path transform="matrix(0.75 0 0 -0.75 -4.0348 63.6096) translate(-97.134, -80.6979)" id="path186" d="M 0 0 H 194.26797 V 161.39575 H 0 Z" stroke-linecap="round" />
</clipPath>
<path style="stroke: rgb(0,0,0); stroke-width: 0.797; stroke-dasharray: none; stroke-linecap: butt; stroke-dashoffset: 0; stroke-linejoin: miter; stroke-miterlimit: 10; is-custom-font: none; font-file-url: none; fill: none; fill-rule: nonzero; opacity: 1;"  transform=" translate(-72.8503, -37.659)" d="m 59.66837 53.79858 h 0.26629 h 0.26631 h 0.26628 h 0.26632 h 0.26629 h 0.26631 h 0.26629 h 0.26631 h 0.26629 h 0.26632 h 0.26629 h 0.2663 h 0.26629 h 0.26632 h 0.26631 h 0.26628 h 0.26631 h 0.2663 h 0.26631 l 0.26629 -0.00032 h 0.2663 l 0.2663 -0.00015 l 0.26631 -0.00031 h 0.2663 l 0.26631 -0.00015 l 0.26628 -0.00047 l 0.26631 -0.00076 l 0.2663 -0.00063 l 0.26631 -0.0014 l 0.2663 -0.0022 l 0.26629 -0.0031 l 0.26631 -0.0044 l 0.2663 -0.0062 l 0.26631 -0.0095 l 0.26628 -0.01385 l 0.26631 -0.01998 l 0.2663 -0.02951 l 0.26631 -0.0435 l 0.26629 -0.06334 l 0.2663 -0.09237 l 0.26632 -0.13466 l 0.26629 -0.19551 l 0.26631 -0.28267 l 0.26628 -0.40503 l 0.26632 -0.5761 l 0.26629 -0.80545 l 0.26631 -1.10348 l 0.26628 -1.4713 l 0.26632 -1.8897 l 0.26629 -2.31739 l 0.26632 -2.68045 l 0.26631 -2.90123 l 0.26628 -2.92087 l 0.26631 -2.74192 l 0.2663 -2.40361 l 0.26631 -1.98345 l 0.26628 -1.55893 l 0.26631 -1.17742 l 0.2663 -0.86308 l 0.26631 -0.61947 l 0.26629 -0.4376 l 0.2663 -0.3059 l 0.2663 -0.2118 l 0.26631 -0.14618 l 0.26631 -0.10005 l 0.26628 -0.06903 l 0.26631 -0.04689 l 0.2663 -0.0318 l 0.26631 -0.02214 l 0.2663 -0.01492 l 0.26629 -0.01014 l 0.2663 -0.0071 l 0.26631 -0.0046 l 0.2663 -0.0031 l 0.2663 -0.0024 l 0.26631 -0.0014 l 0.26629 -0.0011 l 0.26632 -0.00077 l 0.26629 -0.00047 h 0.2663 l 0.26629 -0.00059 h 0.26632 h 0.26629 h 0.26631 h 0.26629 l 0.26631 -0.00031 l 0.26629 -1.53711 l 0.26631 1.53711 h 0.2663 h 0.2663 h 0.26631 h 0.2663 h 0.26631 h 0.26628 h 0.26631 h 0.2663 h 0.26631 h 0.26628 h 0.26631" stroke-linecap="round" />
</g>
		<g transform="matrix(1.3333 0 0 -1.3333 -59.2539 55.2469)" id="path208" clip-path="url(#CLIPPATH_6)"  >
<clipPath id="CLIPPATH_6" >
	<path transform="matrix(0.75 0 0 -0.75 -26.9309 62.7642) translate(-97.134, -80.6979)" id="path186" d="M 0 0 H 194.26797 V 161.39575 H 0 Z" stroke-linecap="round" />
</clipPath>
<path style="stroke: rgb(0,0,0); stroke-width: 0.797; stroke-dasharray: none; stroke-linecap: butt; stroke-dashoffset: 0; stroke-linejoin: miter; stroke-miterlimit: 10; is-custom-font: none; font-file-url: none; fill: none; fill-rule: nonzero; opacity: 1;"  transform=" translate(-95.7464, -38.5044)" d="m 83.2582 23.05653 h 0.25227 h 0.25229 h 0.25227 h 0.25229 l 0.2523 0.00031 h 0.25228 h 0.25229 l 0.25227 0.00015 l 0.25229 0.00029 l 0.2523 0.00015 l 0.25228 0.00047 l 0.25228 0.00046 l 0.25229 0.00094 l 0.25229 0.0014 l 0.25229 0.002 l 0.25227 0.0025 l 0.25229 0.0038 l 0.25229 0.0055 l 0.25229 0.0078 l 0.25229 0.01107 l 0.25227 0.01615 l 0.25229 0.02289 l 0.25229 0.03337 l 0.25229 0.04764 l 0.25229 0.06825 l 0.25229 0.09762 l 0.25227 0.13926 l 0.2523 0.19813 l 0.25228 0.28098 l 0.25229 0.39503 l 0.25229 0.54997 l 0.25227 0.75638 l 0.2523 1.02036 l 0.25227 1.34555 l 0.2523 1.71525 l 0.25228 2.10242 l 0.25228 2.45065 l 0.2523 2.69771 l 0.25229 2.78316 l 0.25227 2.69841 l 0.25229 2.45191 l 0.25228 2.10282 l 0.2523 1.71733 l 0.25229 1.34609 l 0.25227 1.02217 l 0.25229 0.75686 l 0.25229 0.55045 l 0.25229 0.39565 l 0.25229 0.28175 l 0.25227 0.19828 l 0.25229 0.13973 l 0.25231 0.0976 l 0.25227 0.06825 l 0.25229 0.04779 l 0.25227 0.03305 l 0.25229 0.02322 l 0.2523 0.01568 l 0.25228 0.01184 l 0.25229 0.0077 l 0.25227 0.0054 l 0.2523 0.0038 l 0.25229 0.0028 l 0.25227 0.0017 l 0.2523 0.0014 l 0.25228 0.00063 l 0.25229 0.00076 l 0.25229 0.00047 l 0.25228 0.00015 h 0.25228 l 0.25229 0.00031 l 0.25229 0.00015 h 0.25229 l 0.25229 0.15403 l 0.25227 -0.15371 h 0.25229 h 0.25229 h 0.25229 h 0.25229 h 0.25227 h 0.25231 h 0.25227 h 0.25229 h 0.25229 h 0.25227 h 0.2523 h 0.25229 h 0.25228 h 0.25229 h 0.25227 h 0.2523 h 0.25229 h 0.25227 h 0.2523 h 0.25228 h 0.25229 h 0.25229 h 0.25227 h 0.25229 h 0.25231" stroke-linecap="round" />
</g>
		<g transform="matrix(1.3333 0 0 -1.3333 -17.6251 14.36)" id="path212" clip-path="url(#CLIPPATH_7)"  >
<clipPath id="CLIPPATH_7" >
	<path transform="matrix(0.75 0 0 -0.75 -58.1527 32.099) translate(-97.134, -80.6979)" id="path186" d="M 0 0 H 194.26797 V 161.39575 H 0 Z" stroke-linecap="round" />
</clipPath>
<path style="stroke: rgb(0,0,0); stroke-width: 0.797; stroke-dasharray: none; stroke-linecap: butt; stroke-dashoffset: 0; stroke-linejoin: miter; stroke-miterlimit: 10; is-custom-font: none; font-file-url: none; fill: none; fill-rule: nonzero; opacity: 1;"  transform=" translate(-126.9682, -69.1696)" d="m 108.23564 53.79858 h 0.37843 h 0.37844 h 0.37843 h 0.37845 h 0.37841 h 0.37844 l 0.37845 0.00031 l 0.37843 -0.00031 h 0.37842 h 0.37843 h 0.37845 h 0.37844 h 0.37843 l 0.37843 0.00031 h 0.37844 h 0.37843 l 0.37845 0.00044 l 0.37843 0.00046 l 0.37842 0.00093 l 0.37845 0.0014 l 0.37843 0.0023 l 0.37843 0.0045 l 0.37845 0.0075 l 0.37842 0.01293 l 0.37843 0.02229 l 0.37845 0.03796 l 0.37843 0.06593 l 0.37842 0.11252 l 0.37844 0.1926 l 0.37844 0.32648 l 0.37844 0.54768 l 0.37843 0.89859 l 0.37843 1.42812 l 0.37844 2.15551 l 0.37843 3.00771 l 0.37845 3.7782 l 0.37843 4.15443 l 0.37842 3.96224 l 0.37845 3.28996 l 0.37843 2.43442 l 0.37843 1.65098 l 0.37845 1.05446 l 0.37842 0.64882 l 0.37843 0.38934 l 0.37845 0.23012 l 0.37844 0.1348 l 0.37843 0.07884 l 0.37843 0.04567 l 0.37844 0.02675 l 0.37843 0.01552 l 0.37843 0.0091 l 0.37844 0.0052 l 0.37843 0.0029 l 0.37843 0.0018 l 0.37845 0.00092 l 0.37844 0.00063 h 0.37841 l 0.37845 0.00045 h 0.37844 h 0.37843 l 0.37843 0.00031 h 0.37844 h 0.37843 h 0.37844 h 0.37844 h 0.37842 h 0.37844 h 0.37844 h 0.37843 h 0.37843 h 0.37843 h 0.37844 h 0.37843 h 0.37845 h 0.37844 h 0.37841 h 0.37845 h 0.37844 h 0.37843 h 0.37843 h 0.37843 h 0.37844 h 0.37845 h 0.37843 h 0.37842 h 0.37845 h 0.37843 h 0.37843 h 0.37845 h 0.37842 h 0.37843 h 0.37844 h 0.37844 h 0.37842 h 0.37844 h 0.37844 h 0.37844 h 0.37843 h 0.37843" stroke-linecap="round" />
</g>
		<g transform="matrix(1.3333 0 0 -1.3333 17.5284 -26.6366)" id="path216" clip-path="url(#CLIPPATH_8)"  >
<clipPath id="CLIPPATH_8" >
	<path transform="matrix(0.75 0 0 -0.75 -84.5176 1.3516) translate(-97.134, -80.6979)" id="path186" d="M 0 0 H 194.26797 V 161.39575 H 0 Z" stroke-linecap="round" />
</clipPath>
<path style="stroke: rgb(0,0,0); stroke-width: 0.797; stroke-dasharray: none; stroke-linecap: butt; stroke-dashoffset: 0; stroke-linejoin: miter; stroke-miterlimit: 10; is-custom-font: none; font-file-url: none; fill: none; fill-rule: nonzero; opacity: 1;"  transform=" translate(-153.3331, -99.917)" d="m 145.70183 84.55092 l 0.15417 0.0026 l 0.15416 0.0031 l 0.15416 0.0044 l 0.15416 0.0046 l 0.15418 0.0063 l 0.15417 0.0078 l 0.15416 0.0095 l 0.15416 0.01231 l 0.15417 0.0149 l 0.15418 0.01875 l 0.15416 0.02368 l 0.15416 0.02934 l 0.15418 0.03643 l 0.15415 0.04551 l 0.15418 0.05671 l 0.15416 0.07041 l 0.15417 0.08716 l 0.15416 0.10883 l 0.15416 0.13464 l 0.15418 0.16587 l 0.15416 0.20518 l 0.15417 0.25224 l 0.15416 0.30944 l 0.15417 0.37628 l 0.15416 0.45756 l 0.15418 0.55109 l 0.15416 0.65785 l 0.15416 0.77962 l 0.15416 0.91287 l 0.15419 1.05512 l 0.15416 1.2001 l 0.15416 1.34254 l 0.15415 1.47208 l 0.1542 1.58121 l 0.15416 1.65973 l 0.15416 1.70047 l 0.15416 1.69704 l 0.15417 1.66055 l 0.15417 1.58142 l 0.15416 1.47343 l 0.15416 1.34262 l 0.15418 1.20174 l 0.15416 1.05576 l 0.15417 0.91388 l 0.15416 0.78066 l 0.15418 0.65928 l 0.15416 0.55151 l 0.15417 0.45775 l 0.15416 0.37736 l 0.15418 0.31018 l 0.15416 0.2524 l 0.15416 0.20489 l 0.15415 0.16663 l 0.15419 0.13478 l 0.15416 0.10883 l 0.15416 0.0875 l 0.15416 0.0706 l 0.15418 0.0566 l 0.15417 0.0457 l 0.15416 0.0364 l 0.15416 0.0296 l 0.15416 0.0234 l 0.15419 0.0191 l 0.15416 0.0149 l 0.15416 0.0123 l 0.15416 0.01 l 0.15418 0.008 l 0.15417 0.006 l 0.15416 0.005 l 0.15416 0.004 l 0.15417 0.003 l 0.15418 0.003 l 0.15416 0.002 l 0.15416 0.002 l 0.15417 0.001 l 0.15416 0.001 l 0.15416 0.00063 l 0.15417 0.00076 l 0.15418 0.00063 l 0.15416 0.0003 l 0.15416 0.00046 l 0.15418 0.00017 l 0.15417 0.0003 h 0.15416 l 0.15416 0.00015 h 0.15416 h 0.15419 l 0.15416 0.00031 l 0.15416 0.00014 h 0.15416 h 0.15417 h 0.15418 l 0.15415 0.00032 h 0.15417 h 0.15416 h 0.15419 h 0.15416 h 0.15415 h 0.15417" stroke-linecap="round" />
</g>
		<g transform="matrix(1.3333 0 0 -1.3333 44.3562 -67.6166)" id="path220" clip-path="url(#CLIPPATH_9)"  >
<clipPath id="CLIPPATH_9" >
	<path transform="matrix(0.75 0 0 -0.75 -104.6385 -29.3835) translate(-97.134, -80.6979)" id="path186" d="M 0 0 H 194.26797 V 161.39575 H 0 Z" stroke-linecap="round" />
</clipPath>
<path style="stroke: rgb(0,0,0); stroke-width: 0.797; stroke-dasharray: none; stroke-linecap: butt; stroke-dashoffset: 0; stroke-linejoin: miter; stroke-miterlimit: 10; is-custom-font: none; font-file-url: none; fill: none; fill-rule: nonzero; opacity: 1;"  transform=" translate(-173.454, -130.6521)" d="m 160.96584 115.28267 h 0.25227 h 0.25229 h 0.25229 h 0.25229 h 0.25228 h 0.25228 h 0.2523 h 0.25228 h 0.25228 h 0.2523 h 0.25227 h 0.2523 h 0.25229 h 0.25227 h 0.25229 h 0.25228 h 0.2523 h 0.25229 h 0.25227 h 0.25229 h 0.25229 h 0.25229 h 0.25229 h 0.25227 h 0.25229 h 0.2523 h 0.25228 h 0.25229 h 0.25227 h 0.25229 h 0.2523 l 0.25228 0.0003 h 0.25229 l 0.25227 0.00016 h 0.25229 l 0.2523 0.0003 h 0.25228 l 0.25228 0.00046 l 0.2523 0.00032 l 0.25228 0.00076 l 0.25229 0.001 l 0.25227 0.001 l 0.25229 0.002 l 0.25229 0.003 l 0.25229 0.005 l 0.25229 0.006 l 0.25227 0.009 l 0.25229 0.0135 l 0.25229 0.0186 l 0.25229 0.0282 l 0.25229 0.0398 l 0.25229 0.057 l 0.25227 0.0816 l 0.25231 0.11638 l 0.25227 0.16632 l 0.25229 0.23639 l 0.25229 0.33355 l 0.25227 0.46619 l 0.2523 0.64606 l 0.25228 0.88046 l 0.25229 1.17587 l 0.25228 1.52465 l 0.25228 1.90937 l 0.2523 2.28465 l 0.25229 2.59136 l 0.25227 2.76341 l 0.25229 2.76113 l 0.25228 2.59227 l 0.2523 2.2867 l 0.25229 1.91163 l 0.25227 1.52803 l 0.25229 1.17696 l 0.25231 0.88244 l 0.25227 0.64743 l 0.25229 0.46712 l 0.25227 0.33415 l 0.25229 0.23656 l 0.25231 0.16647 l 0.25227 0.11713 l 0.25229 0.0818 l 0.25227 0.057 l 0.25229 0.0398 l 0.25231 0.0277 l 0.25227 0.0195 l 0.25229 0.0134 l 0.25229 0.009 l 0.25228 0.007 l 0.25229 0.004 l 0.25228 0.003 l 0.25229 0.002 l 0.25228 0.001 l 0.25229 0.001 l 0.25229 0.00076 l 0.25228 0.00032 l 0.25228 0.00046 h 0.25229 l 0.25229 0.00029 l 0.25229 0.00015 h 0.25229" stroke-linecap="round" />
</g>
		<g transform="matrix(1.3333 0 0 -1.3333 -159.1625 -6.1367)" id="path224" clip-path="url(#CLIPPATH_10)"  >
<clipPath id="CLIPPATH_10" >
	<path transform="matrix(0.75 0 0 -0.75 48.001 16.728) translate(-97.134, -80.6979)" id="path186" d="M 0 0 H 194.26797 V 161.39575 H 0 Z" stroke-linecap="round" />
</clipPath>
<path style="stroke: rgb(128,128,128); stroke-width: 0.1993; stroke-dasharray: 2.98883 2.98883; stroke-linecap: butt; stroke-dashoffset: 0; stroke-linejoin: miter; stroke-miterlimit: 10; is-custom-font: none; font-file-url: none; fill: none; fill-rule: nonzero; opacity: 1;"  transform=" translate(-20.8145, -84.5406)" d="M 20.81454 161.39575 V 7.6855" stroke-linecap="round" />
</g>
		<g transform="matrix(1.3333 0 0 -1.3333 -125.8593 -6.1367)" id="path228" clip-path="url(#CLIPPATH_11)"  >
<clipPath id="CLIPPATH_11" >
	<path transform="matrix(0.75 0 0 -0.75 23.0235 16.728) translate(-97.134, -80.6979)" id="path186" d="M 0 0 H 194.26797 V 161.39575 H 0 Z" stroke-linecap="round" />
</clipPath>
<path style="stroke: rgb(128,128,128); stroke-width: 0.1993; stroke-dasharray: 2.98883 2.98883; stroke-linecap: butt; stroke-dashoffset: 0; stroke-linejoin: miter; stroke-miterlimit: 10; is-custom-font: none; font-file-url: none; fill: none; fill-rule: nonzero; opacity: 1;"  transform=" translate(-45.792, -84.5406)" d="M 45.79199 161.39575 V 7.6855" stroke-linecap="round" />
</g>
		<g transform="matrix(1.3333 0 0 -1.3333 -112.908 -6.1367)" id="path232" clip-path="url(#CLIPPATH_12)"  >
<clipPath id="CLIPPATH_12" >
	<path transform="matrix(0.75 0 0 -0.75 13.31 16.728) translate(-97.134, -80.6979)" id="path186" d="M 0 0 H 194.26797 V 161.39575 H 0 Z" stroke-linecap="round" />
</clipPath>
<path style="stroke: rgb(128,128,128); stroke-width: 0.1993; stroke-dasharray: 2.98883 2.98883; stroke-linecap: butt; stroke-dashoffset: 0; stroke-linejoin: miter; stroke-miterlimit: 10; is-custom-font: none; font-file-url: none; fill: none; fill-rule: nonzero; opacity: 1;"  transform=" translate(-55.5055, -84.5406)" d="M 55.50546 161.39575 V 7.6855" stroke-linecap="round" />
</g>
		<g transform="matrix(1.3333 0 0 -1.3333 -88.8556 -6.1367)" id="path236" clip-path="url(#CLIPPATH_13)"  >
<clipPath id="CLIPPATH_13" >
	<path transform="matrix(0.75 0 0 -0.75 -4.7292 16.728) translate(-97.134, -80.6979)" id="path186" d="M 0 0 H 194.26797 V 161.39575 H 0 Z" stroke-linecap="round" />
</clipPath>
<path style="stroke: rgb(128,128,128); stroke-width: 0.1993; stroke-dasharray: 2.98883 2.98883; stroke-linecap: butt; stroke-dashoffset: 0; stroke-linejoin: miter; stroke-miterlimit: 10; is-custom-font: none; font-file-url: none; fill: none; fill-rule: nonzero; opacity: 1;"  transform=" translate(-73.5447, -84.5406)" d="M 73.54474 161.39575 V 7.6855" stroke-linecap="round" />
</g>
		<g transform="matrix(1.3333 0 0 -1.3333 14.7546 -11.2605)" id="path240" clip-path="url(#CLIPPATH_14)"  >
<clipPath id="CLIPPATH_14" >
	<path transform="matrix(0.75 0 0 -0.75 -82.4369 12.8852) translate(-97.134, -80.6979)" id="path186" d="M 0 0 H 194.26797 V 161.39575 H 0 Z" stroke-linecap="round" />
</clipPath>
<path style="stroke: rgb(128,128,128); stroke-width: 0.1993; stroke-dasharray: 2.98883 2.98883; stroke-linecap: butt; stroke-dashoffset: 0; stroke-linejoin: miter; stroke-miterlimit: 10; is-custom-font: none; font-file-url: none; fill: none; fill-rule: nonzero; opacity: 1;"  transform=" translate(-151.2524, -88.3834)" d="M 151.25238 169.08125 V 7.6855" stroke-linecap="round" />
</g>
		<g transform="matrix(1.3333 0 0 -1.3333 -24.0993 -11.2605)" id="path244" clip-path="url(#CLIPPATH_15)"  >
<clipPath id="CLIPPATH_15" >
	<path transform="matrix(0.75 0 0 -0.75 -53.2965 12.8852) translate(-97.134, -80.6979)" id="path186" d="M 0 0 H 194.26797 V 161.39575 H 0 Z" stroke-linecap="round" />
</clipPath>
<path style="stroke: rgb(128,128,128); stroke-width: 0.1993; stroke-dasharray: 2.98883 2.98883; stroke-linecap: butt; stroke-dashoffset: 0; stroke-linejoin: miter; stroke-miterlimit: 10; is-custom-font: none; font-file-url: none; fill: none; fill-rule: nonzero; opacity: 1;"  transform=" translate(-122.112, -88.3834)" d="M 122.11201 169.08125 V 7.6855" stroke-linecap="round" />
</g>
		<g transform="matrix(1.3333 0 0 -1.3333 -62.9531 -11.2605)" id="path248" clip-path="url(#CLIPPATH_16)"  >
<clipPath id="CLIPPATH_16" >
	<path transform="matrix(0.75 0 0 -0.75 -24.1562 12.8852) translate(-97.134, -80.6979)" id="path186" d="M 0 0 H 194.26797 V 161.39575 H 0 Z" stroke-linecap="round" />
</clipPath>
<path style="stroke: rgb(128,128,128); stroke-width: 0.1993; stroke-dasharray: 2.98883 2.98883; stroke-linecap: butt; stroke-dashoffset: 0; stroke-linejoin: miter; stroke-miterlimit: 10; is-custom-font: none; font-file-url: none; fill: none; fill-rule: nonzero; opacity: 1;"  transform=" translate(-92.9716, -88.3834)" d="M 92.97165 169.08125 V 7.6855" stroke-linecap="round" />
</g>
		<g transform="matrix(1.3333 0 0 -1.3333 49.908 -11.2605)" id="path252" clip-path="url(#CLIPPATH_17)"  >
<clipPath id="CLIPPATH_17" >
	<path transform="matrix(0.75 0 0 -0.75 -108.802 12.8852) translate(-97.134, -80.6979)" id="path186" d="M 0 0 H 194.26797 V 161.39575 H 0 Z" stroke-linecap="round" />
</clipPath>
<path style="stroke: rgb(128,128,128); stroke-width: 0.1993; stroke-dasharray: 2.98883 2.98883; stroke-linecap: butt; stroke-dashoffset: 0; stroke-linejoin: miter; stroke-miterlimit: 10; is-custom-font: none; font-file-url: none; fill: none; fill-rule: nonzero; opacity: 1;"  transform=" translate(-177.6175, -88.3834)" d="M 177.61748 169.08125 V 7.6855" stroke-linecap="round" />
</g>
		<g transform="matrix(1.3333 0 0 -1.3333 -57.4066 -88.1129)" id="path256" clip-path="url(#CLIPPATH_18)"  >
<clipPath id="CLIPPATH_18" >
	<path transform="matrix(0.75 0 0 -0.75 -28.3185 -44.7561) translate(-97.134, -80.6979)" id="path186" d="M 0 0 H 194.26797 V 161.39575 H 0 Z" stroke-linecap="round" />
</clipPath>
<path style="stroke: rgb(0,0,0); stroke-width: 0.1993; stroke-dasharray: 2.98883 2.98883; stroke-linecap: butt; stroke-dashoffset: 0; stroke-linejoin: miter; stroke-miterlimit: 10; is-custom-font: none; font-file-url: none; fill: none; fill-rule: nonzero; opacity: 1;"  transform=" translate(-97.134, -146.0247)" d="m 0 146.02472 h 8.09448 h 8.09452 h 8.09448 h 8.09451 h 8.09448 h 8.09452 h 8.09448 h 8.09451 h 8.09452 h 8.09448 h 8.09451 h 8.09448 h 8.09452 h 8.09448 h 8.09451 h 8.09448 h 8.09452 h 8.09451 h 8.09448 h 8.09451 h 8.09449 h 8.09449 h 8.0945 h 8.09451" stroke-linecap="round" />
</g>
		<g transform="matrix(1.3333 0 0 -1.3333 -57.4066 -47.1235)" id="path260" clip-path="url(#CLIPPATH_19)"  >
<clipPath id="CLIPPATH_19" >
	<path transform="matrix(0.75 0 0 -0.75 -28.3185 -14.0141) translate(-97.134, -80.6979)" id="path186" d="M 0 0 H 194.26797 V 161.39575 H 0 Z" stroke-linecap="round" />
</clipPath>
<path style="stroke: rgb(0,0,0); stroke-width: 0.1993; stroke-dasharray: 2.98883 2.98883; stroke-linecap: butt; stroke-dashoffset: 0; stroke-linejoin: miter; stroke-miterlimit: 10; is-custom-font: none; font-file-url: none; fill: none; fill-rule: nonzero; opacity: 1;"  transform=" translate(-97.134, -115.2827)" d="m 0 115.28267 h 8.09448 h 8.09452 h 8.09448 h 8.09451 h 8.09448 h 8.09452 h 8.09448 h 8.09451 h 8.09452 h 8.09448 h 8.09451 h 8.09448 h 8.09452 h 8.09448 h 8.09451 h 8.09448 h 8.09452 h 8.09451 h 8.09448 h 8.09451 h 8.09449 h 8.09449 h 8.0945 h 8.09451" stroke-linecap="round" />
</g>
		<g transform="matrix(1.3333 0 0 -1.3333 -57.4066 -6.1341)" id="path264" clip-path="url(#CLIPPATH_20)"  >
<clipPath id="CLIPPATH_20" >
	<path transform="matrix(0.75 0 0 -0.75 -28.3185 16.728) translate(-97.134, -80.6979)" id="path186" d="M 0 0 H 194.26797 V 161.39575 H 0 Z" stroke-linecap="round" />
</clipPath>
<path style="stroke: rgb(0,0,0); stroke-width: 0.1993; stroke-dasharray: 2.98883 2.98883; stroke-linecap: butt; stroke-dashoffset: 0; stroke-linejoin: miter; stroke-miterlimit: 10; is-custom-font: none; font-file-url: none; fill: none; fill-rule: nonzero; opacity: 1;"  transform=" translate(-97.134, -84.5406)" d="m 0 84.54062 h 8.09448 h 8.09452 h 8.09448 h 8.09451 h 8.09448 h 8.09452 h 8.09448 h 8.09451 h 8.09452 h 8.09448 h 8.09451 h 8.09448 h 8.09452 h 8.09448 h 8.09451 h 8.09448 h 8.09452 h 8.09451 h 8.09448 h 8.09451 h 8.09449 h 8.09449 h 8.0945 h 8.09451" stroke-linecap="round" />
</g>
		<g transform="matrix(1.3333 0 0 -1.3333 -57.4066 34.8553)" id="path268" clip-path="url(#CLIPPATH_21)"  >
<clipPath id="CLIPPATH_21" >
	<path transform="matrix(0.75 0 0 -0.75 -28.3185 47.47) translate(-97.134, -80.6979)" id="path186" d="M 0 0 H 194.26797 V 161.39575 H 0 Z" stroke-linecap="round" />
</clipPath>
<path style="stroke: rgb(0,0,0); stroke-width: 0.1993; stroke-dasharray: 2.98883 2.98883; stroke-linecap: butt; stroke-dashoffset: 0; stroke-linejoin: miter; stroke-miterlimit: 10; is-custom-font: none; font-file-url: none; fill: none; fill-rule: nonzero; opacity: 1;"  transform=" translate(-97.134, -53.7986)" d="m 0 53.79858 h 8.09448 h 8.09452 h 8.09448 h 8.09451 h 8.09448 h 8.09452 h 8.09448 h 8.09451 h 8.09452 h 8.09448 h 8.09451 h 8.09448 h 8.09452 h 8.09448 h 8.09451 h 8.09448 h 8.09452 h 8.09451 h 8.09448 h 8.09451 h 8.09449 h 8.09449 h 8.0945 h 8.09451" stroke-linecap="round" />
</g>
		<g transform="matrix(1.3333 0 0 -1.3333 -57.4066 75.8447)" id="path272" clip-path="url(#CLIPPATH_22)"  >
<clipPath id="CLIPPATH_22" >
	<path transform="matrix(0.75 0 0 -0.75 -28.3185 78.2121) translate(-97.134, -80.6979)" id="path186" d="M 0 0 H 194.26797 V 161.39575 H 0 Z" stroke-linecap="round" />
</clipPath>
<path style="stroke: rgb(0,0,0); stroke-width: 0.1993; stroke-dasharray: 2.98883 2.98883; stroke-linecap: butt; stroke-dashoffset: 0; stroke-linejoin: miter; stroke-miterlimit: 10; is-custom-font: none; font-file-url: none; fill: none; fill-rule: nonzero; opacity: 1;"  transform=" translate(-97.134, -23.0565)" d="m 0 23.05653 h 8.09448 h 8.09452 h 8.09448 h 8.09451 h 8.09448 h 8.09452 h 8.09448 h 8.09451 h 8.09452 h 8.09448 h 8.09451 h 8.09448 h 8.09452 h 8.09448 h 8.09451 h 8.09448 h 8.09452 h 8.09451 h 8.09448 h 8.09451 h 8.09449 h 8.09449 h 8.0945 h 8.09451" stroke-linecap="round" />
</g>
		<g transform="matrix(1.3333 0 0 -1.3333 -125.8594 -26.6289)" id="path276"  >
<path style="stroke: rgb(0,0,0); stroke-width: 0.797; stroke-dasharray: none; stroke-linecap: butt; stroke-dashoffset: 0; stroke-linejoin: miter; stroke-miterlimit: 10; is-custom-font: none; font-file-url: none; fill: none; fill-rule: nonzero; opacity: 1;"  transform=" translate(-45.792, -99.9117)" d="m 44.38306 98.5027 l 2.81788 2.8179 m -2.81788 0 l 2.81788 -2.8179" stroke-linecap="round" />
</g>
		<g transform="matrix(1.3333 0 0 -1.3333 -159.1626 -67.6183)" id="path280"  >
<path style="stroke: rgb(0,0,0); stroke-width: 0.797; stroke-dasharray: none; stroke-linecap: butt; stroke-dashoffset: 0; stroke-linejoin: miter; stroke-miterlimit: 10; is-custom-font: none; font-file-url: none; fill: none; fill-rule: nonzero; opacity: 1;"  transform=" translate(-20.8146, -130.6537)" d="m 19.4056 129.24475 l 2.8179 2.8179 m -2.8179 0 l 2.8179 -2.8179" stroke-linecap="round" />
</g>
		<g transform="matrix(1.3333 0 0 -1.3333 -112.9081 14.3605)" id="path284"  >
<path style="stroke: rgb(0,0,0); stroke-width: 0.797; stroke-dasharray: none; stroke-linecap: butt; stroke-dashoffset: 0; stroke-linejoin: miter; stroke-miterlimit: 10; is-custom-font: none; font-file-url: none; fill: none; fill-rule: nonzero; opacity: 1;"  transform=" translate(-55.5055, -69.1696)" d="m 54.09651 67.76065 l 2.81789 2.8179 m -2.81789 0 l 2.81789 -2.8179" stroke-linecap="round" />
</g>
		<g transform="matrix(1.3333 0 0 -1.3333 -88.8557 55.3499)" id="path288"  >
<path style="stroke: rgb(0,0,0); stroke-width: 0.797; stroke-dasharray: none; stroke-linecap: butt; stroke-dashoffset: 0; stroke-linejoin: miter; stroke-miterlimit: 10; is-custom-font: none; font-file-url: none; fill: none; fill-rule: nonzero; opacity: 1;"  transform=" translate(-73.5447, -38.4275)" d="m 72.13579 37.0186 l 2.81788 2.8179 m -2.81788 0 l 2.81788 -2.8179" stroke-linecap="round" />
</g>
		<g transform="matrix(1.3333 0 0 -1.3333 -62.9532 55.3499)" id="path292"  >
<path style="stroke: rgb(0,0,0); stroke-width: 0.797; stroke-dasharray: none; stroke-linecap: butt; stroke-dashoffset: 0; stroke-linejoin: miter; stroke-miterlimit: 10; is-custom-font: none; font-file-url: none; fill: none; fill-rule: nonzero; opacity: 1;"  transform=" translate(-92.9717, -38.4275)" d="m 91.5627 37.0186 l 2.8179 2.8179 m -2.8179 0 l 2.8179 -2.8179" stroke-linecap="round" />
</g>
		<g transform="matrix(1.3333 0 0 -1.3333 -24.0994 14.3605)" id="path296"  >
<path style="stroke: rgb(0,0,0); stroke-width: 0.797; stroke-dasharray: none; stroke-linecap: butt; stroke-dashoffset: 0; stroke-linejoin: miter; stroke-miterlimit: 10; is-custom-font: none; font-file-url: none; fill: none; fill-rule: nonzero; opacity: 1;"  transform=" translate(-122.112, -69.1696)" d="m 120.70306 67.76065 l 2.81791 2.8179 m -2.81791 0 l 2.81791 -2.8179" stroke-linecap="round" />
</g>
		<g transform="matrix(1.3333 0 0 -1.3333 14.7545 -26.6289)" id="path300"  >
<path style="stroke: rgb(0,0,0); stroke-width: 0.797; stroke-dasharray: none; stroke-linecap: butt; stroke-dashoffset: 0; stroke-linejoin: miter; stroke-miterlimit: 10; is-custom-font: none; font-file-url: none; fill: none; fill-rule: nonzero; opacity: 1;"  transform=" translate(-151.2524, -99.9117)" d="m 149.84343 98.5027 l 2.8179 2.8179 m -2.8179 0 l 2.8179 -2.8179" stroke-linecap="round" />
</g>
		<g transform="matrix(1.3333 0 0 -1.3333 49.9079 -67.6183)" id="path304"  >
<path style="stroke: rgb(0,0,0); stroke-width: 0.797; stroke-dasharray: none; stroke-linecap: butt; stroke-dashoffset: 0; stroke-linejoin: miter; stroke-miterlimit: 10; is-custom-font: none; font-file-url: none; fill: none; fill-rule: nonzero; opacity: 1;"  transform=" translate(-177.6175, -130.6537)" d="m 176.20853 129.24475 l 2.8179 2.8179 m -2.8179 0 l 2.8179 -2.8179" stroke-linecap="round" />
</g>
		<g transform="matrix(1.3333 0 0 -1.3333 140.5051 0.1725)" id="path20"  >
<path style="stroke: rgb(0,0,0); stroke-width: 0.3985; stroke-dasharray: none; stroke-linecap: butt; stroke-dashoffset: 0; stroke-linejoin: miter; stroke-miterlimit: 10; is-custom-font: none; font-file-url: none; fill: none; fill-rule: nonzero; opacity: 1;"  transform=" translate(0, 0)" d="m 25.51237 0 c 0 14.09027 -11.4221 25.51237 -25.51237 25.51237 c -14.09027 0 -25.51237 -11.4221 -25.51237 -25.51237 c 0 -14.09027 11.4221 -25.51237 25.51237 -25.51237 c 14.09027 0 25.51237 11.4221 25.51237 25.51237 z" stroke-linecap="round" />
</g>
		<g transform="matrix(0.8 0 0 0.8 399.6905 46.3917)" style="" id="text32"  >
		<text xml:space="preserve" font-family="CMR10" font-size="9.9626" font-style="normal" font-weight="normal" style="stroke: none; stroke-width: 1; stroke-dasharray: none; stroke-linecap: butt; stroke-dashoffset: 0; stroke-linejoin: miter; stroke-miterlimit: 4; is-custom-font: none; font-file-url: none; fill: rgb(0,0,0); fill-rule: nonzero; opacity: 1; white-space: pre;" ><tspan x="-2.4907" y="3.1297" >0</tspan></text>
</g>
		<g transform="matrix(0.8 0 0 0.8 383.5905 13.7477)" style="" id="text48"  >
		<text xml:space="preserve" font-family="CMR10" font-size="9.9626" font-style="normal" font-weight="normal" style="stroke: none; stroke-width: 1; stroke-dasharray: none; stroke-linecap: butt; stroke-dashoffset: 0; stroke-linejoin: miter; stroke-miterlimit: 4; is-custom-font: none; font-file-url: none; fill: rgb(0,0,0); fill-rule: nonzero; opacity: 1; white-space: pre;" ><tspan x="-2.4907" y="3.1297" >1</tspan></text>
</g>
		<g transform="matrix(0.8 0 0 0.8 376.7241 78.549)" style="" id="text64"  >
		<text xml:space="preserve" font-family="CMMI10" font-size="9.9626" font-style="normal" font-weight="normal" style="stroke: none; stroke-width: 1; stroke-dasharray: none; stroke-linecap: butt; stroke-dashoffset: 0; stroke-linejoin: miter; stroke-miterlimit: 4; is-custom-font: none; font-file-url: none; fill: rgb(0,0,0); fill-rule: nonzero; opacity: 1; white-space: pre;" ><tspan x="-2.2109" y="3.1297" >e</tspan></text>
</g>
		<g transform="matrix(0.8 0 0 0.8 382.6851 78.549)" style="" id="text68"  >
		<text xml:space="preserve" font-family="CMR10" font-size="9.9626" font-style="normal" font-weight="normal" style="stroke: none; stroke-width: 1; stroke-dasharray: none; stroke-linecap: butt; stroke-dashoffset: 0; stroke-linejoin: miter; stroke-miterlimit: 4; is-custom-font: none; font-file-url: none; fill: rgb(0,0,0); fill-rule: nonzero; opacity: 1; white-space: pre;" ><tspan x="-2.8093" y="3.1297" >+</tspan></text>
</g>
		<g transform="matrix(0.8 0 0 0.8 389.7351 78.549)" style="" id="text72"  >
		<text xml:space="preserve" font-family="CMMI10" font-size="9.9626" font-style="normal" font-weight="normal" style="stroke: none; stroke-width: 1; stroke-dasharray: none; stroke-linecap: butt; stroke-dashoffset: 0; stroke-linejoin: miter; stroke-miterlimit: 4; is-custom-font: none; font-file-url: none; fill: rgb(0,0,0); fill-rule: nonzero; opacity: 1; white-space: pre;" ><tspan x="-1.6588" y="3.1297" >r</tspan></text>
</g>
		<g transform="matrix(1.3333 0 0 -1.3333 157.5136 0.1725)" id="path80"  >
<path style="stroke: none; stroke-width: 1; stroke-dasharray: none; stroke-linecap: butt; stroke-dashoffset: 0; stroke-linejoin: miter; stroke-miterlimit: 4; is-custom-font: none; font-file-url: none; fill: rgb(179,179,179); fill-opacity: 0.5; fill-rule: nonzero; opacity: 1;"  transform=" translate(-12.7561, -0.0001)" d="m 0 0 l 18.03984 -18.03984 c 9.96304 9.96304 9.96304 26.11688 0 36.07992" stroke-linecap="round" />
</g>
		<g transform="matrix(1.3333 0 0 -1.3333 123.4971 2.2689)" id="path84"  >
<path style="stroke: none; stroke-width: 1; stroke-dasharray: none; stroke-linecap: butt; stroke-dashoffset: 0; stroke-linejoin: miter; stroke-miterlimit: 4; is-custom-font: none; font-file-url: none; fill: rgb(179,179,179); fill-opacity: 0.5; fill-rule: nonzero; opacity: 1;"  transform=" translate(12.7563, 1.5721)" d="m 0 0 l -19.54329 16.39912 c -9.05678 -10.79338 -7.64912 -26.88574 3.14427 -35.94252" stroke-linecap="round" />
</g>
		<g transform="matrix(0.8 0 0 0.8 372.4947 45.949)" style="" id="text96"  >
		<text xml:space="preserve" font-family="CMMI10" font-size="9.9626" font-style="normal" font-weight="normal" style="stroke: none; stroke-width: 1; stroke-dasharray: none; stroke-linecap: butt; stroke-dashoffset: 0; stroke-linejoin: miter; stroke-miterlimit: 4; is-custom-font: none; font-file-url: none; fill: rgb(0,0,0); fill-rule: nonzero; opacity: 1; white-space: pre;" ><tspan x="-3.3225" y="3.1297" >C</tspan></text>
</g>
		<g transform="matrix(0.8 0 0 0.8 376.9275 47.8933)" style="" id="text100"  >
		<text xml:space="preserve" font-family="CMR7" font-size="6.9738" font-style="normal" font-weight="normal" style="stroke: none; stroke-width: 1; stroke-dasharray: none; stroke-linecap: butt; stroke-dashoffset: 0; stroke-linejoin: miter; stroke-miterlimit: 4; is-custom-font: none; font-file-url: none; fill: rgb(0,0,0); fill-rule: nonzero; opacity: 1; white-space: pre;" ><tspan x="-1.7434" y="2.1907" >0</tspan></text>
</g>
		<g transform="matrix(0.8 0 0 0.8 335.836 45.949)" style="" id="text116"  >
		<text xml:space="preserve" font-family="CMMI10" font-size="9.9626" font-style="normal" font-weight="normal" style="stroke: none; stroke-width: 1; stroke-dasharray: none; stroke-linecap: butt; stroke-dashoffset: 0; stroke-linejoin: miter; stroke-miterlimit: 4; is-custom-font: none; font-file-url: none; fill: rgb(0,0,0); fill-rule: nonzero; opacity: 1; white-space: pre;" ><tspan x="-3.3225" y="3.1297" >C</tspan></text>
</g>
		<g transform="matrix(0.8 0 0 0.8 340.2824 47.8933)" style="" id="text120"  >
		<text xml:space="preserve" font-family="CMMI7" font-size="6.9738" font-style="normal" font-weight="normal" style="stroke: none; stroke-width: 1; stroke-dasharray: none; stroke-linecap: butt; stroke-dashoffset: 0; stroke-linejoin: miter; stroke-miterlimit: 4; is-custom-font: none; font-file-url: none; fill: rgb(0,0,0); fill-rule: nonzero; opacity: 1; white-space: pre;" ><tspan x="-1.7605" y="2.1907" >π</tspan></text>
</g>
		<g transform="matrix(0.8 0 0 0.8 375.6065 7.621)" style="" id="text136"  >
		<text xml:space="preserve" font-family="CMR10" font-size="9.9626" font-style="normal" font-weight="normal" style="stroke: none; stroke-width: 1; stroke-dasharray: none; stroke-linecap: butt; stroke-dashoffset: 0; stroke-linejoin: miter; stroke-miterlimit: 4; is-custom-font: none; font-file-url: none; fill: rgb(0,0,0); fill-rule: nonzero; opacity: 1; white-space: pre;" ><tspan x="-2.4907" y="3.1297" >2</tspan></text>
</g>
		<g transform="matrix(0.8 0 0 0.8 335.6997 88.0024)" style="" id="text152"  >
		<text xml:space="preserve" font-family="CMMI10" font-size="9.9626" font-style="normal" font-weight="normal" style="stroke: none; stroke-width: 1; stroke-dasharray: none; stroke-linecap: butt; stroke-dashoffset: 0; stroke-linejoin: miter; stroke-miterlimit: 4; is-custom-font: none; font-file-url: none; fill: rgb(0,0,0); fill-rule: nonzero; opacity: 1; white-space: pre;" ><tspan x="-1.6588" y="3.1297" >r</tspan></text>
</g>
		<g transform="matrix(0.8 0 0 0.8 344.2014 88.0024)" style="" id="text156"  >
		<text xml:space="preserve" font-family="CMR10" font-size="9.9626" font-style="normal" font-weight="normal" style="stroke: none; stroke-width: 1; stroke-dasharray: none; stroke-linecap: butt; stroke-dashoffset: 0; stroke-linejoin: miter; stroke-miterlimit: 4; is-custom-font: none; font-file-url: none; fill: rgb(0,0,0); fill-rule: nonzero; opacity: 1; white-space: pre;" ><tspan x="-5.2999" y="3.1297" >+1</tspan></text>
</g>
		<g transform="matrix(1.3333 0 0 -1.3333 128.8717 32.1385)" id="path164"  >
<path style="stroke: rgb(0,0,0); stroke-width: 0.3985; stroke-dasharray: none; stroke-linecap: butt; stroke-dashoffset: 0; stroke-linejoin: miter; stroke-miterlimit: 10; is-custom-font: none; font-file-url: none; fill: rgb(255,255,255); fill-rule: nonzero; opacity: 1;"  transform=" translate(8.7257, 23.9739)" d="m -7.36507 -23.9739 c 0 0.75147 -0.6092 1.36068 -1.36067 1.36068 c -0.75148 0 -1.36069 -0.60921 -1.36069 -1.36068 c 0 -0.75149 0.60921 -1.3607 1.36069 -1.3607 c 0.75147 0 1.36067 0.60921 1.36067 1.3607 z" stroke-linecap="round" />
</g>
		<g transform="matrix(0.8 0 0 0.8 366.3078 3.7704)" style="" id="text176"  >
		<text xml:space="preserve" font-family="CMR10" font-size="9.9626" font-style="normal" font-weight="normal" style="stroke: none; stroke-width: 1; stroke-dasharray: none; stroke-linecap: butt; stroke-dashoffset: 0; stroke-linejoin: miter; stroke-miterlimit: 4; is-custom-font: none; font-file-url: none; fill: rgb(0,0,0); fill-rule: nonzero; opacity: 1; white-space: pre;" ><tspan x="-2.4907" y="3.1297" >3</tspan></text>
</g>
		<g transform="matrix(0.8 0 0 0.8 301.0717 59.245)" style="" id="text200"  >
		<text xml:space="preserve" font-family="CMMI10" font-size="9.9626" font-style="normal" font-weight="normal" style="stroke: none; stroke-width: 1; stroke-dasharray: none; stroke-linecap: butt; stroke-dashoffset: 0; stroke-linejoin: miter; stroke-miterlimit: 4; is-custom-font: none; font-file-url: none; fill: rgb(0,0,0); fill-rule: nonzero; opacity: 1; white-space: pre;" ><tspan x="-1.6588" y="3.1297" >r</tspan></text>
</g>
		<g transform="matrix(0.8 0 0 0.8 307.5801 59.245)" style="" id="text204"  >
		<text xml:space="preserve" font-family="CMSY10" font-size="9.9626" font-style="normal" font-weight="normal" style="stroke: none; stroke-width: 1; stroke-dasharray: none; stroke-linecap: butt; stroke-dashoffset: 0; stroke-linejoin: miter; stroke-miterlimit: 4; is-custom-font: none; font-file-url: none; fill: rgb(0,0,0); fill-rule: nonzero; opacity: 1; white-space: pre;" ><tspan x="-2.8093" y="3.1297" >−</tspan></text>
</g>
		<g transform="matrix(0.8 0 0 0.8 315.2956 59.245)" style="" id="text208"  >
		<text xml:space="preserve" font-family="CMR10" font-size="9.9626" font-style="normal" font-weight="normal" style="stroke: none; stroke-width: 1; stroke-dasharray: none; stroke-linecap: butt; stroke-dashoffset: 0; stroke-linejoin: miter; stroke-miterlimit: 4; is-custom-font: none; font-file-url: none; fill: rgb(0,0,0); fill-rule: nonzero; opacity: 1; white-space: pre;" ><tspan x="-2.4907" y="3.1297" >1</tspan></text>
</g>
		<g transform="matrix(0.8 0 0 0.8 326.2437 75.0704)" style="" id="text224"  >
		<text xml:space="preserve" font-family="CMMI10" font-size="9.9626" font-style="normal" font-weight="normal" style="stroke: none; stroke-width: 1; stroke-dasharray: none; stroke-linecap: butt; stroke-dashoffset: 0; stroke-linejoin: miter; stroke-miterlimit: 4; is-custom-font: none; font-file-url: none; fill: rgb(0,0,0); fill-rule: nonzero; opacity: 1; white-space: pre;" ><tspan x="-1.6588" y="3.1297" >r</tspan></text>
</g>
		<g transform="matrix(1.3333 0 0 -1.3333 118.6405 26.231)" id="path232"  >
<path style="stroke: rgb(0,0,0); stroke-width: 0.3985; stroke-dasharray: none; stroke-linecap: butt; stroke-dashoffset: 0; stroke-linejoin: miter; stroke-miterlimit: 10; is-custom-font: none; font-file-url: none; fill: rgb(153,153,153); fill-rule: nonzero; opacity: 1;"  transform=" translate(16.3991, 19.5433)" d="m -15.03844 -19.54329 c 0 0.75148 -0.6092 1.36069 -1.36068 1.36069 c -0.75148 0 -1.36069 -0.60921 -1.36069 -1.36069 c 0 -0.75148 0.60921 -1.36069 1.36069 -1.36069 c 0.75148 0 1.36068 0.60921 1.36068 1.36069 z" stroke-linecap="round" />
</g>
		<g transform="matrix(1.3333 0 0 -1.3333 108.5408 11.8077)" id="path236"  >
<path style="stroke: rgb(0,0,0); stroke-width: 0.3985; stroke-dasharray: none; stroke-linecap: butt; stroke-dashoffset: 0; stroke-linejoin: miter; stroke-miterlimit: 10; is-custom-font: none; font-file-url: none; fill: rgb(153,153,153); fill-rule: nonzero; opacity: 1;"  transform=" translate(23.9739, 8.7257)" d="m -22.61322 -8.72574 c 0 0.75147 -0.60921 1.36067 -1.36068 1.36067 c -0.75149 0 -1.3607 -0.6092 -1.3607 -1.36067 c 0 -0.75148 0.60921 -1.36069 1.3607 -1.36069 c 0.75147 0 1.36068 0.60921 1.36068 1.36069 z" stroke-linecap="round" />
</g>
		<g transform="matrix(1.3333 0 0 -1.3333 114.4483 -21.6922)" id="path240"  >
<path style="stroke: rgb(0,0,0); stroke-width: 0.3985; stroke-dasharray: none; stroke-linecap: butt; stroke-dashoffset: 0; stroke-linejoin: miter; stroke-miterlimit: 10; is-custom-font: none; font-file-url: none; fill: rgb(153,153,153); fill-rule: nonzero; opacity: 1;"  transform=" translate(19.5433, -16.3991)" d="m -18.1826 16.39912 c 0 0.75148 -0.60921 1.36069 -1.36069 1.36069 c -0.75148 0 -1.36069 -0.60921 -1.36069 -1.36069 c 0 -0.75148 0.60921 -1.36068 1.36069 -1.36068 c 0.75148 0 1.36069 0.6092 1.36069 1.36068 z" stroke-linecap="round" />
</g>
		<g transform="matrix(1.3333 0 0 -1.3333 174.5225 0.1732)" id="path244"  >
<path style="stroke: rgb(0,0,0); stroke-width: 0.3985; stroke-dasharray: none; stroke-linecap: butt; stroke-dashoffset: 0; stroke-linejoin: miter; stroke-miterlimit: 10; is-custom-font: none; font-file-url: none; fill: rgb(153,153,153); fill-rule: nonzero; opacity: 1;"  transform=" translate(-25.5124, 0)" d="m 26.87305 0 c 0 0.75146 -0.60921 1.36067 -1.36069 1.36067 c -0.75148 0 -1.36069 -0.60921 -1.36069 -1.36067 c 0 -0.75146 0.60921 -1.36067 1.36069 -1.36067 c 0.75148 0 1.36069 0.60921 1.36069 1.36067 z" stroke-linecap="round" />
</g>
		<g transform="matrix(1.3333 0 0 -1.3333 164.5591 -23.8798)" id="path248"  >
<path style="stroke: rgb(0,0,0); stroke-width: 0.3985; stroke-dasharray: none; stroke-linecap: butt; stroke-dashoffset: 0; stroke-linejoin: miter; stroke-miterlimit: 10; is-custom-font: none; font-file-url: none; fill: rgb(153,153,153); fill-rule: nonzero; opacity: 1;"  transform=" translate(-18.0399, -18.0399)" d="m 19.40053 18.03984 c 0 0.75148 -0.60921 1.36069 -1.36069 1.36069 c -0.75148 0 -1.36067 -0.60921 -1.36067 -1.36069 c 0 -0.75148 0.60919 -1.36067 1.36067 -1.36067 c 0.75148 0 1.36069 0.60919 1.36069 1.36067 z" stroke-linecap="round" />
</g>
		<g transform="matrix(1.3333 0 0 -1.3333 164.5591 24.2265)" id="path252"  >
<path style="stroke: rgb(0,0,0); stroke-width: 0.3985; stroke-dasharray: none; stroke-linecap: butt; stroke-dashoffset: 0; stroke-linejoin: miter; stroke-miterlimit: 10; is-custom-font: none; font-file-url: none; fill: rgb(153,153,153); fill-rule: nonzero; opacity: 1;"  transform=" translate(-18.0399, 18.0399)" d="m 19.40053 -18.03984 c 0 0.75148 -0.60921 1.36067 -1.36069 1.36067 c -0.75148 0 -1.36067 -0.60919 -1.36067 -1.36067 c 0 -0.75148 0.60919 -1.36069 1.36067 -1.36069 c 0.75148 0 1.36069 0.60921 1.36069 1.36069 z" stroke-linecap="round" />
</g>
		<g transform="matrix(1.3333 0 0 -1.3333 157.5141 -29.2859)" id="path256"  >
<path style="stroke: rgb(0,0,0); stroke-width: 0.3985; stroke-dasharray: none; stroke-linecap: butt; stroke-dashoffset: 0; stroke-linejoin: miter; stroke-miterlimit: 10; is-custom-font: none; font-file-url: none; fill: rgb(255,255,255); fill-rule: nonzero; opacity: 1;"  transform=" translate(-12.7562, -22.0944)" d="m 14.11685 22.0944 c 0 0.75149 -0.60921 1.3607 -1.36069 1.3607 c -0.75148 0 -1.36066 -0.60921 -1.36066 -1.3607 c 0 -0.75147 0.60918 -1.36067 1.36066 -1.36067 c 0.75148 0 1.36069 0.6092 1.36069 1.36067 z" stroke-linecap="round" />
</g>
		<g transform="matrix(1.3333 0 0 -1.3333 123.4977 -29.2859)" id="path260"  >
<path style="stroke: rgb(0,0,0); stroke-width: 0.3985; stroke-dasharray: none; stroke-linecap: butt; stroke-dashoffset: 0; stroke-linejoin: miter; stroke-miterlimit: 10; is-custom-font: none; font-file-url: none; fill: rgb(255,255,255); fill-rule: nonzero; opacity: 1;"  transform=" translate(12.7562, -22.0944)" d="m -11.3955 22.0944 c 0 0.75149 -0.60918 1.3607 -1.36066 1.3607 c -0.75148 0 -1.36069 -0.60921 -1.36069 -1.3607 c 0 -0.75147 0.60921 -1.36067 1.36069 -1.36067 c 0.75148 0 1.36066 0.6092 1.36066 1.36067 z" stroke-linecap="round" />
</g>
		<g transform="matrix(1.3333 0 0 -1.3333 146.4128 -33.3265)" id="path264"  >
<path style="stroke: rgb(0,0,0); stroke-width: 0.3985; stroke-dasharray: none; stroke-linecap: butt; stroke-dashoffset: 0; stroke-linejoin: miter; stroke-miterlimit: 10; is-custom-font: none; font-file-url: none; fill: rgb(255,255,255); fill-rule: nonzero; opacity: 1;"  transform=" translate(-4.4301, -25.1249)" d="m 5.79076 25.1249 c 0 0.75147 -0.60921 1.36068 -1.36068 1.36068 c -0.75148 0 -1.36068 -0.60921 -1.36068 -1.36068 c 0 -0.75149 0.6092 -1.3607 1.36068 -1.3607 c 0.75147 0 1.36068 0.60921 1.36068 1.3607 z" stroke-linecap="round" />
</g>
		<g transform="matrix(0.8 0 0 0.8 336.9681 7.621)" style="" id="text276"  >
		<text xml:space="preserve" font-family="CMMI10" font-size="9.9626" font-style="normal" font-weight="normal" style="stroke: none; stroke-width: 1; stroke-dasharray: none; stroke-linecap: butt; stroke-dashoffset: 0; stroke-linejoin: miter; stroke-miterlimit: 4; is-custom-font: none; font-file-url: none; fill: rgb(0,0,0); fill-rule: nonzero; opacity: 1; white-space: pre;" ><tspan x="-2.2109" y="3.1297" >e</tspan></text>
</g>
		<g transform="matrix(1.3333 0 0 -1.3333 135.5928 -37.2159)" id="path284"  >
<path style="stroke: rgb(0,0,0); stroke-width: 0.797; stroke-dasharray: 0.79701 1.99255; stroke-linecap: butt; stroke-dashoffset: 0; stroke-linejoin: miter; stroke-miterlimit: 10; is-custom-font: none; font-file-url: none; fill: none; fill-rule: nonzero; opacity: 1;"  transform=" translate(3.6847, -28.0419)" d="m 2.51997 28.80367 c -4.20408 0.3675 -8.44349 -0.19016 -12.40936 -1.63331" stroke-linecap="round" />
</g>
		<g transform="matrix(1.3333 0 0 -1.3333 104.5363 -6.1176)" id="path288"  >
<path style="stroke: rgb(0,0,0); stroke-width: 0.797; stroke-dasharray: 0.79701 1.99255; stroke-linecap: butt; stroke-dashoffset: 0; stroke-linejoin: miter; stroke-miterlimit: 10; is-custom-font: none; font-file-url: none; fill: none; fill-rule: nonzero; opacity: 1;"  transform=" translate(26.9772, -4.718)" d="m -25.04028 14.45685 c -3.3985 -5.88638 -4.61487 -12.78398 -3.4347 -19.47774" stroke-linecap="round" />
</g>
		<g transform="matrix(1.3333 0 0 -1.3333 148.6523 36.9193)" id="path292"  >
<path style="stroke: rgb(0,0,0); stroke-width: 0.797; stroke-dasharray: 0.79701 1.99255; stroke-linecap: butt; stroke-dashoffset: 0; stroke-linejoin: miter; stroke-miterlimit: 10; is-custom-font: none; font-file-url: none; fill: none; fill-rule: nonzero; opacity: 1;"  transform=" translate(-6.1098, 27.5595)" d="m 0 -28.91397 c 4.22043 0 8.39499 0.92563 12.2197 2.70892" stroke-linecap="round" />
</g>
</g>
</g>
<g transform="matrix(1 0 0 1 943.3147 568.4383)" style="" id="273679"  >
		<text xml:space="preserve" font-family="Lato" font-size="17" font-style="normal" font-weight="normal" style="stroke: none; stroke-width: 1; stroke-dasharray: none; stroke-linecap: butt; stroke-dashoffset: 0; stroke-linejoin: miter; stroke-miterlimit: 4; is-custom-font: none; font-file-url: none; fill: rgb(0,0,0); fill-rule: nonzero; opacity: 1; white-space: pre;" ><tspan x="-44.1179" y="5.3404" >© D. Ulbrich</tspan></text>
</g>
</svg>