<svg xmlns="http://www.w3.org/2000/svg" viewBox="0 0 164.06 90.66"><svg xmlns:dc="http://purl.org/dc/elements/1.1/" xmlns:cc="http://creativecommons.org/ns#" xmlns:rdf="http://www.w3.org/1999/02/22-rdf-syntax-ns#" xmlns:svg="http://www.w3.org/2000/svg" xmlns="http://www.w3.org/2000/svg" version="1.1" id="svg2" xml:space="preserve" width="61.713333" height="43.653332" viewBox="0 0 61.713333 43.653332" x="0" y="23.503336"><metadata id="metadata8"><rdf:RDF><cc:Work rdf:about=""><dc:format>image/svg+xml</dc:format><dc:type rdf:resource="http://purl.org/dc/dcmitype/StillImage" /></cc:Work></rdf:RDF></metadata><defs id="defs6"><clipPath clipPathUnits="userSpaceOnUse" id="clipPath188"><path d="M 0,0 H 194.26797 V 161.39575 H 0 Z" id="path186" /></clipPath></defs><g id="g10" transform="matrix(1.3333333,0,0,-1.3333333,0,43.653333)"><g id="g12" transform="translate(3.716,0.382)"><g id="g14"><g id="g16" /><g id="g18"><g id="g20" /><g id="g22" /><g id="g24" transform="scale(0.2)"><g id="g26" /></g><g id="g28" /><g id="g30" /><g id="g32" /><g id="g34" /><g id="g36" transform="matrix(0.2,0,0,0.2,-0.08,-0.382)"><g id="g38" transform="translate(0.399,1.912)"><g id="g40"><g id="g42" /><g id="g44"><g id="g46"><g id="g48"><g id="g50"><path d="M 20.81454,5.55925 V 9.81174 M 45.79199,5.55925 V 9.81174 M 55.50546,5.55925 V 9.81174 M 73.54474,5.55925 V 9.81174 M 92.97165,5.55925 v 4.25249 m 29.14036,-4.25249 v 4.25249 m 29.14037,-4.25249 v 4.25249 m 26.3651,-4.25249 v 4.25249" style="fill:none;stroke:#808080;stroke-width:0.19925;stroke-linecap:butt;stroke-linejoin:miter;stroke-miterlimit:10;stroke-dasharray:none;stroke-opacity:1" id="path52" /></g></g><g id="g54"><g id="g56"><path d="m 81.13223,23.05653 h 4.25189 m -4.25189,30.74205 h 4.25189 m -4.25189,30.74204 h 4.25189 m -4.25189,30.74205 h 4.25189 m -4.25189,30.74205 h 4.25189" style="fill:none;stroke:#808080;stroke-width:0.19925;stroke-linecap:butt;stroke-linejoin:miter;stroke-miterlimit:10;stroke-dasharray:none;stroke-opacity:1" id="path58" /></g></g><g id="g60"><path d="M 0,7.6855 H 191.6777" style="fill:none;stroke:#000000;stroke-width:0.79701;stroke-linecap:butt;stroke-linejoin:miter;stroke-miterlimit:10;stroke-dasharray:none;stroke-opacity:1" id="path62" /><g id="g64" transform="translate(191.6777,7.6855)"><g id="g66"><path d="M 2.59026,0 -1.55415,2.0722 0,0 -1.55415,-2.0722" style="fill:#000000;fill-opacity:1;fill-rule:nonzero;stroke:none" id="path68" /></g></g></g><g id="g70"><path d="M 83.2582,0 V 158.80548" style="fill:none;stroke:#000000;stroke-width:0.79701;stroke-linecap:butt;stroke-linejoin:miter;stroke-miterlimit:10;stroke-dasharray:none;stroke-opacity:1" id="path72" /><g id="g74" transform="rotate(90,-37.77364,121.03184)"><g id="g76"><path d="M 2.59026,0 -1.55415,2.0722 0,0 -1.55415,-2.0722" style="fill:#000000;fill-opacity:1;fill-rule:nonzero;stroke:none" id="path78" /></g></g></g><g id="g80"><g id="g82" transform="translate(20.814,1.724)"><g id="g84" /><g id="g86" transform="translate(-20.814,-1.724)" /></g></g><g id="g88"><g id="g90" transform="translate(45.791,1.724)"><g id="g92" /><g id="g94" transform="translate(-45.791,-1.724)" /></g></g><g id="g96"><g id="g98" transform="translate(55.505,1.724)"><g id="g100" /><g id="g102" transform="translate(-55.505,-1.724)" /></g></g><g id="g104"><g id="g106" transform="translate(73.544,1.724)"><g id="g108" /><g id="g110" transform="translate(-73.544,-1.724)" /></g></g><g id="g112"><g id="g114" transform="translate(92.97,1.724)"><g id="g116" /><g id="g118" transform="translate(-92.97,-1.724)" /></g></g><g id="g120"><g id="g122" transform="translate(122.11,1.724)"><g id="g124" /><g id="g126" transform="translate(-122.11,-1.724)" /></g></g><g id="g128"><g id="g130" transform="translate(151.25,1.724)"><g id="g132" /><g id="g134" transform="translate(-151.25,-1.724)" /></g></g><g id="g136"><g id="g138" transform="translate(177.615,1.724)"><g id="g140" /><g id="g142" transform="translate(-177.615,-1.724)" /></g></g><g id="g144"><g id="g146" transform="translate(84.966,26.891)"><g id="g148" /><g id="g150" transform="translate(-84.966,-26.891)" /></g></g><g id="g152"><g id="g154" transform="translate(84.966,57.633)"><g id="g156" /><g id="g158" transform="translate(-84.966,-57.633)" /></g></g><g id="g160"><g id="g162" transform="translate(84.966,88.375)"><g id="g164" /><g id="g166" transform="translate(-84.966,-88.375)" /></g></g><g id="g168"><g id="g170" transform="translate(84.966,119.116)"><g id="g172" /><g id="g174" transform="translate(-84.966,-119.116)" /></g></g><g id="g176"><g id="g178" transform="translate(84.966,149.858)"><g id="g180" /><g id="g182" transform="translate(-84.966,-149.858)" /></g></g><g id="g184" clip-path="url(#clipPath188)"><g id="g190"><path d="m 6.93817,146.02472 h 0.35039 0.35042 0.3504 0.3504 0.35041 0.3504 0.35041 l 0.35041,-3.2e-4 0.3504,3.2e-4 h 0.3504 0.35041 0.3504 0.35042 0.3504 0.3504 l 0.35041,-3.2e-4 h 0.35038 l 0.35042,-4.4e-4 0.35041,-1.6e-4 0.3504,-6.2e-4 0.3504,-0.001 0.3504,-0.002 0.35041,-0.003 0.35042,-0.005 0.3504,-0.008 0.3504,-0.0126 0.35041,-0.0209 0.3504,-0.0344 0.35041,-0.0572 0.35041,-0.0944 0.3504,-0.15494 0.3504,-0.25377 0.35039,-0.4107 0.3504,-0.65683 0.35042,-1.02678 0.3504,-1.5506 0.35041,-2.22244 0.3504,-2.96079 0.3504,-3.58221 0.35042,-3.85506 0.3504,-3.67103 0.35041,-3.10401 0.3504,-2.37144 0.3504,-1.67539 0.35041,-1.11854 0.35042,-0.72045 0.3504,-0.45269 0.3504,-0.27959 0.3504,-0.17122 0.3504,-0.10437 0.35042,-0.0633 0.35039,-0.0383 0.3504,-0.0232 0.35041,-0.0138 0.3504,-0.009 0.3504,-0.005 0.35042,-0.003 0.3504,-0.002 0.35041,-10e-4 0.3504,-6.3e-4 0.3504,-1.5e-4 0.35042,-3e-4 h 0.3504 l 0.3504,-1.6e-4 0.35041,-3e-4 h 0.3504 0.3504 0.35041 0.3504 l 0.3504,3e-4 0.35041,-3e-4 h 0.3504 0.35042 0.3504 0.3504 0.3504 0.35041 0.3504 0.35042 0.3504 0.3504 0.35041 0.3504 0.35042 0.35038 0.35041 0.3504 0.3504 0.35041 0.35042 0.3504 0.3504 0.3504 0.3504 0.35042 0.35041 0.3504 0.3504 0.3504" style="fill:none;stroke:#000000;stroke-width:0.79701;stroke-linecap:butt;stroke-linejoin:miter;stroke-miterlimit:10;stroke-dasharray:none;stroke-opacity:1" id="path192" /></g><g id="g194"><path d="m 41.62909,115.20642 0.0981,-0.0112 0.09811,-0.0134 0.09812,-0.0152 0.09811,-0.0177 0.09811,-0.0201 0.09812,-0.0229 0.09811,-0.0268 0.09812,-0.031 0.09811,-0.0352 0.09811,-0.0403 0.09812,-0.0467 0.09811,-0.0536 0.09812,-0.0613 0.09811,-0.0701 0.09811,-0.0807 0.09812,-0.0925 0.09811,-0.10578 0.09812,-0.1208 0.0981,-0.13773 0.09809,-0.15757 0.09812,-0.1792 0.09811,-0.20414 0.09812,-0.23118 0.09811,-0.26254 0.09812,-0.29573 0.09811,-0.33312 0.09811,-0.37503 0.09812,-0.41885 0.09811,-0.46714 0.09811,-0.51825 0.09812,-0.57267 0.09811,-0.6304 0.09811,-0.6888 0.09812,-0.74716 0.09811,-0.805 0.09812,-0.86328 0.09811,-0.91603 0.09812,-0.96467 0.09811,-1.0062 0.09811,-1.04116 0.0981,-1.06641 0.09812,-1.0815 0.09811,-1.08299 0.09811,-1.08037 0.09812,-1.06357 0.09811,-1.03658 0.09812,-1.00199 0.09811,-0.95807 0.09811,-0.90825 0.09812,-0.85483 0.09811,-0.79804 0.09812,-0.73858 0.09811,-0.6799 0.0981,-0.62152 0.09811,-0.5659 0.09812,-0.51063 0.09811,-0.46067 0.09812,-0.41303 0.09811,-0.36828 0.09811,-0.32757 0.09812,-0.29082 0.09811,-0.2576 0.0981,-0.22735 0.09812,-0.19996 0.09811,-0.17649 0.09811,-0.15432 0.09812,-0.13556 0.09811,-0.11867 0.09811,-0.10358 0.09812,-0.09102 0.09812,-0.07902 0.0981,-0.06915 0.09812,-0.06009 0.09811,-0.05226 0.09812,-0.04581 0.09811,-0.03966 0.09812,-0.03474 0.09811,-0.02996 0.09811,-0.0263 0.09812,-0.02276 0.09811,-0.01998 0.0981,-0.01705 0.09813,-0.01509 0.0981,-0.01289 0.09811,-0.01123 0.09812,-0.0098 0.09811,-0.0081 0.0981,-0.0079 0.09811,-0.0063 0.09812,-0.0055 0.09811,-0.0048 0.09812,-0.0041 0.09811,-0.0038 0.09811,-0.0033 0.09812,-0.0026 0.09811,-0.0026 0.09812,-0.0018 0.09811,-0.0019 0.09811,-0.0017" style="fill:none;stroke:#000000;stroke-width:0.79701;stroke-linecap:butt;stroke-linejoin:miter;stroke-miterlimit:10;stroke-dasharray:none;stroke-opacity:1" id="path196" /></g><g id="g198"><path d="m 51.34254,84.46437 0.08411,-0.0095 0.08409,-0.01108 0.08409,-0.01245 0.08411,-0.01381 0.08409,-0.01599 0.08411,-0.01784 0.08409,-0.02014 0.08409,-0.0226 0.08411,-0.0255 0.08409,-0.0289 0.0841,-0.03227 0.0841,-0.03659 0.08408,-0.04104 0.08411,-0.04642 0.08409,-0.05196 0.08411,-0.05826 0.08409,-0.06626 0.0841,-0.07407 0.0841,-0.08286 0.08409,-0.09343 0.08411,-0.10438 0.08409,-0.11713 0.08409,-0.13112 0.08411,-0.14709 0.08409,-0.16386 0.0841,-0.18245 0.08409,-0.20414 0.0841,-0.22657 0.0841,-0.25084 0.08409,-0.279 0.08411,-0.30772 0.08409,-0.33984 0.08409,-0.37308 0.08411,-0.4101 0.08409,-0.44758 0.08411,-0.48827 0.08409,-0.52958 0.08409,-0.57113 0.0841,-0.6161 0.0841,-0.65794 0.0841,-0.70186 0.08409,-0.74257 0.08409,-0.7816 0.08413,-0.81902 0.08409,-0.8502 0.0841,-0.87903 0.0841,-0.90102 0.08409,-0.91766 0.0841,-0.92834 0.08409,-0.92745 0.08411,-0.92842 0.08409,-0.91762 0.08409,-0.90103 0.08411,-0.87901 0.08409,-0.85121 0.08411,-0.81794 0.08409,-0.78267 0.0841,-0.74255 0.08409,-0.70099 0.0841,-0.65887 0.0841,-0.6152 0.0841,-0.57218 0.0841,-0.52965 0.0841,-0.48742 0.08408,-0.44745 0.08411,-0.40995 0.08409,-0.37413 0.08411,-0.33938 0.08409,-0.30818 0.08409,-0.27839 0.08411,-0.25177 0.08409,-0.22673 0.0841,-0.20337 0.0841,-0.1832 0.08409,-0.1637 0.0841,-0.14664 0.08409,-0.13113 0.08411,-0.11774 0.08409,-0.10437 0.08409,-0.09345 0.08411,-0.08285 0.08409,-0.07407 0.08411,-0.06579 0.08409,-0.05873 0.08409,-0.05196 0.08411,-0.04642 0.08409,-0.04105 0.0841,-0.03658 0.08411,-0.03228 0.08409,-0.0289 0.08411,-0.02549 0.08409,-0.0226 0.08411,-0.02015 0.08409,-0.01782 0.08409,-0.01567 0.0841,-0.01414 0.0841,-0.01245 0.0841,-0.01107 0.08409,-0.0099" style="fill:none;stroke:#000000;stroke-width:0.79701;stroke-linecap:butt;stroke-linejoin:miter;stroke-miterlimit:10;stroke-dasharray:none;stroke-opacity:1" id="path200" /></g><g id="g202"><path d="m 59.66837,53.79858 h 0.26629 0.26631 0.26628 0.26632 0.26629 0.26631 0.26629 0.26631 0.26629 0.26632 0.26629 0.2663 0.26629 0.26632 0.26631 0.26628 0.26631 0.2663 0.26631 l 0.26629,-3.2e-4 h 0.2663 l 0.2663,-1.5e-4 0.26631,-3.1e-4 h 0.2663 l 0.26631,-1.5e-4 0.26628,-4.7e-4 0.26631,-7.6e-4 0.2663,-6.3e-4 0.26631,-0.0014 0.2663,-0.0022 0.26629,-0.0031 0.26631,-0.0044 0.2663,-0.0062 0.26631,-0.0095 0.26628,-0.01385 0.26631,-0.01998 0.2663,-0.02951 0.26631,-0.0435 0.26629,-0.06334 0.2663,-0.09237 0.26632,-0.13466 0.26629,-0.19551 0.26631,-0.28267 0.26628,-0.40503 0.26632,-0.5761 0.26629,-0.80545 0.26631,-1.10348 0.26628,-1.4713 0.26632,-1.8897 0.26629,-2.31739 0.26632,-2.68045 0.26631,-2.90123 0.26628,-2.92087 0.26631,-2.74192 0.2663,-2.40361 0.26631,-1.98345 0.26628,-1.55893 0.26631,-1.17742 0.2663,-0.86308 0.26631,-0.61947 0.26629,-0.4376 0.2663,-0.3059 0.2663,-0.2118 0.26631,-0.14618 0.26631,-0.10005 0.26628,-0.06903 0.26631,-0.04689 0.2663,-0.0318 0.26631,-0.02214 0.2663,-0.01492 0.26629,-0.01014 0.2663,-0.0071 0.26631,-0.0046 0.2663,-0.0031 0.2663,-0.0024 0.26631,-0.0014 0.26629,-0.0011 0.26632,-7.7e-4 0.26629,-4.7e-4 h 0.2663 l 0.26629,-5.9e-4 h 0.26632 0.26629 0.26631 0.26629 l 0.26631,-3.1e-4 0.26629,-1.53711 0.26631,1.53711 h 0.2663 0.2663 0.26631 0.2663 0.26631 0.26628 0.26631 0.2663 0.26631 0.26628 0.26631" style="fill:none;stroke:#000000;stroke-width:0.79701;stroke-linecap:butt;stroke-linejoin:miter;stroke-miterlimit:10;stroke-dasharray:none;stroke-opacity:1" id="path204" /></g><g id="g206"><path d="m 83.2582,23.05653 h 0.25227 0.25229 0.25227 0.25229 l 0.2523,3.1e-4 h 0.25228 0.25229 l 0.25227,1.5e-4 0.25229,2.9e-4 0.2523,1.5e-4 0.25228,4.7e-4 0.25228,4.6e-4 0.25229,9.4e-4 0.25229,0.0014 0.25229,0.002 0.25227,0.0025 0.25229,0.0038 0.25229,0.0055 0.25229,0.0078 0.25229,0.01107 0.25227,0.01615 0.25229,0.02289 0.25229,0.03337 0.25229,0.04764 0.25229,0.06825 0.25229,0.09762 0.25227,0.13926 0.2523,0.19813 0.25228,0.28098 0.25229,0.39503 0.25229,0.54997 0.25227,0.75638 0.2523,1.02036 0.25227,1.34555 0.2523,1.71525 0.25228,2.10242 0.25228,2.45065 0.2523,2.69771 0.25229,2.78316 0.25227,2.69841 0.25229,2.45191 0.25228,2.10282 0.2523,1.71733 0.25229,1.34609 0.25227,1.02217 0.25229,0.75686 0.25229,0.55045 0.25229,0.39565 0.25229,0.28175 0.25227,0.19828 0.25229,0.13973 0.25231,0.0976 0.25227,0.06825 0.25229,0.04779 0.25227,0.03305 0.25229,0.02322 0.2523,0.01568 0.25228,0.01184 0.25229,0.0077 0.25227,0.0054 0.2523,0.0038 0.25229,0.0028 0.25227,0.0017 0.2523,0.0014 0.25228,6.3e-4 0.25229,7.6e-4 0.25229,4.7e-4 0.25228,1.5e-4 h 0.25228 l 0.25229,3.1e-4 0.25229,1.5e-4 h 0.25229 l 0.25229,0.15403 0.25227,-0.15371 h 0.25229 0.25229 0.25229 0.25229 0.25227 0.25231 0.25227 0.25229 0.25229 0.25227 0.2523 0.25229 0.25228 0.25229 0.25227 0.2523 0.25229 0.25227 0.2523 0.25228 0.25229 0.25229 0.25227 0.25229 0.25231" style="fill:none;stroke:#000000;stroke-width:0.79701;stroke-linecap:butt;stroke-linejoin:miter;stroke-miterlimit:10;stroke-dasharray:none;stroke-opacity:1" id="path208" /></g><g id="g210"><path d="m 108.23564,53.79858 h 0.37843 0.37844 0.37843 0.37845 0.37841 0.37844 l 0.37845,3.1e-4 0.37843,-3.1e-4 h 0.37842 0.37843 0.37845 0.37844 0.37843 l 0.37843,3.1e-4 h 0.37844 0.37843 l 0.37845,4.4e-4 0.37843,4.6e-4 0.37842,9.3e-4 0.37845,0.0014 0.37843,0.0023 0.37843,0.0045 0.37845,0.0075 0.37842,0.01293 0.37843,0.02229 0.37845,0.03796 0.37843,0.06593 0.37842,0.11252 0.37844,0.1926 0.37844,0.32648 0.37844,0.54768 0.37843,0.89859 0.37843,1.42812 0.37844,2.15551 0.37843,3.00771 0.37845,3.7782 0.37843,4.15443 0.37842,3.96224 0.37845,3.28996 0.37843,2.43442 0.37843,1.65098 0.37845,1.05446 0.37842,0.64882 0.37843,0.38934 0.37845,0.23012 0.37844,0.1348 0.37843,0.07884 0.37843,0.04567 0.37844,0.02675 0.37843,0.01552 0.37843,0.0091 0.37844,0.0052 0.37843,0.0029 0.37843,0.0018 0.37845,9.2e-4 0.37844,6.3e-4 h 0.37841 l 0.37845,4.5e-4 h 0.37844 0.37843 l 0.37843,3.1e-4 h 0.37844 0.37843 0.37844 0.37844 0.37842 0.37844 0.37844 0.37843 0.37843 0.37843 0.37844 0.37843 0.37845 0.37844 0.37841 0.37845 0.37844 0.37843 0.37843 0.37843 0.37844 0.37845 0.37843 0.37842 0.37845 0.37843 0.37843 0.37845 0.37842 0.37843 0.37844 0.37844 0.37842 0.37844 0.37844 0.37844 0.37843 0.37843" style="fill:none;stroke:#000000;stroke-width:0.79701;stroke-linecap:butt;stroke-linejoin:miter;stroke-miterlimit:10;stroke-dasharray:none;stroke-opacity:1" id="path212" /></g><g id="g214"><path d="m 145.70183,84.55092 0.15417,0.0026 0.15416,0.0031 0.15416,0.0044 0.15416,0.0046 0.15418,0.0063 0.15417,0.0078 0.15416,0.0095 0.15416,0.01231 0.15417,0.0149 0.15418,0.01875 0.15416,0.02368 0.15416,0.02934 0.15418,0.03643 0.15415,0.04551 0.15418,0.05671 0.15416,0.07041 0.15417,0.08716 0.15416,0.10883 0.15416,0.13464 0.15418,0.16587 0.15416,0.20518 0.15417,0.25224 0.15416,0.30944 0.15417,0.37628 0.15416,0.45756 0.15418,0.55109 0.15416,0.65785 0.15416,0.77962 0.15416,0.91287 0.15419,1.05512 0.15416,1.2001 0.15416,1.34254 0.15415,1.47208 0.1542,1.58121 0.15416,1.65973 0.15416,1.70047 0.15416,1.69704 0.15417,1.66055 0.15417,1.58142 0.15416,1.47343 0.15416,1.34262 0.15418,1.20174 0.15416,1.05576 0.15417,0.91388 0.15416,0.78066 0.15418,0.65928 0.15416,0.55151 0.15417,0.45775 0.15416,0.37736 0.15418,0.31018 0.15416,0.2524 0.15416,0.20489 0.15415,0.16663 0.15419,0.13478 0.15416,0.10883 0.15416,0.0875 0.15416,0.0706 0.15418,0.0566 0.15417,0.0457 0.15416,0.0364 0.15416,0.0296 0.15416,0.0234 0.15419,0.0191 0.15416,0.0149 0.15416,0.0123 0.15416,0.01 0.15418,0.008 0.15417,0.006 0.15416,0.005 0.15416,0.004 0.15417,0.003 0.15418,0.003 0.15416,0.002 0.15416,0.002 0.15417,0.001 0.15416,10e-4 0.15416,6.3e-4 0.15417,7.6e-4 0.15418,6.3e-4 0.15416,3e-4 0.15416,4.6e-4 0.15418,1.7e-4 0.15417,3e-4 h 0.15416 l 0.15416,1.5e-4 h 0.15416 0.15419 l 0.15416,3.1e-4 0.15416,1.4e-4 h 0.15416 0.15417 0.15418 l 0.15415,3.2e-4 h 0.15417 0.15416 0.15419 0.15416 0.15415 0.15417" style="fill:none;stroke:#000000;stroke-width:0.79701;stroke-linecap:butt;stroke-linejoin:miter;stroke-miterlimit:10;stroke-dasharray:none;stroke-opacity:1" id="path216" /></g><g id="g218"><path d="m 160.96584,115.28267 h 0.25227 0.25229 0.25229 0.25229 0.25228 0.25228 0.2523 0.25228 0.25228 0.2523 0.25227 0.2523 0.25229 0.25227 0.25229 0.25228 0.2523 0.25229 0.25227 0.25229 0.25229 0.25229 0.25229 0.25227 0.25229 0.2523 0.25228 0.25229 0.25227 0.25229 0.2523 l 0.25228,3e-4 h 0.25229 l 0.25227,1.6e-4 h 0.25229 l 0.2523,3e-4 h 0.25228 l 0.25228,4.6e-4 0.2523,3.2e-4 0.25228,7.6e-4 0.25229,0.001 0.25227,10e-4 0.25229,0.002 0.25229,0.003 0.25229,0.005 0.25229,0.006 0.25227,0.009 0.25229,0.0135 0.25229,0.0186 0.25229,0.0282 0.25229,0.0398 0.25229,0.057 0.25227,0.0816 0.25231,0.11638 0.25227,0.16632 0.25229,0.23639 0.25229,0.33355 0.25227,0.46619 0.2523,0.64606 0.25228,0.88046 0.25229,1.17587 0.25228,1.52465 0.25228,1.90937 0.2523,2.28465 0.25229,2.59136 0.25227,2.76341 0.25229,2.76113 0.25228,2.59227 0.2523,2.2867 0.25229,1.91163 0.25227,1.52803 0.25229,1.17696 0.25231,0.88244 0.25227,0.64743 0.25229,0.46712 0.25227,0.33415 0.25229,0.23656 0.25231,0.16647 0.25227,0.11713 0.25229,0.0818 0.25227,0.057 0.25229,0.0398 0.25231,0.0277 0.25227,0.0195 0.25229,0.0134 0.25229,0.009 0.25228,0.007 0.25229,0.004 0.25228,0.003 0.25229,0.002 0.25228,0.001 0.25229,0.001 0.25229,7.6e-4 0.25228,3.2e-4 0.25228,4.6e-4 h 0.25229 l 0.25229,2.9e-4 0.25229,1.5e-4 h 0.25229" style="fill:none;stroke:#000000;stroke-width:0.79701;stroke-linecap:butt;stroke-linejoin:miter;stroke-miterlimit:10;stroke-dasharray:none;stroke-opacity:1" id="path220" /></g><g id="g222"><path d="M 20.81454,161.39575 V 7.6855" style="fill:none;stroke:#808080;stroke-width:0.19925;stroke-linecap:butt;stroke-linejoin:miter;stroke-miterlimit:10;stroke-dasharray:2.98883, 2.98883;stroke-dashoffset:0;stroke-opacity:1" id="path224" /></g><g id="g226"><path d="M 45.79199,161.39575 V 7.6855" style="fill:none;stroke:#808080;stroke-width:0.19925;stroke-linecap:butt;stroke-linejoin:miter;stroke-miterlimit:10;stroke-dasharray:2.98883, 2.98883;stroke-dashoffset:0;stroke-opacity:1" id="path228" /></g><g id="g230"><path d="M 55.50546,161.39575 V 7.6855" style="fill:none;stroke:#808080;stroke-width:0.19925;stroke-linecap:butt;stroke-linejoin:miter;stroke-miterlimit:10;stroke-dasharray:2.98883, 2.98883;stroke-dashoffset:0;stroke-opacity:1" id="path232" /></g><g id="g234"><path d="M 73.54474,161.39575 V 7.6855" style="fill:none;stroke:#808080;stroke-width:0.19925;stroke-linecap:butt;stroke-linejoin:miter;stroke-miterlimit:10;stroke-dasharray:2.98883, 2.98883;stroke-dashoffset:0;stroke-opacity:1" id="path236" /></g><g id="g238"><path d="M 151.25238,169.08125 V 7.6855" style="fill:none;stroke:#808080;stroke-width:0.19925;stroke-linecap:butt;stroke-linejoin:miter;stroke-miterlimit:10;stroke-dasharray:2.98883, 2.98883;stroke-dashoffset:0;stroke-opacity:1" id="path240" /></g><g id="g242"><path d="M 122.11201,169.08125 V 7.6855" style="fill:none;stroke:#808080;stroke-width:0.19925;stroke-linecap:butt;stroke-linejoin:miter;stroke-miterlimit:10;stroke-dasharray:2.98883, 2.98883;stroke-dashoffset:0;stroke-opacity:1" id="path244" /></g><g id="g246"><path d="M 92.97165,169.08125 V 7.6855" style="fill:none;stroke:#808080;stroke-width:0.19925;stroke-linecap:butt;stroke-linejoin:miter;stroke-miterlimit:10;stroke-dasharray:2.98883, 2.98883;stroke-dashoffset:0;stroke-opacity:1" id="path248" /></g><g id="g250"><path d="M 177.61748,169.08125 V 7.6855" style="fill:none;stroke:#808080;stroke-width:0.19925;stroke-linecap:butt;stroke-linejoin:miter;stroke-miterlimit:10;stroke-dasharray:2.98883, 2.98883;stroke-dashoffset:0;stroke-opacity:1" id="path252" /></g><g id="g254"><path d="m 0,146.02472 h 8.09448 8.09452 8.09448 8.09451 8.09448 8.09452 8.09448 8.09451 8.09452 8.09448 8.09451 8.09448 8.09452 8.09448 8.09451 8.09448 8.09452 8.09451 8.09448 8.09451 8.09449 8.09449 8.0945 8.09451" style="fill:none;stroke:#000000;stroke-width:0.19925;stroke-linecap:butt;stroke-linejoin:miter;stroke-miterlimit:10;stroke-dasharray:2.98883, 2.98883;stroke-dashoffset:0;stroke-opacity:1" id="path256" /></g><g id="g258"><path d="m 0,115.28267 h 8.09448 8.09452 8.09448 8.09451 8.09448 8.09452 8.09448 8.09451 8.09452 8.09448 8.09451 8.09448 8.09452 8.09448 8.09451 8.09448 8.09452 8.09451 8.09448 8.09451 8.09449 8.09449 8.0945 8.09451" style="fill:none;stroke:#000000;stroke-width:0.19925;stroke-linecap:butt;stroke-linejoin:miter;stroke-miterlimit:10;stroke-dasharray:2.98883, 2.98883;stroke-dashoffset:0;stroke-opacity:1" id="path260" /></g><g id="g262"><path d="m 0,84.54062 h 8.09448 8.09452 8.09448 8.09451 8.09448 8.09452 8.09448 8.09451 8.09452 8.09448 8.09451 8.09448 8.09452 8.09448 8.09451 8.09448 8.09452 8.09451 8.09448 8.09451 8.09449 8.09449 8.0945 8.09451" style="fill:none;stroke:#000000;stroke-width:0.19925;stroke-linecap:butt;stroke-linejoin:miter;stroke-miterlimit:10;stroke-dasharray:2.98883, 2.98883;stroke-dashoffset:0;stroke-opacity:1" id="path264" /></g><g id="g266"><path d="m 0,53.79858 h 8.09448 8.09452 8.09448 8.09451 8.09448 8.09452 8.09448 8.09451 8.09452 8.09448 8.09451 8.09448 8.09452 8.09448 8.09451 8.09448 8.09452 8.09451 8.09448 8.09451 8.09449 8.09449 8.0945 8.09451" style="fill:none;stroke:#000000;stroke-width:0.19925;stroke-linecap:butt;stroke-linejoin:miter;stroke-miterlimit:10;stroke-dasharray:2.98883, 2.98883;stroke-dashoffset:0;stroke-opacity:1" id="path268" /></g><g id="g270"><path d="m 0,23.05653 h 8.09448 8.09452 8.09448 8.09451 8.09448 8.09452 8.09448 8.09451 8.09452 8.09448 8.09451 8.09448 8.09452 8.09448 8.09451 8.09448 8.09452 8.09451 8.09448 8.09451 8.09449 8.09449 8.0945 8.09451" style="fill:none;stroke:#000000;stroke-width:0.19925;stroke-linecap:butt;stroke-linejoin:miter;stroke-miterlimit:10;stroke-dasharray:2.98883, 2.98883;stroke-dashoffset:0;stroke-opacity:1" id="path272" /></g></g></g><g id="g274"><path d="m 44.38306,98.5027 2.81788,2.8179 m -2.81788,0 2.81788,-2.8179" style="fill:none;stroke:#000000;stroke-width:0.79701;stroke-linecap:butt;stroke-linejoin:miter;stroke-miterlimit:10;stroke-dasharray:none;stroke-opacity:1" id="path276" /></g><g id="g278"><path d="m 19.4056,129.24475 2.8179,2.8179 m -2.8179,0 2.8179,-2.8179" style="fill:none;stroke:#000000;stroke-width:0.79701;stroke-linecap:butt;stroke-linejoin:miter;stroke-miterlimit:10;stroke-dasharray:none;stroke-opacity:1" id="path280" /></g></g></g><g id="g282" transform="translate(-0.399,-1.912)" /></g><g id="g284" transform="translate(0.08,0.382)" /></g><g id="g286" /><g id="g288" /></g></g></g></g></svg><svg xmlns:dc="http://purl.org/dc/elements/1.1/" xmlns:cc="http://creativecommons.org/ns#" xmlns:rdf="http://www.w3.org/1999/02/22-rdf-syntax-ns#" xmlns:svg="http://www.w3.org/2000/svg" xmlns="http://www.w3.org/2000/svg" version="1.1" id="svg2" xml:space="preserve" width="102.34667" height="90.660004" viewBox="0 0 102.34667 90.660004" x="61.713333" y="0"><metadata id="metadata8"><rdf:RDF><cc:Work rdf:about=""><dc:format>image/svg+xml</dc:format><dc:type rdf:resource="http://purl.org/dc/dcmitype/StillImage" /></cc:Work></rdf:RDF></metadata><defs id="defs6" /><g id="g10" transform="matrix(1.3333333,0,0,-1.3333333,0,90.66)"><g id="g12" transform="translate(42.738,33.931)"><g id="g14"><g id="g16" /><g id="g18"><path d="m 21.2601,0 c 0,11.74178 -9.51832,21.2601 -21.2601,21.2601 -11.74178,0 -21.2601,-9.51832 -21.2601,-21.2601 0,-11.74178 9.51832,-21.2601 21.2601,-21.2601 11.74178,0 21.2601,9.51832 21.2601,21.2601 z" style="fill:none;stroke:#000000;stroke-width:0.3985;stroke-linecap:butt;stroke-linejoin:miter;stroke-miterlimit:10;stroke-dasharray:none;stroke-opacity:1" id="path20" /><g id="g22"><g id="g24" transform="matrix(0.6,0,0,0.6,26.206,-1.927)"><g id="g26"><g id="g28" transform="translate(-68.944,-32.004)"><text transform="matrix(1,0,0,-1,68.944,32.004)" style="font-variant:normal;font-weight:normal;font-size:9.9626px;font-family:CMR10;-inkscape-font-specification:CMR10;writing-mode:lr-tb;fill:#000000;fill-opacity:1;fill-rule:nonzero;stroke:none" id="text32"><tspan x="0" y="0" id="tspan30">0</tspan></text><g id="g34" transform="translate(68.944,32.004)" /></g></g><g id="g36" transform="translate(-26.206,1.927)" /></g></g><g id="g38"><g id="g40" transform="matrix(0.6,0,0,0.6,15.543,19.149)"><g id="g42"><g id="g44" transform="translate(-58.281,-53.08)"><text transform="matrix(1,0,0,-1,58.281,53.08)" style="font-variant:normal;font-weight:normal;font-size:9.9626px;font-family:CMR10;-inkscape-font-specification:CMR10;writing-mode:lr-tb;fill:#000000;fill-opacity:1;fill-rule:nonzero;stroke:none" id="text48"><tspan x="0" y="0" id="tspan46">1</tspan></text><g id="g50" transform="translate(58.281,53.08)" /></g></g><g id="g52" transform="translate(-15.543,-19.149)" /></g></g><g id="g54"><g id="g56" transform="matrix(0.6,0,0,0.6,10.561,-22.636)"><g id="g58"><g id="g60" transform="translate(-53.299,-11.295)"><text transform="matrix(1,0,0,-1,53.299,11.295)" style="font-variant:normal;font-weight:normal;font-size:9.9626px;font-family:CMMI10;-inkscape-font-specification:CMMI10;writing-mode:lr-tb;fill:#000000;fill-opacity:1;fill-rule:nonzero;stroke:none" id="text64"><tspan x="0" y="0" id="tspan62">e</tspan></text><text transform="matrix(1,0,0,-1,60.152,11.295)" style="font-variant:normal;font-weight:normal;font-size:9.9626px;font-family:CMR10;-inkscape-font-specification:CMR10;writing-mode:lr-tb;fill:#000000;fill-opacity:1;fill-rule:nonzero;stroke:none" id="text68"><tspan x="0" y="0" id="tspan66">+</tspan></text><text transform="matrix(1,0,0,-1,70.114,11.295)" style="font-variant:normal;font-weight:normal;font-size:9.9626px;font-family:CMMI10;-inkscape-font-specification:CMMI10;writing-mode:lr-tb;fill:#000000;fill-opacity:1;fill-rule:nonzero;stroke:none" id="text72"><tspan x="0" y="0" id="tspan70">r</tspan></text><g id="g74" transform="translate(53.299,11.295)" /></g></g><g id="g76" transform="translate(-10.561,22.636)" /></g></g><g id="g78"><path d="m 0,0 15.03307,-15.03307 c 8.30244,8.30247 8.30244,21.76389 0,30.06635" style="fill:#b3b3b3;fill-opacity:0.5;fill-rule:nonzero;stroke:none" id="path80" /></g><g id="g82"><path d="m 0,0 -16.2859,13.66582 c -7.54723,-8.99442 -6.37421,-22.40459 2.62019,-29.95183" style="fill:#b3b3b3;fill-opacity:0.5;fill-rule:nonzero;stroke:none" id="path84" /></g><g id="g86"><g id="g88" transform="matrix(0.6,0,0,0.6,7.862,-1.594)"><g id="g90"><g id="g92" transform="translate(-50.6,-32.337)"><text transform="matrix(1,0,0,-1,50.6,32.337)" style="font-variant:normal;font-weight:normal;font-size:9.9626px;font-family:CMMI10;-inkscape-font-specification:CMMI10;writing-mode:lr-tb;fill:#000000;fill-opacity:1;fill-rule:nonzero;stroke:none" id="text96"><tspan x="0" y="0" id="tspan94">C</tspan></text><text transform="matrix(1,0,0,-1,57.72,30.842)" style="font-variant:normal;font-weight:normal;font-size:6.9738px;font-family:CMR7;-inkscape-font-specification:CMR7;writing-mode:lr-tb;fill:#000000;fill-opacity:1;fill-rule:nonzero;stroke:none" id="text100"><tspan x="0" y="0" id="tspan98">0</tspan></text><g id="g102" transform="translate(50.6,32.337)" /></g></g><g id="g104" transform="translate(-7.862,1.594)" /></g></g><g id="g106"><g id="g108" transform="matrix(0.6,0,0,0.6,-15.097,-1.594)"><g id="g110"><g id="g112" transform="translate(-27.641,-32.337)"><text transform="matrix(1,0,0,-1,27.641,32.337)" style="font-variant:normal;font-weight:normal;font-size:9.9626px;font-family:CMMI10;-inkscape-font-specification:CMMI10;writing-mode:lr-tb;fill:#000000;fill-opacity:1;fill-rule:nonzero;stroke:none" id="text116"><tspan x="0" y="0" id="tspan114">C</tspan></text><text transform="matrix(1,0,0,-1,34.761,30.842)" style="font-variant:normal;font-weight:normal;font-size:6.9738px;font-family:CMMI7;-inkscape-font-specification:CMMI7;writing-mode:lr-tb;fill:#000000;fill-opacity:1;fill-rule:nonzero;stroke:none" id="text120"><tspan x="0" y="0" id="tspan118">π</tspan></text><g id="g122" transform="translate(27.641,32.337)" /></g></g><g id="g124" transform="translate(15.097,1.594)" /></g></g><g id="g126"><g id="g128" transform="matrix(0.6,0,0,0.6,10.553,22.978)"><g id="g130"><g id="g132" transform="translate(-53.291,-56.909)"><text transform="matrix(1,0,0,-1,53.291,56.909)" style="font-variant:normal;font-weight:normal;font-size:9.9626px;font-family:CMR10;-inkscape-font-specification:CMR10;writing-mode:lr-tb;fill:#000000;fill-opacity:1;fill-rule:nonzero;stroke:none" id="text136"><tspan x="0" y="0" id="tspan134">2</tspan></text><g id="g138" transform="translate(53.291,56.909)" /></g></g><g id="g140" transform="translate(-10.553,-22.978)" /></g></g><g id="g142"><g id="g144" transform="matrix(0.6,0,0,0.6,-14.82,-28.606)"><g id="g146"><g id="g148" transform="translate(-27.918,-5.325)"><text transform="matrix(1,0,0,-1,27.918,5.325)" style="font-variant:normal;font-weight:normal;font-size:9.9626px;font-family:CMMI10;-inkscape-font-specification:CMMI10;writing-mode:lr-tb;fill:#000000;fill-opacity:1;fill-rule:nonzero;stroke:none" id="text152"><tspan x="0" y="0" id="tspan150">r</tspan></text><text transform="matrix(1,0,0,-1,34.904,5.325)" style="font-variant:normal;font-weight:normal;font-size:9.9626px;font-family:CMR10;-inkscape-font-specification:CMR10;writing-mode:lr-tb;fill:#000000;fill-opacity:1;fill-rule:nonzero;stroke:none" id="text156"><tspan x="0 9.9606075" y="0" id="tspan154">+1</tspan></text><g id="g158" transform="translate(27.918,5.325)" /></g></g><g id="g160" transform="translate(14.82,28.606)" /></g></g><g id="g162"><path d="m -6.1375,-19.97806 c 0,0.62624 -0.50766,1.1339 -1.1339,1.1339 -0.62621,0 -1.13387,-0.50766 -1.13387,-1.1339 0,-0.62622 0.50766,-1.13388 1.13387,-1.13388 0.62624,0 1.1339,0.50766 1.1339,1.13388 z" style="fill:#ffffff;fill-opacity:1;fill-rule:nonzero;stroke:#000000;stroke-width:0.3985;stroke-linecap:butt;stroke-linejoin:miter;stroke-miterlimit:10;stroke-dasharray:none;stroke-opacity:1" id="path164" /></g><g id="g166"><g id="g168" transform="matrix(0.6,0,0,0.6,4.742,25.385)"><g id="g170"><g id="g172" transform="translate(-47.48,-59.316)"><text transform="matrix(1,0,0,-1,47.48,59.316)" style="font-variant:normal;font-weight:normal;font-size:9.9626px;font-family:CMR10;-inkscape-font-specification:CMR10;writing-mode:lr-tb;fill:#000000;fill-opacity:1;fill-rule:nonzero;stroke:none" id="text176"><tspan x="0" y="0" id="tspan174">3</tspan></text><g id="g178" transform="translate(47.48,59.316)" /></g></g><g id="g180" transform="translate(-4.742,-25.385)" /></g></g><g id="g182"><g id="g184" transform="matrix(0.6,0,0,0.6,-33.647,13.81)"><g id="g186"><g id="g188" transform="translate(-9.091,-47.741)"><text transform="matrix(1,0,0,-1,9.091,47.741)" style="font-variant:normal;font-weight:normal;font-size:9.9626px;font-family:CMMI10;-inkscape-font-specification:CMMI10;writing-mode:lr-tb;fill:#000000;fill-opacity:1;fill-rule:nonzero;stroke:none" id="text192"><tspan x="0" y="0" id="tspan190">e</tspan></text><text transform="matrix(1,0,0,-1,15.944,47.741)" style="font-variant:normal;font-weight:normal;font-size:9.9626px;font-family:CMR10;-inkscape-font-specification:CMR10;writing-mode:lr-tb;fill:#000000;fill-opacity:1;fill-rule:nonzero;stroke:none" id="text196"><tspan x="0 9.9606075" y="0" id="tspan194">+1</tspan></text><g id="g198" transform="translate(9.091,47.741)" /></g></g><g id="g200" transform="translate(33.647,-13.81)" /></g></g><g id="g202"><g id="g204" transform="matrix(0.6,0,0,0.6,-37.911,-9.918)"><g id="g206"><g id="g208" transform="translate(-4.827,-24.013)"><text transform="matrix(1,0,0,-1,4.827,24.013)" style="font-variant:normal;font-weight:normal;font-size:9.9626px;font-family:CMMI10;-inkscape-font-specification:CMMI10;writing-mode:lr-tb;fill:#000000;fill-opacity:1;fill-rule:nonzero;stroke:none" id="text212"><tspan x="0" y="0" id="tspan210">r</tspan></text><text transform="matrix(1,0,0,-1,11.812,24.013)" style="font-variant:normal;font-weight:normal;font-size:9.9626px;font-family:CMSY10;-inkscape-font-specification:CMSY10;writing-mode:lr-tb;fill:#000000;fill-opacity:1;fill-rule:nonzero;stroke:none" id="text216"><tspan x="0" y="0" id="tspan214">−</tspan></text><text transform="matrix(1,0,0,-1,21.775,24.013)" style="font-variant:normal;font-weight:normal;font-size:9.9626px;font-family:CMR10;-inkscape-font-specification:CMR10;writing-mode:lr-tb;fill:#000000;fill-opacity:1;fill-rule:nonzero;stroke:none" id="text220"><tspan x="0" y="0" id="tspan218">1</tspan></text><g id="g222" transform="translate(4.827,24.013)" /></g></g><g id="g224" transform="translate(37.911,9.918)" /></g></g><g id="g226"><g id="g228" transform="matrix(0.6,0,0,0.6,-20.463,-19.744)"><g id="g230"><g id="g232" transform="translate(-22.275,-14.187)"><text transform="matrix(1,0,0,-1,22.275,14.187)" style="font-variant:normal;font-weight:normal;font-size:9.9626px;font-family:CMMI10;-inkscape-font-specification:CMMI10;writing-mode:lr-tb;fill:#000000;fill-opacity:1;fill-rule:nonzero;stroke:none" id="text236"><tspan x="0" y="0" id="tspan234">r</tspan></text><g id="g238" transform="translate(22.275,14.187)" /></g></g><g id="g240" transform="translate(20.463,19.744)" /></g></g><g id="g242"><path d="m -12.53192,-16.2859 c 0,0.62623 -0.50766,1.13388 -1.1339,1.13388 -0.62622,0 -1.13388,-0.50765 -1.13388,-1.13388 0,-0.62624 0.50766,-1.13388 1.13388,-1.13388 0.62624,0 1.1339,0.50764 1.1339,1.13388 z" style="fill:#999999;fill-opacity:1;fill-rule:nonzero;stroke:#000000;stroke-width:0.3985;stroke-linecap:butt;stroke-linejoin:miter;stroke-miterlimit:10;stroke-dasharray:none;stroke-opacity:1" id="path244" /></g><g id="g246"><path d="m -18.84416,-7.2714 c 0,0.62624 -0.50766,1.1339 -1.1339,1.1339 -0.62622,0 -1.13388,-0.50766 -1.13388,-1.1339 0,-0.62621 0.50766,-1.13387 1.13388,-1.13387 0.62624,0 1.1339,0.50766 1.1339,1.13387 z" style="fill:#999999;fill-opacity:1;fill-rule:nonzero;stroke:#000000;stroke-width:0.3985;stroke-linecap:butt;stroke-linejoin:miter;stroke-miterlimit:10;stroke-dasharray:none;stroke-opacity:1" id="path248" /></g><g id="g250"><path d="m -15.15202,13.66582 c 0,0.62622 -0.50765,1.13388 -1.13388,1.13388 -0.62624,0 -1.13388,-0.50766 -1.13388,-1.13388 0,-0.62624 0.50764,-1.1339 1.13388,-1.1339 0.62623,0 1.13388,0.50766 1.13388,1.1339 z" style="fill:#999999;fill-opacity:1;fill-rule:nonzero;stroke:#000000;stroke-width:0.3985;stroke-linecap:butt;stroke-linejoin:miter;stroke-miterlimit:10;stroke-dasharray:none;stroke-opacity:1" id="path252" /></g><g id="g254"><path d="m 22.39398,0 c 0,0.62622 -0.50766,1.13388 -1.13388,1.13388 -0.62623,0 -1.1339,-0.50766 -1.1339,-1.13388 0,-0.62622 0.50767,-1.13388 1.1339,-1.13388 0.62622,0 1.13388,0.50766 1.13388,1.13388 z" style="fill:#999999;fill-opacity:1;fill-rule:nonzero;stroke:#000000;stroke-width:0.3985;stroke-linecap:butt;stroke-linejoin:miter;stroke-miterlimit:10;stroke-dasharray:none;stroke-opacity:1" id="path256" /></g><g id="g258"><path d="m 16.16695,15.03307 c 0,0.62622 -0.50766,1.13388 -1.13388,1.13388 -0.62624,0 -1.1339,-0.50766 -1.1339,-1.13388 0,-0.62624 0.50766,-1.1339 1.1339,-1.1339 0.62622,0 1.13388,0.50766 1.13388,1.1339 z" style="fill:#999999;fill-opacity:1;fill-rule:nonzero;stroke:#000000;stroke-width:0.3985;stroke-linecap:butt;stroke-linejoin:miter;stroke-miterlimit:10;stroke-dasharray:none;stroke-opacity:1" id="path260" /></g><g id="g262"><path d="m 16.16695,-15.03307 c 0,0.62624 -0.50766,1.1339 -1.13388,1.1339 -0.62624,0 -1.1339,-0.50766 -1.1339,-1.1339 0,-0.62622 0.50766,-1.13388 1.1339,-1.13388 0.62622,0 1.13388,0.50766 1.13388,1.13388 z" style="fill:#999999;fill-opacity:1;fill-rule:nonzero;stroke:#000000;stroke-width:0.3985;stroke-linecap:butt;stroke-linejoin:miter;stroke-miterlimit:10;stroke-dasharray:none;stroke-opacity:1" id="path264" /></g><g id="g266"><path d="m 11.76392,18.41182 c 0,0.62624 -0.50765,1.1339 -1.13388,1.1339 -0.62624,0 -1.13389,-0.50766 -1.13389,-1.1339 0,-0.62622 0.50765,-1.13388 1.13389,-1.13388 0.62623,0 1.13388,0.50766 1.13388,1.13388 z" style="fill:#ffffff;fill-opacity:1;fill-rule:nonzero;stroke:#000000;stroke-width:0.3985;stroke-linecap:butt;stroke-linejoin:miter;stroke-miterlimit:10;stroke-dasharray:none;stroke-opacity:1" id="path268" /></g><g id="g270"><path d="m -9.49615,18.41182 c 0,0.62624 -0.50765,1.1339 -1.13389,1.1339 -0.62623,0 -1.13388,-0.50766 -1.13388,-1.1339 0,-0.62622 0.50765,-1.13388 1.13388,-1.13388 0.62624,0 1.13389,0.50766 1.13389,1.13388 z" style="fill:#ffffff;fill-opacity:1;fill-rule:nonzero;stroke:#000000;stroke-width:0.3985;stroke-linecap:butt;stroke-linejoin:miter;stroke-miterlimit:10;stroke-dasharray:none;stroke-opacity:1" id="path272" /></g><g id="g274"><path d="m 4.82559,20.93721 c 0,0.62622 -0.50766,1.13388 -1.13389,1.13388 -0.62622,0 -1.13388,-0.50766 -1.13388,-1.13388 0,-0.62624 0.50766,-1.1339 1.13388,-1.1339 0.62623,0 1.13389,0.50766 1.13389,1.1339 z" style="fill:#ffffff;fill-opacity:1;fill-rule:nonzero;stroke:#000000;stroke-width:0.3985;stroke-linecap:butt;stroke-linejoin:miter;stroke-miterlimit:10;stroke-dasharray:none;stroke-opacity:1" id="path276" /></g><g id="g278"><g id="g280" transform="matrix(0.6,0,0,0.6,-13.439,22.978)"><g id="g282"><g id="g284" transform="translate(-29.299,-56.909)"><text transform="matrix(1,0,0,-1,29.299,56.909)" style="font-variant:normal;font-weight:normal;font-size:9.9626px;font-family:CMMI10;-inkscape-font-specification:CMMI10;writing-mode:lr-tb;fill:#000000;fill-opacity:1;fill-rule:nonzero;stroke:none" id="text288"><tspan x="0" y="0" id="tspan286">e</tspan></text><g id="g290" transform="translate(29.299,56.909)" /></g></g><g id="g292" transform="translate(13.439,-22.978)" /></g></g><g id="g294"><path d="M 2.09996,24.00282 C -1.40341,24.30907 -4.93622,23.84436 -8.24107,22.64175" style="fill:none;stroke:#000000;stroke-width:0.79701;stroke-linecap:butt;stroke-linejoin:miter;stroke-miterlimit:10;stroke-dasharray:0.79701, 1.99255;stroke-dashoffset:0;stroke-opacity:1" id="path296" /></g><g id="g298"><path d="M -20.8667,12.04726 C -23.69875,7.14198 -24.71239,1.39404 -23.72891,-4.18402" style="fill:none;stroke:#000000;stroke-width:0.79701;stroke-linecap:butt;stroke-linejoin:miter;stroke-miterlimit:10;stroke-dasharray:0.79701, 1.99255;stroke-dashoffset:0;stroke-opacity:1" id="path300" /></g><g id="g302"><path d="m 0,-24.09473 c 3.51698,0 6.99576,0.77137 10.18297,2.25742" style="fill:none;stroke:#000000;stroke-width:0.79701;stroke-linecap:butt;stroke-linejoin:miter;stroke-miterlimit:10;stroke-dasharray:0.79701, 1.99255;stroke-dashoffset:0;stroke-opacity:1" id="path304" /></g></g></g></g></g></svg></svg>