<?xml version="1.0" encoding="UTF-8" standalone="no"?>
<svg
   xmlns:dc="http://purl.org/dc/elements/1.1/"
   xmlns:cc="http://creativecommons.org/ns#"
   xmlns:rdf="http://www.w3.org/1999/02/22-rdf-syntax-ns#"
   xmlns:svg="http://www.w3.org/2000/svg"
   xmlns="http://www.w3.org/2000/svg"
   viewBox="0 0 270.84134 226.96001"
   height="226.96001"
   width="270.84134"
   xml:space="preserve"
   id="svg2"
   version="1.1"><metadata
     id="metadata8"><rdf:RDF><cc:Work
         rdf:about=""><dc:format>image/svg+xml</dc:format><dc:type
           rdf:resource="http://purl.org/dc/dcmitype/StillImage" /></cc:Work></rdf:RDF></metadata><defs
     id="defs6"><clipPath
       id="clipPath170"
       clipPathUnits="userSpaceOnUse"><path
         id="path168"
         d="M 0,0 H 194.27412 V 161.39499 H 0 Z" /></clipPath><pattern
       id="pattern210"
       height="4.98138"
       width="4.98138"
       y="0"
       x="0"
       patternUnits="userSpaceOnUse"
       patternTransform="translate(-3.233,-5.594)"><g
         id="g208"><path
           id="path206"
           style="fill:none;stroke:#000000;stroke-opacity:1;stroke-width:0.3985;stroke-linecap:butt;stroke-linejoin:miter;stroke-miterlimit:10;stroke-dasharray:none"
           d="M 0,0 3.08846,3.08846" /></g></pattern><pattern
       id="pattern220"
       height="4.98138"
       width="4.98138"
       y="0"
       x="0"
       patternUnits="userSpaceOnUse"
       patternTransform="translate(-3.233,-5.594)"><g
         id="g218"><path
           id="path216"
           style="fill:none;stroke:#000000;stroke-opacity:1;stroke-width:0.3985;stroke-linecap:butt;stroke-linejoin:miter;stroke-miterlimit:10;stroke-dasharray:none"
           d="M 0,0 3.08846,3.08846" /></g></pattern><pattern
       id="pattern230"
       height="4.98138"
       width="4.98138"
       y="0"
       x="0"
       patternUnits="userSpaceOnUse"
       patternTransform="translate(-3.233,-5.594)"><g
         id="g228"><path
           id="path226"
           style="fill:none;stroke:#000000;stroke-opacity:1;stroke-width:0.3985;stroke-linecap:butt;stroke-linejoin:miter;stroke-miterlimit:10;stroke-dasharray:none"
           d="M 0,0 3.08846,3.08846" /></g></pattern></defs><g
     transform="matrix(1.3333333,0,0,-1.3333333,0,226.96)"
     id="g10"><g
       transform="translate(3.233,5.594)"
       id="g12"><g
         id="g14"><g
           id="g16" /><g
           id="g18"><g
             id="g20" /><g
             id="g22" /><g
             id="g24"><g
               id="g26" /></g><g
             id="g28" /><g
             id="g30" /><g
             id="g32" /><g
             id="g34" /><g
             transform="translate(-0.398,-2.759)"
             id="g36"><g
               transform="translate(0.398,2.759)"
               id="g38"><g
                 id="g40"><g
                   id="g42" /><g
                   id="g44"><g
                     id="g46"><g
                       id="g48"><g
                         id="g50"><path
                           id="path52"
                           style="fill:none;stroke:#808080;stroke-width:0.19925;stroke-linecap:butt;stroke-linejoin:miter;stroke-miterlimit:10;stroke-dasharray:none;stroke-opacity:1"
                           d="M 14.42628,4.0813 V 8.33366 M 52.89642,4.0813 V 8.33366 M 72.13148,4.0813 V 8.33366 M 149.07173,4.0813 v 4.25236 m 28.8526,-4.25236 v 4.25236" /></g></g><g
                       id="g54"><g
                         id="g56" /></g><g
                       id="g58"><path
                         id="path60"
                         style="fill:none;stroke:#000000;stroke-width:0.79701;stroke-linecap:butt;stroke-linejoin:miter;stroke-miterlimit:10;stroke-dasharray:none;stroke-opacity:1"
                         d="M 0.797,6.20749 H 194.27412" /><g
                         transform="rotate(180,0.19925,3.103745)"
                         id="g62"><g
                           id="g64"><path
                             id="path66"
                             style="fill:none;stroke:#000000;stroke-width:0.79701;stroke-linecap:round;stroke-linejoin:round;stroke-miterlimit:10;stroke-dasharray:none;stroke-opacity:1"
                             d="M -2.55046,3.11095 C -2.0845,1.24435 -1.04614,0.36295 0,0 -1.04614,-0.36295 -2.0845,-1.24435 -2.55046,-3.11095" /></g></g></g><g
                       id="g68"><path
                         id="path70"
                         style="fill:none;stroke:#000000;stroke-width:0.79701;stroke-linecap:butt;stroke-linejoin:miter;stroke-miterlimit:10;stroke-dasharray:none;stroke-opacity:1"
                         d="M 192.35063,0 V 160.59798" /><g
                         transform="rotate(90,15.67707,176.67356)"
                         id="g72"><g
                           id="g74"><path
                             id="path76"
                             style="fill:none;stroke:#000000;stroke-width:0.79701;stroke-linecap:round;stroke-linejoin:round;stroke-miterlimit:10;stroke-dasharray:none;stroke-opacity:1"
                             d="M -2.55046,3.11095 C -2.0845,1.24435 -1.04614,0.36295 0,0 -1.04614,-0.36295 -2.0845,-1.24435 -2.55046,-3.11095" /></g></g></g><g
                       id="g78"><g
                         transform="translate(14.426,0.561)"
                         id="g80"><g
                           id="g82" /><g
                           transform="translate(-14.426,-0.561)"
                           id="g84" /></g></g><g
                       id="g86"><g
                         transform="translate(52.896,0.561)"
                         id="g88"><g
                           id="g90" /><g
                           transform="translate(-52.896,-0.561)"
                           id="g92" /></g></g><g
                       id="g94"><g
                         transform="translate(72.131,0.561)"
                         id="g96"><g
                           id="g98" /><g
                           transform="translate(-72.131,-0.561)"
                           id="g100" /></g></g><g
                       id="g102"><g
                         transform="translate(149.07,0.561)"
                         id="g104"><g
                           id="g106" /><g
                           transform="translate(-149.07,-0.561)"
                           id="g108" /></g></g><g
                       id="g110"><g
                         transform="translate(177.922,0.561)"
                         id="g112"><g
                           id="g114" /><g
                           transform="translate(-177.922,-0.561)"
                           id="g116" /></g></g><g
                       id="g118"><g
                         transform="translate(193.742,22.142)"
                         id="g120"><g
                           id="g122" /><g
                           transform="translate(-193.742,-22.142)"
                           id="g124" /></g></g><g
                       id="g126"><g
                         transform="translate(193.742,46.971)"
                         id="g128"><g
                           id="g130" /><g
                           transform="translate(-193.742,-46.971)"
                           id="g132" /></g></g><g
                       id="g134"><g
                         transform="translate(193.742,71.801)"
                         id="g136"><g
                           id="g138" /><g
                           transform="translate(-193.742,-71.801)"
                           id="g140" /></g></g><g
                       id="g142"><g
                         transform="translate(193.742,96.631)"
                         id="g144"><g
                           id="g146" /><g
                           transform="translate(-193.742,-96.631)"
                           id="g148" /></g></g><g
                       id="g150"><g
                         transform="translate(193.742,121.46)"
                         id="g152"><g
                           id="g154" /><g
                           transform="translate(-193.742,-121.46)"
                           id="g156" /></g></g><g
                       id="g158"><g
                         transform="translate(193.742,146.29)"
                         id="g160"><g
                           id="g162" /><g
                           transform="translate(-193.742,-146.29)"
                           id="g164" /></g></g><g
                       clip-path="url(#clipPath170)"
                       id="g166"><g
                         id="g172"><g
                           transform="translate(90.596,13.904)"
                           id="g174"><g
                             id="g176" /><g
                             transform="translate(-90.596,-13.904)"
                             id="g178" /></g></g><g
                         id="g180"><g
                           transform="translate(32.892,13.904)"
                           id="g182"><g
                             id="g184" /><g
                             transform="translate(-32.892,-13.904)"
                             id="g186" /></g></g><g
                         id="g188"><g
                           transform="translate(70.207,13.904)"
                           id="g190"><g
                             id="g192" /><g
                             transform="translate(-70.207,-13.904)"
                             id="g194" /></g></g><g
                         id="g196"><g
                           transform="translate(167.439,13.904)"
                           id="g198"><g
                             id="g200" /><g
                             transform="translate(-167.439,-13.904)"
                             id="g202" /></g></g><g
                         id="g204"><path
                           id="path212"
                           style="fill:url(#pattern210);fill-opacity:1;fill-rule:nonzero;stroke:none"
                           d="m 31.73785,117.94249 h 19.23507 l 2.88525,-26.0715 H 33.66135 l -1.9235,26.0715" /></g><g
                         id="g214"><path
                           id="path222"
                           style="fill:url(#pattern220);fill-opacity:1;fill-rule:nonzero;stroke:none"
                           d="m 89.44304,68.28249 h 58.66695 L 150.0335,42.211 H 91.36655 l -1.92351,26.07149" /></g><g
                         id="g224"><path
                           id="path232"
                           style="fill:url(#pattern230);fill-opacity:1;fill-rule:nonzero;stroke:none"
                           d="m 167.34505,43.45248 h 8.65577 L 178.88608,17.381 h -9.61753 l -3.84701,26.07148" /></g><g
                         id="g234"><g
                           transform="translate(15.196,27.933)"
                           id="g236"><g
                             id="g238" /><g
                             transform="translate(-15.196,-27.933)"
                             id="g240" /></g></g><g
                         id="g242"><g
                           transform="translate(47.702,27.933)"
                           id="g244"><g
                             id="g246" /><g
                             transform="translate(-47.702,-27.933)"
                             id="g248" /></g></g><g
                         id="g250"><g
                           transform="translate(70.207,27.933)"
                           id="g252"><g
                             id="g254" /><g
                             transform="translate(-70.207,-27.933)"
                             id="g256" /></g></g><g
                         id="g258"><g
                           transform="translate(149.647,27.933)"
                           id="g260"><g
                             id="g262" /><g
                             transform="translate(-149.647,-27.933)"
                             id="g264" /></g></g><g
                         id="g266"><path
                           id="path268"
                           style="fill:none;stroke:#000000;stroke-width:0.79701;stroke-linecap:butt;stroke-linejoin:miter;stroke-miterlimit:10;stroke-dasharray:none;stroke-opacity:1"
                           d="M 0,142.77249 H 0.2914 0.58282 0.87424 1.16566 1.45709 1.7485 2.03993 2.33134 2.62276 2.91418 3.2056 3.49702 3.78845 4.07986 4.37128 4.6627 4.95413 5.24556 5.53697 5.8284 6.11983 6.41124 6.70265 6.99408 7.28549 7.57692 7.86833 8.15976 l 0.29143,-2.7e-4 0.29139,-1.1e-4 h 0.29143 l 0.29143,-6.4e-4 0.29141,-1.1e-4 0.29145,-10e-4 0.2914,-0.002 0.29143,-0.003 0.29142,-0.006 0.29141,-0.0104 0.29143,-0.0192 0.29142,-0.0355 0.29142,-0.0646 0.29142,-0.11767 0.29142,-0.2127 0.29143,-0.38101 0.2914,-0.6673 0.29142,-1.13287 0.29143,-1.81305 0.29142,-2.65482 0.29142,-3.41511 0.29144,-3.73134 0.29143,-3.41876 0.29139,-2.66017 0.29143,-1.81888 0.29142,-1.13597 0.29142,-0.67067 0.29143,-0.38213 0.29141,-0.21367 0.29143,-0.11795 0.29143,-0.0648 0.29139,-0.0355 0.29143,-0.0196 0.29141,-0.0104 0.29143,-0.006 0.29143,-0.003 0.29141,-0.002 0.29144,-10e-4 0.29142,-1e-4 0.29141,-3.8e-4 0.29143,-3.7e-4 0.29141,-2.6e-4 0.29143,-0.0248 0.29142,0.0248 h 0.29142 0.29141 0.29143 0.29141 0.29143 0.29141 0.29143 0.29142 0.29142 0.29141 0.29144 0.29141 0.29143 0.29141 0.29143 0.29143 0.2914 0.29142 0.29143 0.29141 0.29143 0.29141 0.29143 0.29143 0.2914 0.29142 0.29143" /></g><g
                         id="g270"><path
                           id="path272"
                           style="fill:none;stroke:#000000;stroke-width:0.79701;stroke-linecap:butt;stroke-linejoin:miter;stroke-miterlimit:10;stroke-dasharray:none;stroke-opacity:1"
                           d="m 28.85258,117.94249 h 0.38859 0.38858 0.38859 0.38856 0.3886 0.3886 0.38858 0.38859 0.38858 0.38858 0.38858 0.38862 0.38857 0.38859 0.38859 0.38857 0.38859 0.3886 0.38859 0.38858 0.38859 0.38857 0.38858 0.38862 0.38858 0.38859 0.38858 0.38857 0.38859 0.3886 0.38859 0.38858 0.3886 0.38856 0.38859 0.3886 0.38859 0.38859 0.38858 0.38858 0.3886 0.38858 0.38859 0.38859 0.38859 0.38856 l 0.3886,-2.6e-4 h 0.3886 l 0.38858,-4.9e-4 0.38859,-10e-4 0.38858,-0.002 0.38858,-0.005 0.3886,-0.0105 0.38858,-0.0235 0.38859,-0.053 0.38858,-0.11794 0.38858,-0.26022 0.38859,-0.56488 0.3886,-1.1767 0.38859,-2.25928 0.38858,-3.72666 0.38859,-4.83878 0.38857,-4.65799 0.38859,-3.35146 0.3886,-1.93997 0.38859,-0.98538 0.38859,-0.46643 0.38857,-0.21391 0.38858,-0.09658 0.38858,-0.04321 0.38862,-0.01926 0.38858,-0.0088 0.38859,-0.004 0.38858,-0.0017 0.38857,-6.3e-4 0.38859,-2.6e-4 0.3886,-1.2e-4 0.38859,-2.4e-4 h 0.38858 0.3886 0.38857 0.38857 0.38862 0.38858 0.38859 0.38858 0.38858 0.3886 0.38858 0.3886 0.38857 0.3886 0.38856 0.3886 0.3886 0.38857 0.3886 0.38858 0.38858" /></g><g
                         id="g274"><path
                           id="path276"
                           style="fill:none;stroke:#000000;stroke-width:0.79701;stroke-linecap:butt;stroke-linejoin:miter;stroke-miterlimit:10;stroke-dasharray:none;stroke-opacity:1"
                           d="m 67.32271,93.11136 0.19427,-6.1e-4 0.19426,-7.5e-4 0.19428,-0.0011 0.19429,-0.0021 0.19426,-0.0029 0.19427,-0.0044 0.19426,-0.0061 0.1943,-0.0096 0.19427,-0.01428 0.19427,-0.021 0.19426,-0.03177 0.19429,-0.04719 0.19428,-0.07076 0.19426,-0.10466 0.19429,-0.15543 0.19427,-0.22918 0.19428,-0.33498 0.19426,-0.48553 0.19427,-0.69065 0.19429,-0.96153 0.19426,-1.29605 0.19428,-1.67491 0.19427,-2.04938 0.19428,-2.34732 0.19427,-2.49058 0.19428,-2.44407 0.19427,-2.21423 0.19427,-1.86937 0.19428,-1.48405 0.19427,-1.12325 0.19428,-0.81903 0.19427,-0.58089 0.19426,-0.40472 0.19429,-0.27823 0.19428,-0.18933 0.19426,-0.12787 0.19427,-0.08617 0.19428,-0.05796 0.19429,-0.03887 0.19426,-0.02594 0.19429,-0.01727 0.19426,-0.01154 0.19427,-0.0077 0.19428,-0.0053 0.19427,-0.0035 0.19428,-0.0022 0.19427,-0.0017 0.19428,-8.7e-4 0.19427,-8.5e-4 0.19426,-2.8e-4 h 0.19429 l 0.19428,-6.1e-4 h 0.19427 l 0.19426,-1.2e-4 h 0.19428 0.19429 l 0.19426,-2.4e-4 h 0.19427 0.19428 0.19429 0.19426 0.19427 0.19429 0.19426 0.19428 0.19427 0.19429 0.19426 0.19426 0.19429 0.19428 0.19427 0.19426 0.19429 0.19427 0.19426 0.19428 0.19429 0.19427 0.19426 0.19426 0.19431 0.19426 0.19427 0.19426 0.19429 0.19428 0.19426 0.19429 0.19427 0.19428 0.19425 0.1943 0.19427 0.19426 0.19427 0.1943 0.19427 0.19426" /></g><g
                         id="g278"><path
                           id="path280"
                           style="fill:none;stroke:#000000;stroke-width:0.79701;stroke-linecap:butt;stroke-linejoin:miter;stroke-miterlimit:10;stroke-dasharray:none;stroke-opacity:1"
                           d="m 86.55777,68.28249 h 0.77715 0.77716 0.77714 0.77716 0.77716 0.77715 0.77716 0.77716 0.77714 0.77715 0.77716 0.77714 0.77717 0.77716 0.77714 0.77716 0.77717 0.77714 0.77716 0.77715 0.77714 0.77716 0.77716 0.77715 0.77716 0.77716 0.77714 0.77716 0.77715 0.77715 0.77716 0.77716 0.77714 0.77716 0.77716 0.77715 0.77716 0.77716 0.77713 0.77716 0.77716 0.77715 0.77716 0.77716 0.77715 0.77715 0.77716 0.77715 0.77716 0.77716 0.77715 0.77716 0.77716 0.77715 0.77715 0.77716 0.77715 0.77714 0.77717 0.77714 0.77716 0.77716 0.77715 0.77716 0.77716 0.77715 0.77715 0.77715 0.77715 l 0.77716,2.4e-4 0.77716,-2.4e-4 h 0.77714 l 0.77716,-2.6e-4 0.77716,-4.9e-4 0.77715,-0.003 0.77716,-0.01538 0.77715,-0.07622 0.77714,-0.37694 0.77716,-1.73661 0.77716,-5.97396 0.77715,-9.4978 0.77716,-5.30287 0.77716,-1.45641 0.77714,-0.31162 0.77717,-0.06269 0.77716,-0.01255 0.77713,-0.0026 0.77716,-6.3e-4 h 0.77716 0.77714 0.77717 0.77715 0.77715 0.77716 0.77716 0.77715 0.77714 0.77718 0.77714" /></g><g
                         id="g282"><path
                           id="path284"
                           style="fill:none;stroke:#000000;stroke-width:0.79701;stroke-linecap:butt;stroke-linejoin:miter;stroke-miterlimit:10;stroke-dasharray:none;stroke-opacity:1"
                           d="m 163.49803,43.45248 h 0.29143 0.29141 0.29144 0.29143 0.29144 0.29143 0.29141 0.29145 0.29143 0.29142 0.29145 0.29143 0.2914 0.29145 0.29143 0.29142 0.29145 0.29142 0.29143 0.29141 0.29145 0.29144 0.29143 0.29143 0.29144 0.29141 0.29143 0.29143 l 0.29144,-2.4e-4 h 0.29144 l 0.29141,-1.2e-4 0.29143,-3.7e-4 0.29144,-3.8e-4 0.29143,-9.9e-4 0.29143,-0.0015 0.29143,-0.0034 0.29144,-0.0057 0.29141,-0.01069 0.29143,-0.01924 0.29144,-0.0355 0.29143,-0.0647 0.29143,-0.11768 0.29144,-0.21317 0.29143,-0.38077 0.29141,-0.66891 0.29144,-1.13263 0.29143,-1.81471 0.29145,-2.65639 0.29142,-3.41602 0.29143,-3.73132 0.29143,-3.41864 0.29141,-2.65871 0.29144,-1.81698 0.29145,-1.13547 0.29142,-0.6698 0.29143,-0.38165 0.29143,-0.21352 0.29143,-0.11781 0.29142,-0.06482 0.29143,-0.03539 0.29144,-0.01948 0.29145,-0.01044 0.29141,-0.006 0.29143,-0.0034 0.29144,-0.0015 0.29143,-9.9e-4 0.29142,-3.9e-4 0.29143,-3.5e-4 0.29145,-1.2e-4 0.29141,-2.4e-4 h 0.29143 0.29144 0.29144 0.29141 0.29145 0.29141 0.29143 0.29144 0.29143 0.29144 0.29143 0.29142 0.29143 0.29143 0.29142 0.29145 0.29143 0.29142 0.29143 0.29143 0.29143 0.29143 0.29144 0.29144 0.2914 0.29144 0.29144 0.29143 0.29143" /></g><g
                         id="g286"><path
                           id="path288"
                           style="fill:none;stroke:#ff0000;stroke-width:0.79701;stroke-linecap:butt;stroke-linejoin:miter;stroke-miterlimit:10;stroke-dasharray:none;stroke-opacity:1"
                           d="M 0,144.01399 H 0.19362 0.38727 0.5809 0.77455 0.96817 1.16182 1.35547 1.5491 1.74274 1.93637 2.13002 2.32365 2.51729 2.71094 2.90457 3.09822 3.29184 3.48549 3.67912 3.87277 4.0664 4.26004 4.45369 4.64732 4.84096 5.03459 5.22824 5.42189 5.61551 5.80916 6.00279 6.19644 6.39006 6.58371 l 0.19365,2.5e-4 0.19364,-2.5e-4 h 0.19364 0.19362 0.19365 l 0.19365,-2.7e-4 0.19364,2.7e-4 h 0.19363 0.19363 0.19365 0.19364 0.19363 0.19365 0.19363 l 0.19365,-2.7e-4 h 0.19364 l 0.19365,-3.7e-4 0.19363,-3.8e-4 h 0.19365 l 0.19363,-2.4e-4 0.19364,-6.3e-4 0.19365,-9.9e-4 0.19363,-0.001 0.19363,-0.002 0.19364,-0.003 0.19365,-0.005 0.19365,-0.007 0.19362,-0.0108 0.19364,-0.0159 0.19364,-0.0242 0.19365,-0.0359 0.19362,-0.0536 0.19365,-0.0797 0.19365,-0.11819 0.19363,-0.17505 0.19363,-0.25687 0.19364,-0.37454 0.19365,-0.53871 0.19365,-0.76202 0.19363,-1.05044 0.19363,-1.3986 0.19364,-1.78014 0.19365,-2.13865 0.19363,-2.39925 0.19364,-2.48856 0.19364,-2.38866 0.19364,-2.1227 0.19365,-1.76018 0.19362,-1.37973 0.19365,-1.0338 0.19363,-0.74899 0.19365,-0.52901 0.19363,-0.36725 0.19364,-0.25177 0.19365,-0.17146 0.19363,-0.11618 0.19363,-0.078 0.19364,-0.0525 0.19365,-0.0353 0.19365,-0.0236 0.19361,-0.016 0.19366,-0.0104 0.19363,-0.007 0.19366,-0.004 0.19362,-0.004 0.19365,-0.002 0.19365,-10e-4 0.19362,-9.9e-4 0.19365,-6.1e-4 0.19362,-5e-4 0.19366,-1.2e-4 0.19364,-2.6e-4 0.19363,-1.1e-4 h 0.19365 0.19362 0.19366 l 0.19364,-2.6e-4 h 0.19362 0.19366 0.19362 0.19366 0.19364 0.19362 l 0.19365,2.6e-4 0.19363,-2.6e-4 h 0.19365 0.19365 0.19364 0.19363 0.19362 0.19365 0.19366 0.19364 0.19361 0.19364 0.19365 0.19366 0.1936 0.19367 0.19362 0.19365 0.19365 0.19361 0.19367 0.1936 0.19365 0.19367 0.19362 0.19366 0.19362 0.19363 0.19367 0.19362 0.19366 0.1936" /></g><g
                         id="g290"><path
                           id="path292"
                           style="fill:none;stroke:#ff0000;stroke-width:0.79701;stroke-linecap:butt;stroke-linejoin:miter;stroke-miterlimit:10;stroke-dasharray:none;stroke-opacity:1"
                           d="m 28.85258,119.18399 h 0.25818 0.25818 0.25818 0.25818 0.25818 0.25819 0.25818 0.25818 0.25819 0.25818 0.25818 0.25818 0.25818 0.25818 0.25821 0.25816 0.25818 0.25819 0.25818 0.2582 0.25816 0.2582 0.25819 0.25818 0.25816 0.25819 0.25818 0.25818 0.25819 0.25818 0.25818 0.2582 0.25817 0.25817 0.25819 0.2582 0.25817 0.25818 0.25818 0.2582 0.25817 0.25817 0.25821 0.25818 0.25818 0.25817 0.25818 0.25818 0.25819 0.2582 0.25816 0.2582 0.25817 0.25818 0.25818 0.25818 0.25819 0.2582 0.25816 0.2582 0.25818 0.25818 0.25819 0.25818 0.25818 0.25819 0.25818 0.25816 0.2582 0.25817 0.25818 0.2582 l 0.25817,-2.6e-4 h 0.25818 l 0.2582,-1.2e-4 0.25818,-2.6e-4 0.25816,-3.5e-4 0.25819,-5.2e-4 0.2582,-0.001 0.25819,-0.002 0.25817,-0.003 0.25817,-0.005 0.2582,-0.009 0.25818,-0.0155 0.25816,-0.0264 0.25821,-0.0451 0.25818,-0.0767 0.25818,-0.12986 0.25819,-0.2195 0.25816,-0.36636 0.25818,-0.60201 0.2582,-0.96266 0.25819,-1.47401 0.25816,-2.11681 0.2582,-2.77389 0.25817,-3.22835 0.25819,-3.27408 0.25817,-2.89685 0.25818,-2.26276 0.25821,-1.60346 0.2582,-1.05963 0.25815,-0.66755 0.25819,-0.40832 0.25816,-0.24508 0.2582,-0.14551 0.25821,-0.0858 0.25814,-0.05064 0.2582,-0.0293 0.25818,-0.01764 0.25819,-0.01003 0.25818,-0.0061 0.25818,-0.0034 0.25819,-0.0021 0.25815,-0.0011 0.25821,-7.6e-4 0.25819,-3.6e-4 0.25817,-2.6e-4 h 0.25821 l 0.25815,-1.2e-4 h 0.25819 0.25821 l 0.25815,-1.24174 0.2582,1.2415 h 0.25815 0.2582 0.2582 0.25817 0.25818 0.25816 0.25821 0.25819 0.25817 0.25819 0.25815 0.25821 0.25821 0.25813 0.25821 0.25816 0.25821 0.25818 0.25817 0.2582 0.25817 0.25819 0.2582 0.25816 0.25819 0.25817" /></g><g
                         id="g294"><path
                           id="path296"
                           style="fill:none;stroke:#ff0000;stroke-width:0.79701;stroke-linecap:butt;stroke-linejoin:miter;stroke-miterlimit:10;stroke-dasharray:none;stroke-opacity:1"
                           d="m 67.32271,94.35373 h 0.1138 l 0.1138,-1.3e-4 0.1138,-2.5e-4 h 0.11381 l 0.1138,-1.1e-4 0.1138,-2.4e-4 0.1138,-1.4e-4 0.1138,-3.8e-4 0.11382,-3.5e-4 0.1138,-6.3e-4 0.11381,-4.9e-4 0.1138,-0.001 0.1138,-9.9e-4 0.1138,-0.0012 0.11382,-0.0017 0.11378,-0.0021 0.11382,-0.0029 0.1138,-0.0032 0.11382,-0.0043 0.1138,-0.0055 0.1138,-0.0068 0.11381,-0.0089 0.1138,-0.0108 0.11379,-0.01404 0.11381,-0.0175 0.11382,-0.02248 0.1138,-0.02829 0.1138,-0.03587 0.1138,-0.04508 0.11381,-0.05687 0.11379,-0.07202 0.1138,-0.09022 0.11383,-0.11374 0.1138,-0.14203 0.1138,-0.17828 0.1138,-0.22185 0.11381,-0.27512 0.1138,-0.3398 0.11379,-0.4169 0.1138,-0.50677 0.11383,-0.61044 0.1138,-0.72631 0.1138,-0.85377 0.11382,-0.98651 0.1138,-1.11826 0.1138,-1.24078 0.11378,-1.34485 0.11383,-1.42095 0.1138,-1.46197 0.1138,-1.46017 0.1138,-1.4231 0.11381,-1.34839 0.1138,-1.24371 0.11379,-1.12238 0.11381,-0.99054 0.11382,-0.85702 0.1138,-0.73104 0.1138,-0.61393 0.11382,-0.50963 0.1138,-0.41963 0.1138,-0.34166 0.11378,-0.27698 0.11382,-0.22334 0.11381,-0.17929 0.1138,-0.1435 0.11382,-0.11423 0.1138,-0.09137 0.1138,-0.07238 0.1138,-0.05724 0.1138,-0.04544 0.1138,-0.036 0.11381,-0.02842 0.1138,-0.02248 0.11382,-0.01787 0.1138,-0.01416 0.1138,-0.01118 0.1138,-0.0086 0.1138,-0.0071 0.1138,-0.0056 0.11381,-0.0042 0.11382,-0.0033 0.1138,-0.0029 0.1138,-0.0021 0.1138,-0.0015 0.11381,-0.0015 0.11379,-10e-4 0.11381,-9.9e-4 0.11382,-4.9e-4 0.1138,-6.2e-4 0.1138,-3.7e-4 0.1138,-3.8e-4 0.11382,-1.4e-4 0.11378,-2.4e-4 h 0.1138 l 0.11382,-1.1e-4 0.11381,-2.6e-4 h 0.1138 l 0.1138,-1.2e-4 h 0.11381 0.11381 0.1138 l 0.11378,-2.4e-4 0.11383,2.4e-4 0.1138,-2.4e-4 h 0.1138 0.1138 0.1138 0.11382 0.11378 0.11382 0.11383 0.11378 0.1138 0.1138 0.11382 0.1138 0.11378 0.11382 0.11381 0.1138 0.11382 0.11378 0.11382 0.11378 0.11382 0.11381 0.1138 0.1138 0.1138 0.11382 0.1138 0.1138 0.1138 0.11381 0.1138 0.11382 0.11378 0.11382 0.11378 0.11382 0.11382 0.1138 0.11381 0.11379 0.11381 0.1138 0.1138 0.1138 0.1138 0.11382 0.11381 0.1138 0.1138 0.1138 0.1138 0.11382 0.11378 0.11383 0.11379 0.11381 0.1138 0.1138 0.11382 0.11378 0.11382 0.11381 0.1138 0.1138 0.1138" /></g><g
                         id="g298"><path
                           id="path300"
                           style="fill:none;stroke:#ff0000;stroke-width:0.79701;stroke-linecap:butt;stroke-linejoin:miter;stroke-miterlimit:10;stroke-dasharray:none;stroke-opacity:1"
                           d="m 86.55777,69.52399 h 0.62598 0.62599 0.62599 0.62597 0.626 0.62599 0.62596 0.62599 0.626 0.62597 0.62599 0.626 0.62597 0.62598 0.62601 0.62597 0.62599 0.626 0.62598 0.62598 0.62598 0.62599 0.62598 0.62599 0.62599 0.62598 0.62599 0.62599 0.62598 0.62599 0.62599 0.62599 0.62598 0.62598 0.62599 0.62598 0.62599 0.62599 0.62597 0.626 0.62598 0.62597 0.62601 0.62599 0.62598 0.62599 0.62599 0.62598 0.62597 0.626 0.62599 0.62597 0.626 0.62599 0.62596 0.62599 0.62601 0.62597 0.626 0.62599 0.62596 0.62599 0.62599 0.62599 0.62598 0.62599 0.626 0.62596 0.62599 0.62599 0.62599 0.62599 0.626 0.62597 0.62598 0.62599 0.62599 0.62598 0.62599 0.62599 0.62598 0.62598 0.62599 0.62597 0.626 0.626 0.62598 l 0.62598,-2.6e-4 0.62599,2.6e-4 h 0.62597 0.626 l 0.62599,-2.6e-4 0.62599,-4.9e-4 0.62598,-0.0017 0.62597,-0.0062 0.62599,-0.02383 0.62598,-0.08716 0.62599,-0.31472 0.62599,-1.09214 0.626,-3.29178 0.626,-6.8404 0.62594,-7.33102 0.62602,-3.92337 0.62593,-1.36441 0.62604,-0.39966 0.62602,-0.11111 0.62593,-0.03028 0.62601,-0.0085 0.62594,-0.002 0.62601,-7.3e-4 0.62604,-2.5e-4 h 0.62593 0.62602 0.62593 0.62602 0.62601 0.62593 0.62604 0.62591 0.62604 0.62603 0.62591 0.62602 0.62595 0.62602 0.62602 0.62593 0.62603 0.62591 0.62604 0.62602 0.62592 0.62603 0.62593 0.62601 0.62604 0.62593 0.62602 0.62593 0.62603 0.62602 0.62591 0.62604 0.62593 0.62602 0.62603 0.62593 0.62602 0.62593 0.62602 0.62603 0.62593 0.62603 0.62593 0.62601 0.62603 0.62594 0.62601 0.62595 0.62602 0.62602 0.62593 0.62602 0.62591 0.62603 0.62604 0.62591 0.62604 0.62593" /></g><g
                         id="g302"><path
                           id="path304"
                           style="fill:none;stroke:#0000ff;stroke-width:0.79701;stroke-linecap:butt;stroke-linejoin:miter;stroke-miterlimit:10;stroke-dasharray:none;stroke-opacity:1"
                           d="M 0,116.70099 H 0.3227 0.64542 0.96814 1.29088 1.6136 1.93633 2.25905 2.58179 2.90451 3.22723 3.54996 3.8727 4.19542 4.51814 4.84087 5.1636 5.48633 5.80905 6.13176 6.4545 6.77722 7.09995 7.42267 7.7454 8.06813 8.39084 8.71358 9.0363 h 0.32272 0.32273 0.32274 0.32272 0.32272 0.32273 0.32274 0.3227 0.32273 0.32272 0.32274 0.32272 0.32273 0.32272 0.32274 0.32272 0.32272 0.32274 0.32272 0.32273 0.32272 0.32274 0.32271 0.32272 0.32273 0.32272 0.32273 0.32272 0.32272 0.32274 0.32272 0.32273 0.32272 0.32274 0.32272 0.32272 0.32273 0.32274 0.32272 0.32272 0.32273 0.32273 0.32271 0.32273 0.32274 0.32272 0.32272 0.32273 0.32272 0.32272 0.32273 0.32272 0.32274 0.32272 0.32272 l 0.32273,-2.6e-4 0.32274,-1.3e-4 0.32272,-3.6e-4 0.32272,-3.8e-4 0.32273,-9.8e-4 0.32272,-0.002 0.32272,-0.004 0.32273,-0.008 0.32272,-0.0153 0.32274,-0.0305 0.32272,-0.0593 0.32273,-0.11496 0.32273,-0.22223 0.32273,-0.42336 0.32272,-0.78699 0.32272,-1.39915 0.32274,-2.3009 0.32274,-3.33507 0.32268,-4.04598 0.32275,-3.9786 0.3227,-3.17479 0.32275,-2.13789 0.32272,-1.2805 0.32271,-0.71385 0.32274,-0.38165 0.32269,-0.19987 0.32276,-0.10341 0.32275,-0.05327 0.32269,-0.02733 0.32276,-0.01376 0.32269,-0.0072 0.32274,-0.0038 0.32275,-0.0019 0.3227,-8.9e-4 0.32275,-3.5e-4 0.32269,-2.6e-4 0.32276,-1.2e-4 0.32274,-0.01266 0.3227,0.01242 h 0.32274 0.32269 0.32274 0.32276 0.32269 0.32272 0.32271 0.32274 0.32275 0.3227 0.32275 0.32269 0.32276 0.32274 0.32269 0.32275 0.3227 0.32275 0.32274 0.32269 0.32274 0.32271 0.32274 0.32275 0.32269 0.32276 0.32269" /></g><g
                         id="g306"><path
                           id="path308"
                           style="fill:none;stroke:#0000ff;stroke-width:0.79701;stroke-linecap:butt;stroke-linejoin:miter;stroke-miterlimit:10;stroke-dasharray:none;stroke-opacity:1"
                           d="m 48.08765,91.87099 h 0.25818 0.25817 0.2582 0.25816 0.25818 0.25819 0.25818 0.25818 0.2582 0.25817 0.25818 0.25818 0.25818 0.25818 0.25821 0.25818 0.25816 0.25819 0.25818 0.2582 0.25816 0.25819 0.2582 0.25818 0.25816 0.25819 0.25818 0.25818 0.25821 0.25816 0.25819 0.25819 0.25818 0.25816 0.25819 0.2582 0.25818 0.25817 0.25818 0.2582 0.25818 0.25817 0.2582 0.25818 0.25818 0.25819 0.25816 0.25819 0.25819 0.25819 0.25816 0.2582 0.25818 0.25818 0.25819 0.25816 0.2582 0.25819 0.25818 0.25818 0.25818 0.25818 0.25819 0.25818 0.25817 0.2582 0.25818 l 0.25816,-2.6e-4 0.2582,-3.8e-4 h 0.25818 l 0.25818,-3.5e-4 0.2582,-5.1e-4 0.25817,-9.9e-4 0.25818,-0.0017 0.25819,-0.003 0.25818,-0.0051 0.25816,-0.0091 0.2582,-0.01515 0.25819,-0.02582 0.25819,-0.0442 0.25817,-0.07497 0.25817,-0.12725 0.2582,-0.21515 0.25818,-0.35906 0.25818,-0.59045 0.25819,-0.94502 0.25818,-1.45119 0.25818,-2.09015 0.25819,-2.74961 0.25817,-3.21658 0.25817,-3.28167 0.2582,-2.91775 0.25819,-2.2905 0.25817,-1.62818 0.25819,-1.078 0.25818,-0.67986 0.25818,-0.41701 0.25819,-0.25016 0.25816,-0.14861 0.25821,-0.08765 0.2582,-0.05177 0.25815,-0.03004 0.25819,-0.01789 0.25816,-0.01042 0.2582,-0.006 0.25821,-0.0036 0.25815,-0.002 0.25819,-0.0012 0.25818,-7.6e-4 0.25819,-2.4e-4 0.2582,-4.9e-4 0.25816,1.2e-4 0.25819,-3.6e-4 0.25815,2.4e-4 0.25823,-2.4e-4 h 0.25817 0.25817 0.2582 0.25816 0.25819 0.25821 0.25814 0.25822 0.25816 0.25818 0.25821 0.25816 0.2582 0.25814 0.25821 0.2582 0.25816 0.25819 0.25815 0.25821 0.25821 0.25813 0.25821 0.25816 0.25822 0.25819 0.25815 0.25821 0.25816 0.25819 0.2582 0.25816 0.2582 0.25816" /></g><g
                         id="g310"><path
                           id="path312"
                           style="fill:none;stroke:#0000ff;stroke-width:0.79701;stroke-linecap:butt;stroke-linejoin:miter;stroke-miterlimit:10;stroke-dasharray:none;stroke-opacity:1"
                           d="m 86.55777,67.03528 0.12909,-0.0017 0.12907,-0.002 0.12909,-0.0032 0.12908,-0.0039 0.12909,-0.0048 0.1291,-0.0067 0.12907,-0.0084 0.12909,-0.01129 0.12909,-0.01451 0.12908,-0.01914 0.1291,-0.02508 0.12908,-0.03276 0.12909,-0.04233 0.12908,-0.05539 0.12908,-0.07201 0.1291,-0.09372 0.12909,-0.12141 0.12908,-0.15707 0.12908,-0.20211 0.12908,-0.25972 0.12911,-0.33137 0.12908,-0.41962 0.12908,-0.52626 0.12909,-0.65315 0.12909,-0.7981 0.12907,-0.96071 0.1291,-1.13061 0.12908,-1.29863 0.12909,-1.45198 0.12909,-1.57164 0.12907,-1.64473 0.12909,-1.6601 0.12909,-1.62103 0.12911,-1.52691 0.12907,-1.39063 0.12907,-1.23046 0.12909,-1.05879 0.12911,-0.89158 0.12907,-0.73631 0.12909,-0.59743 0.12908,-0.47936 0.1291,-0.38112 0.12909,-0.29908 0.12907,-0.23415 0.12909,-0.18227 0.12909,-0.14126 0.12909,-0.10877 0.12907,-0.0843 0.1291,-0.06442 0.1291,-0.04966 0.12907,-0.038 0.12909,-0.02918 0.12908,-0.02246 0.12909,-0.01701 0.1291,-0.01304 0.12907,-0.01029 0.12908,-0.0076 0.12909,-0.0056 0.1291,-0.0048 0.12909,-0.0033 0.12908,-0.0026 0.12907,-0.0021 0.12911,-0.0015 0.12907,-0.0012 0.12911,-8.7e-4 0.12907,-7.6e-4 0.12909,-3.7e-4 0.12909,-4.9e-4 0.12907,-2.7e-4 0.12909,-2.4e-4 h 0.12911 l 0.12907,-3.7e-4 h 0.12909 l 0.12907,-1.2e-4 0.12909,1.2e-4 0.12911,-1.2e-4 h 0.12907 l 0.12909,-2.3e-4 0.12909,2.3e-4 0.12907,-2.3e-4 h 0.12911 0.12907 0.12908 0.1291 0.12907 0.12911 0.12907 0.12909 0.12909 0.12908 0.12909 0.1291 0.12907 0.1291 0.12907 0.12909 0.1291 0.12908 0.12909 0.12909 0.12907 0.12911 0.12907 0.12909 0.12909 0.12907 0.12909 0.1291 0.12906 0.12911 0.12909 0.12907 0.12911 0.12905 0.12911 0.12909 0.12907 0.12911 0.12907 0.12909 0.12909 0.12907 0.1291 0.12908 0.12911 0.12907 0.12908 0.12909 0.12909 0.1291 0.12908 0.12907 0.1291 0.12908 0.12909 0.1291 0.12906 0.1291 0.12906 0.12911 0.1291 0.12906 0.12911 0.12907 0.12909 0.1291 0.12908 0.12907 0.12909" /></g><g
                         id="g314"><path
                           id="path316"
                           style="fill:none;stroke:#0000ff;stroke-width:0.79701;stroke-linecap:butt;stroke-linejoin:miter;stroke-miterlimit:10;stroke-dasharray:none;stroke-opacity:1"
                           d="m 105.79285,42.211 h 0.5809 0.58093 0.58092 0.58092 0.58093 0.58092 0.58091 0.58092 0.58093 0.58092 0.58092 0.58093 0.58092 0.58092 0.58091 0.58094 0.58091 0.58094 0.5809 0.58093 0.58093 0.58092 0.58092 0.58093 0.58092 0.5809 0.58095 0.58091 0.58092 0.58092 0.58093 0.58092 0.58093 0.5809 0.58093 0.58092 0.58092 0.58092 0.58093 0.58093 0.58091 0.58091 0.58095 0.58091 0.58091 0.58095 0.58092 0.5809 0.58093 0.58093 0.58092 0.58092 0.58092 0.58093 0.58092 0.58091 0.58092 0.58095 0.5809 0.58092 0.58093 0.58093 0.5809 0.58094 0.58091 0.58092 0.58092 0.58093 0.58093 0.58091 0.58093 0.58092 0.58093 0.58092 0.58091 0.58092 0.58093 0.58092 0.58092 0.58093 0.58092 0.58092 0.58093 0.58092 0.58091 0.58094 0.58091 0.58092 0.58092 0.58093 0.58092 0.58092 0.58093 0.58091 0.58091 0.58095 l 0.58091,-3.8e-4 0.58092,-7.5e-4 0.58092,-0.0026 0.58093,-0.0087 0.58096,-0.0293 0.58086,-0.09733 0.58094,-0.32056 0.5809,-1.01457 0.58096,-2.85601 0.58093,-5.95489 0.58089,-7.16676 0.58096,-4.59385 0.58086,-1.8815 0.58094,-0.62623 0.58096,-0.1933 0.5809,-0.05834 0.58094,-0.01751 0.58086,-0.0053 0.58098,-0.0015 0.58096,-2.6e-4 0.58084,-3.6e-4 h 0.58096 0.58089 0.58095 0.58095 0.58087 0.58096 0.58087 0.58095 0.58096 0.58088 0.58094 0.58088 0.58096 0.58096 0.58086 0.58096 0.58087 0.58095 0.58096 0.58088 0.58096 0.58085 0.58097 0.58095 0.58088 0.58095 0.58087 0.58095 0.58096 0.58087 0.58095 0.58089" /></g><g
                         id="g318"><path
                           id="path320"
                           style="fill:none;stroke:#000000;stroke-width:0.09962;stroke-linecap:butt;stroke-linejoin:miter;stroke-miterlimit:10;stroke-dasharray:2.98883, 2.98883;stroke-dashoffset:0;stroke-opacity:1"
                           d="m 0,142.77249 h 8.01457 8.01457 8.01458 8.01457 8.01457 8.01457 8.01457 8.0146 8.01456 8.01459 8.01457 8.01458 8.01458 8.01458 8.0146 8.01457 8.01457 8.01457 8.01458 8.01457 8.01457 8.01457 8.01459 8.01457" /></g><g
                         id="g322"><path
                           id="path324"
                           style="fill:none;stroke:#000000;stroke-width:0.09962;stroke-linecap:butt;stroke-linejoin:miter;stroke-miterlimit:10;stroke-dasharray:2.98883, 2.98883;stroke-dashoffset:0;stroke-opacity:1"
                           d="m 0,117.94249 h 8.01457 8.01457 8.01458 8.01457 8.01457 8.01457 8.01457 8.0146 8.01456 8.01459 8.01457 8.01458 8.01458 8.01458 8.0146 8.01457 8.01457 8.01457 8.01458 8.01457 8.01457 8.01457 8.01459 8.01457" /></g><g
                         id="g326"><path
                           id="path328"
                           style="fill:none;stroke:#000000;stroke-width:0.09962;stroke-linecap:butt;stroke-linejoin:miter;stroke-miterlimit:10;stroke-dasharray:2.98883, 2.98883;stroke-dashoffset:0;stroke-opacity:1"
                           d="m 0,93.11249 h 8.01457 8.01457 8.01458 8.01457 8.01457 8.01457 8.01457 8.0146 8.01456 8.01459 8.01457 8.01458 8.01458 8.01458 8.0146 8.01457 8.01457 8.01457 8.01458 8.01457 8.01457 8.01457 8.01459 8.01457" /></g><g
                         id="g330"><path
                           id="path332"
                           style="fill:none;stroke:#000000;stroke-width:0.09962;stroke-linecap:butt;stroke-linejoin:miter;stroke-miterlimit:10;stroke-dasharray:2.98883, 2.98883;stroke-dashoffset:0;stroke-opacity:1"
                           d="m 0,68.28249 h 8.01457 8.01457 8.01458 8.01457 8.01457 8.01457 8.01457 8.0146 8.01456 8.01459 8.01457 8.01458 8.01458 8.01458 8.0146 8.01457 8.01457 8.01457 8.01458 8.01457 8.01457 8.01457 8.01459 8.01457" /></g><g
                         id="g334"><path
                           id="path336"
                           style="fill:none;stroke:#000000;stroke-width:0.09962;stroke-linecap:butt;stroke-linejoin:miter;stroke-miterlimit:10;stroke-dasharray:2.98883, 2.98883;stroke-dashoffset:0;stroke-opacity:1"
                           d="m 0,43.45248 h 8.01457 8.01457 8.01458 8.01457 8.01457 8.01457 8.01457 8.0146 8.01456 8.01459 8.01457 8.01458 8.01458 8.01458 8.0146 8.01457 8.01457 8.01457 8.01458 8.01457 8.01457 8.01457 8.01459 8.01457" /></g><g
                         id="g338"><path
                           id="path340"
                           style="fill:none;stroke:#000000;stroke-width:0.09962;stroke-linecap:butt;stroke-linejoin:miter;stroke-miterlimit:10;stroke-dasharray:2.98883, 2.98883;stroke-dashoffset:0;stroke-opacity:1"
                           d="m 0,18.6225 h 8.01457 8.01457 8.01458 8.01457 8.01457 8.01457 8.01457 8.0146 8.01456 8.01459 8.01457 8.01458 8.01458 8.01458 8.0146 8.01457 8.01457 8.01457 8.01458 8.01457 8.01457 8.01457 8.01459 8.01457" /></g><g
                         id="g342"><path
                           id="path344"
                           style="fill:none;stroke:#808080;stroke-width:0.09962;stroke-linecap:butt;stroke-linejoin:miter;stroke-miterlimit:10;stroke-dasharray:2.98883, 2.98883;stroke-dashoffset:0;stroke-opacity:1"
                           d="M 14.42628,155.18748 V 6.20749" /></g><g
                         id="g346"><path
                           id="path348"
                           style="fill:none;stroke:#808080;stroke-width:0.09962;stroke-linecap:butt;stroke-linejoin:miter;stroke-miterlimit:10;stroke-dasharray:2.98883, 2.98883;stroke-dashoffset:0;stroke-opacity:1"
                           d="M 52.89642,155.18748 V 6.20749" /></g><g
                         id="g350"><path
                           id="path352"
                           style="fill:none;stroke:#808080;stroke-width:0.09962;stroke-linecap:butt;stroke-linejoin:miter;stroke-miterlimit:10;stroke-dasharray:2.98883, 2.98883;stroke-dashoffset:0;stroke-opacity:1"
                           d="M 72.13148,155.18748 V 6.20749" /></g><g
                         id="g354"><path
                           id="path356"
                           style="fill:none;stroke:#808080;stroke-width:0.09962;stroke-linecap:butt;stroke-linejoin:miter;stroke-miterlimit:10;stroke-dasharray:2.98883, 2.98883;stroke-dashoffset:0;stroke-opacity:1"
                           d="M 149.07173,155.18748 V 6.20749" /></g><g
                         id="g358"><path
                           id="path360"
                           style="fill:none;stroke:#808080;stroke-width:0.09962;stroke-linecap:butt;stroke-linejoin:miter;stroke-miterlimit:10;stroke-dasharray:2.98883, 2.98883;stroke-dashoffset:0;stroke-opacity:1"
                           d="M 177.92433,155.18748 V 6.20749" /></g><g
                         id="g362"><path
                           id="path364"
                           style="fill:none;stroke:#0000ff;stroke-width:0.09962;stroke-linecap:butt;stroke-linejoin:miter;stroke-miterlimit:10;stroke-dasharray:2.98883, 2.98883;stroke-dashoffset:0;stroke-opacity:1"
                           d="M 90.59712,55.8675 V 6.20749" /></g><g
                         id="g366"><path
                           id="path368"
                           style="fill:none;stroke:#0000ff;stroke-width:0.09962;stroke-linecap:butt;stroke-linejoin:miter;stroke-miterlimit:10;stroke-dasharray:2.98883, 2.98883;stroke-dashoffset:0;stroke-opacity:1"
                           d="M 32.89194,105.5275 V 6.20749" /></g><g
                         id="g370"><path
                           id="path372"
                           style="fill:none;stroke:#0000ff;stroke-width:0.09962;stroke-linecap:butt;stroke-linejoin:miter;stroke-miterlimit:10;stroke-dasharray:2.98883, 2.98883;stroke-dashoffset:0;stroke-opacity:1"
                           d="m 167.53738,31.03749 v -24.83" /></g></g></g><g
                     id="g374"><path
                       id="path376"
                       style="fill:none;stroke:#000000;stroke-width:0.79701;stroke-linecap:butt;stroke-linejoin:miter;stroke-miterlimit:10;stroke-dasharray:none;stroke-opacity:1"
                       d="m 13.01733,128.94853 2.81791,2.8179 m -2.81791,0 2.81791,-2.8179" /></g><g
                     id="g378"><path
                       id="path380"
                       style="fill:none;stroke:#000000;stroke-width:0.79701;stroke-linecap:butt;stroke-linejoin:miter;stroke-miterlimit:10;stroke-dasharray:none;stroke-opacity:1"
                       d="m 51.48747,104.11855 2.81789,2.81788 m -2.81789,0 2.81789,-2.81788" /></g><g
                     id="g382"><path
                       id="path384"
                       style="fill:none;stroke:#000000;stroke-width:0.79701;stroke-linecap:butt;stroke-linejoin:miter;stroke-miterlimit:10;stroke-dasharray:none;stroke-opacity:1"
                       d="m 70.72253,79.28854 2.81791,2.81791 m -2.81791,0 2.81791,-2.81791" /></g><g
                     id="g386"><path
                       id="path388"
                       style="fill:none;stroke:#000000;stroke-width:0.79701;stroke-linecap:butt;stroke-linejoin:miter;stroke-miterlimit:10;stroke-dasharray:none;stroke-opacity:1"
                       d="m 147.66278,54.45854 2.8179,2.8179 m -2.8179,0 2.8179,-2.8179" /></g><g
                     id="g390"><path
                       id="path392"
                       style="fill:none;stroke:#000000;stroke-width:0.79701;stroke-linecap:butt;stroke-linejoin:miter;stroke-miterlimit:10;stroke-dasharray:none;stroke-opacity:1"
                       d="m 176.51538,29.62854 2.8179,2.8179 m -2.8179,0 2.8179,-2.8179" /></g><g
                     id="g394"><path
                       id="path396"
                       style="fill:none;stroke:#0000ff;stroke-width:0.79701;stroke-linecap:butt;stroke-linejoin:miter;stroke-miterlimit:10;stroke-dasharray:none;stroke-opacity:1"
                       d="m 31.48299,104.11855 2.8179,2.81788 m -2.8179,0 2.8179,-2.81788" /></g><g
                     id="g398"><path
                       id="path400"
                       style="fill:none;stroke:#0000ff;stroke-width:0.79701;stroke-linecap:butt;stroke-linejoin:miter;stroke-miterlimit:10;stroke-dasharray:none;stroke-opacity:1"
                       d="m 89.18817,54.45854 2.8179,2.8179 m -2.8179,0 2.8179,-2.8179" /></g><g
                     id="g402"><path
                       id="path404"
                       style="fill:none;stroke:#0000ff;stroke-width:0.79701;stroke-linecap:butt;stroke-linejoin:miter;stroke-miterlimit:10;stroke-dasharray:none;stroke-opacity:1"
                       d="m 166.12843,29.62854 2.8179,2.8179 m -2.8179,0 2.8179,-2.8179" /></g></g></g><g
                 transform="translate(-0.398,-2.759)"
                 id="g406" /></g><g
               transform="translate(0.398,2.759)"
               id="g408" /></g><g
             id="g410" /><g
             id="g412" /></g></g></g></g></svg>