<?xml version="1.0" encoding="UTF-8" standalone="no"?>
<svg
   xmlns:dc="http://purl.org/dc/elements/1.1/"
   xmlns:cc="http://creativecommons.org/ns#"
   xmlns:rdf="http://www.w3.org/1999/02/22-rdf-syntax-ns#"
   xmlns:svg="http://www.w3.org/2000/svg"
   xmlns="http://www.w3.org/2000/svg"
   viewBox="0 0 259.80267 108.62133"
   height="108.62133"
   width="259.80267"
   xml:space="preserve"
   id="svg2"
   version="1.1"><metadata
     id="metadata8"><rdf:RDF><cc:Work
         rdf:about=""><dc:format>image/svg+xml</dc:format><dc:type
           rdf:resource="http://purl.org/dc/dcmitype/StillImage" /></cc:Work></rdf:RDF></metadata><defs
     id="defs6" /><g
     transform="matrix(1.3333333,0,0,-1.3333333,0,108.62133)"
     id="g10"><g
       transform="translate(26.56,40.733)"
       id="g12"><g
         id="g14"><g
           id="g16"><g
             id="g18"><g
               id="g20"><path
                 id="path22"
                 style="fill:#b3b3b3;fill-opacity:0.5;fill-rule:nonzero;stroke:#000000;stroke-width:0.3985;stroke-linecap:butt;stroke-linejoin:miter;stroke-miterlimit:10;stroke-dasharray:2.98883, 2.98883;stroke-dashoffset:0;stroke-opacity:0.5"
                 d="m 9.21556,0 c 0,5.08966 -4.1259,9.21556 -9.21556,9.21556 -5.08966,0 -9.21556,-4.1259 -9.21556,-9.21556 0,-5.08966 4.1259,-9.21556 9.21556,-9.21556 5.08966,0 9.21556,4.1259 9.21556,9.21556 z" /></g><g
               transform="scale(0.5)"
               id="g24"><g
                 id="g26" /></g></g><g
             id="g28"><g
               transform="matrix(0.5,0,0,0.5,-3.132,-1.328)"
               id="g30"><g
                 id="g32"><g
                   transform="translate(-23.428,-39.405)"
                   id="g34"><text
                     id="text38"
                     style="font-variant:normal;font-weight:normal;font-size:9.96259975px;font-family:CMMI10;-inkscape-font-specification:CMMI10;writing-mode:lr-tb;fill:#000000;fill-opacity:1;fill-rule:nonzero;stroke:none"
                     transform="matrix(1,0,0,-1,23.428,39.405)"><tspan
                       id="tspan36"
                       y="0"
                       x="0">C</tspan></text>
<text
                     id="text42"
                     style="font-variant:normal;font-weight:normal;font-size:6.97380018px;font-family:CMMI7;-inkscape-font-specification:CMMI7;writing-mode:lr-tb;fill:#000000;fill-opacity:1;fill-rule:nonzero;stroke:none"
                     transform="matrix(1,0,0,-1,30.548,37.91)"><tspan
                       id="tspan40"
                       y="0"
                       x="0">π</tspan></text>
<g
                     transform="translate(23.428,39.405)"
                     id="g44" /></g></g><g
                 transform="translate(3.132,1.328)"
                 id="g46" /></g></g><g
             id="g48"><g
               id="g50"><path
                 id="path52"
                 style="fill:none;stroke:#000000;stroke-width:0.3985;stroke-linecap:butt;stroke-linejoin:miter;stroke-miterlimit:10;stroke-dasharray:2.98883, 2.98883;stroke-dashoffset:0;stroke-opacity:1"
                 d="m 37.56236,14.17339 c 0,5.08967 -4.12588,9.21556 -9.21556,9.21556 -5.08966,0 -9.21556,-4.12589 -9.21556,-9.21556 0,-5.08967 4.1259,-9.21557 9.21556,-9.21557 5.08968,0 9.21556,4.1259 9.21556,9.21557 z" /></g><g
               transform="matrix(0.5,0,0,0.5,25.497,12.845)"
               id="g54"><g
                 id="g56"><g
                   transform="translate(-52.057,-53.578)"
                   id="g58"><text
                     id="text62"
                     style="font-variant:normal;font-weight:normal;font-size:9.96259975px;font-family:CMMI10;-inkscape-font-specification:CMMI10;writing-mode:lr-tb;fill:#000000;fill-opacity:1;fill-rule:nonzero;stroke:none"
                     transform="matrix(1,0,0,-1,52.057,53.578)"><tspan
                       id="tspan60"
                       y="0"
                       x="0">C</tspan></text>
<text
                     id="text66"
                     style="font-variant:normal;font-weight:normal;font-size:6.97380018px;font-family:CMMI7;-inkscape-font-specification:CMMI7;writing-mode:lr-tb;fill:#000000;fill-opacity:1;fill-rule:nonzero;stroke:none"
                     transform="matrix(1,0,0,-1,59.177,52.084)"><tspan
                       id="tspan64"
                       y="0"
                       x="0">e</tspan></text>
<g
                     transform="translate(52.057,53.578)"
                     id="g68" /></g></g><g
                 transform="translate(-25.497,-12.845)"
                 id="g70" /></g></g><g
             id="g72"><g
               id="g74"><path
                 id="path76"
                 style="fill:none;stroke:#000000;stroke-width:0.3985;stroke-linecap:butt;stroke-linejoin:miter;stroke-miterlimit:10;stroke-dasharray:2.98883, 2.98883;stroke-dashoffset:0;stroke-opacity:1"
                 d="m 37.56236,-14.17339 c 0,5.08967 -4.12588,9.21557 -9.21556,9.21557 -5.08966,0 -9.21556,-4.1259 -9.21556,-9.21557 0,-5.08967 4.1259,-9.21556 9.21556,-9.21556 5.08968,0 9.21556,4.12589 9.21556,9.21556 z" /></g><g
               transform="matrix(0.5,0,0,0.5,22.941,-15.294)"
               id="g78"><g
                 id="g80"><g
                   transform="translate(-49.501,-25.439)"
                   id="g82"><text
                     id="text86"
                     style="font-variant:normal;font-weight:normal;font-size:9.96259975px;font-family:CMMI10;-inkscape-font-specification:CMMI10;writing-mode:lr-tb;fill:#000000;fill-opacity:1;fill-rule:nonzero;stroke:none"
                     transform="matrix(1,0,0,-1,49.501,25.439)"><tspan
                       id="tspan84"
                       y="0"
                       x="0">C</tspan></text>
<text
                     id="text90"
                     style="font-variant:normal;font-weight:normal;font-size:6.97380018px;font-family:CMMI7;-inkscape-font-specification:CMMI7;writing-mode:lr-tb;fill:#000000;fill-opacity:1;fill-rule:nonzero;stroke:none"
                     transform="matrix(1,0,0,-1,56.622,23.945)"><tspan
                       id="tspan88"
                       y="0"
                       x="0">r</tspan></text>
<text
                     id="text94"
                     style="font-variant:normal;font-weight:normal;font-size:6.97380018px;font-family:CMR7;-inkscape-font-specification:CMR7;writing-mode:lr-tb;fill:#000000;fill-opacity:1;fill-rule:nonzero;stroke:none"
                     transform="matrix(1,0,0,-1,60.536,23.945)"><tspan
                       id="tspan92"
                       y="0"
                       x="0 6.1160226">+1</tspan></text>
<g
                     transform="translate(49.501,25.439)"
                     id="g96" /></g></g><g
                 transform="translate(-22.941,15.294)"
                 id="g98" /></g></g><g
             id="g100"><g
               id="g102"><path
                 id="path104"
                 style="fill:none;stroke:#000000;stroke-width:0.3985;stroke-linecap:butt;stroke-linejoin:miter;stroke-miterlimit:10;stroke-dasharray:2.98883, 2.98883;stroke-dashoffset:0;stroke-opacity:1"
                 d="m 65.90918,-14.17339 c 0,5.08967 -4.1259,9.21557 -9.21556,9.21557 -5.08968,0 -9.21556,-4.1259 -9.21556,-9.21557 0,-5.08967 4.12588,-9.21556 9.21556,-9.21556 5.08966,0 9.21556,4.12589 9.21556,9.21556 z" /></g><g
               transform="matrix(0.5,0,0,0.5,51.288,-15.294)"
               id="g106"><g
                 id="g108"><g
                   transform="translate(-77.848,-25.439)"
                   id="g110"><text
                     id="text114"
                     style="font-variant:normal;font-weight:normal;font-size:9.96259975px;font-family:CMMI10;-inkscape-font-specification:CMMI10;writing-mode:lr-tb;fill:#000000;fill-opacity:1;fill-rule:nonzero;stroke:none"
                     transform="matrix(1,0,0,-1,77.848,25.439)"><tspan
                       id="tspan112"
                       y="0"
                       x="0">C</tspan></text>
<text
                     id="text118"
                     style="font-variant:normal;font-weight:normal;font-size:6.97380018px;font-family:CMMI7;-inkscape-font-specification:CMMI7;writing-mode:lr-tb;fill:#000000;fill-opacity:1;fill-rule:nonzero;stroke:none"
                     transform="matrix(1,0,0,-1,84.968,23.945)"><tspan
                       id="tspan116"
                       y="0"
                       x="0">r</tspan></text>
<text
                     id="text122"
                     style="font-variant:normal;font-weight:normal;font-size:6.97380018px;font-family:CMR7;-inkscape-font-specification:CMR7;writing-mode:lr-tb;fill:#000000;fill-opacity:1;fill-rule:nonzero;stroke:none"
                     transform="matrix(1,0,0,-1,88.882,23.945)"><tspan
                       id="tspan120"
                       y="0"
                       x="0 6.1160226">+2</tspan></text>
<g
                     transform="translate(77.848,25.439)"
                     id="g124" /></g></g><g
                 transform="translate(-51.288,15.294)"
                 id="g126" /></g></g><g
             id="g128"><g
               id="g130"><path
                 id="path132"
                 style="fill:none;stroke:#000000;stroke-width:0.3985;stroke-linecap:butt;stroke-linejoin:miter;stroke-miterlimit:10;stroke-dasharray:2.98883, 2.98883;stroke-dashoffset:0;stroke-opacity:1"
                 d="m 65.90918,14.17339 c 0,5.08967 -4.1259,9.21556 -9.21556,9.21556 -5.08968,0 -9.21556,-4.12589 -9.21556,-9.21556 0,-5.08967 4.12588,-9.21557 9.21556,-9.21557 5.08966,0 9.21556,4.1259 9.21556,9.21557 z" /></g><g
               transform="matrix(0.5,0,0,0.5,51.294,13.052)"
               id="g134"><g
                 id="g136"><g
                   transform="translate(-77.854,-53.785)"
                   id="g138"><text
                     id="text142"
                     style="font-variant:normal;font-weight:normal;font-size:9.96259975px;font-family:CMMI10;-inkscape-font-specification:CMMI10;writing-mode:lr-tb;fill:#000000;fill-opacity:1;fill-rule:nonzero;stroke:none"
                     transform="matrix(1,0,0,-1,77.854,53.785)"><tspan
                       id="tspan140"
                       y="0"
                       x="0">C</tspan></text>
<text
                     id="text146"
                     style="font-variant:normal;font-weight:normal;font-size:6.97380018px;font-family:CMMI7;-inkscape-font-specification:CMMI7;writing-mode:lr-tb;fill:#000000;fill-opacity:1;fill-rule:nonzero;stroke:none"
                     transform="matrix(1,0,0,-1,84.974,52.291)"><tspan
                       id="tspan144"
                       y="0"
                       x="0">e</tspan></text>
<text
                     id="text150"
                     style="font-variant:normal;font-weight:normal;font-size:6.97380018px;font-family:CMSY7;-inkscape-font-specification:CMSY7;writing-mode:lr-tb;fill:#000000;fill-opacity:1;fill-rule:nonzero;stroke:none"
                     transform="matrix(1,0,0,-1,88.754,52.291)"><tspan
                       id="tspan148"
                       y="0"
                       x="0">−</tspan></text>
<text
                     id="text154"
                     style="font-variant:normal;font-weight:normal;font-size:6.97380018px;font-family:CMR7;-inkscape-font-specification:CMR7;writing-mode:lr-tb;fill:#000000;fill-opacity:1;fill-rule:nonzero;stroke:none"
                     transform="matrix(1,0,0,-1,94.981,52.291)"><tspan
                       id="tspan152"
                       y="0"
                       x="0">1</tspan></text>
<g
                     transform="translate(77.854,53.785)"
                     id="g156" /></g></g><g
                 transform="translate(-51.294,-13.052)"
                 id="g158" /></g></g><g
             id="g160"><g
               id="g162"><path
                 id="path164"
                 style="fill:#b3b3b3;fill-opacity:0.5;fill-rule:nonzero;stroke:#000000;stroke-width:0.3985;stroke-linecap:butt;stroke-linejoin:miter;stroke-miterlimit:10;stroke-dasharray:2.98883, 2.98883;stroke-dashoffset:0;stroke-opacity:0.5"
                 d="m 150.9496,0 c 0,5.08966 -4.12588,9.21556 -9.21556,9.21556 -5.08966,0 -9.21556,-4.1259 -9.21556,-9.21556 0,-5.08966 4.1259,-9.21556 9.21556,-9.21556 5.08968,0 9.21556,4.1259 9.21556,9.21556 z" /></g><g
               transform="matrix(0.5,0,0,0.5,141.732,0)"
               id="g166"><g
                 id="g168" /><g
                 transform="translate(-141.732)"
                 id="g170" /></g></g><g
             id="g172"><g
               transform="matrix(0.5,0,0,0.5,138.835,-1.328)"
               id="g174"><g
                 id="g176"><g
                   transform="translate(-165.395,-39.405)"
                   id="g178"><text
                     id="text182"
                     style="font-variant:normal;font-weight:normal;font-size:9.96259975px;font-family:CMMI10;-inkscape-font-specification:CMMI10;writing-mode:lr-tb;fill:#000000;fill-opacity:1;fill-rule:nonzero;stroke:none"
                     transform="matrix(1,0,0,-1,165.395,39.405)"><tspan
                       id="tspan180"
                       y="0"
                       x="0">C</tspan></text>
<text
                     id="text186"
                     style="font-variant:normal;font-weight:normal;font-size:6.97380018px;font-family:CMR7;-inkscape-font-specification:CMR7;writing-mode:lr-tb;fill:#000000;fill-opacity:1;fill-rule:nonzero;stroke:none"
                     transform="matrix(1,0,0,-1,172.515,37.91)"><tspan
                       id="tspan184"
                       y="0"
                       x="0">0</tspan></text>
<g
                     transform="translate(165.395,39.405)"
                     id="g188" /></g></g><g
                 transform="translate(-138.835,1.328)"
                 id="g190" /></g></g><g
             id="g192"><g
               id="g194"><path
                 id="path196"
                 style="fill:none;stroke:#000000;stroke-width:0.3985;stroke-linecap:butt;stroke-linejoin:miter;stroke-miterlimit:10;stroke-dasharray:2.98883, 2.98883;stroke-dashoffset:0;stroke-opacity:1"
                 d="m 94.25598,14.17339 c 0,5.08967 -4.12588,9.21556 -9.21556,9.21556 -5.08966,0 -9.21556,-4.12589 -9.21556,-9.21556 0,-5.08967 4.1259,-9.21557 9.21556,-9.21557 5.08968,0 9.21556,4.1259 9.21556,9.21557 z" /></g><g
               transform="matrix(0.5,0,0,0.5,82.133,13.066)"
               id="g198"><g
                 id="g200"><g
                   transform="translate(-108.693,-53.799)"
                   id="g202"><text
                     id="text206"
                     style="font-variant:normal;font-weight:normal;font-size:9.96259975px;font-family:CMSY10;-inkscape-font-specification:CMSY10;writing-mode:lr-tb;fill:#000000;fill-opacity:1;fill-rule:nonzero;stroke:none"
                     transform="matrix(1,0,0,-1,108.693,53.799)"><tspan
                       id="tspan204"
                       y="0"
                       x="0 4.4313645 8.852766">···</tspan></text>
<g
                     transform="translate(108.693,53.799)"
                     id="g208" /></g></g><g
                 transform="translate(-82.133,-13.066)"
                 id="g210" /></g></g><g
             id="g212"><g
               id="g214"><path
                 id="path216"
                 style="fill:none;stroke:#000000;stroke-width:0.3985;stroke-linecap:butt;stroke-linejoin:miter;stroke-miterlimit:10;stroke-dasharray:2.98883, 2.98883;stroke-dashoffset:0;stroke-opacity:1"
                 d="m 94.25598,-14.17339 c 0,5.08967 -4.12588,9.21557 -9.21556,9.21557 -5.08966,0 -9.21556,-4.1259 -9.21556,-9.21557 0,-5.08967 4.1259,-9.21556 9.21556,-9.21556 5.08968,0 9.21556,4.12589 9.21556,9.21556 z" /></g><g
               transform="matrix(0.5,0,0,0.5,82.133,-15.28)"
               id="g218"><g
                 id="g220"><g
                   transform="translate(-108.693,-25.453)"
                   id="g222"><text
                     id="text226"
                     style="font-variant:normal;font-weight:normal;font-size:9.96259975px;font-family:CMSY10;-inkscape-font-specification:CMSY10;writing-mode:lr-tb;fill:#000000;fill-opacity:1;fill-rule:nonzero;stroke:none"
                     transform="matrix(1,0,0,-1,108.693,25.453)"><tspan
                       id="tspan224"
                       y="0"
                       x="0 4.4313645 8.852766">···</tspan></text>
<g
                     transform="translate(108.693,25.453)"
                     id="g228" /></g></g><g
                 transform="translate(-82.133,15.28)"
                 id="g230" /></g></g><g
             id="g232"><g
               id="g234"><path
                 id="path236"
                 style="fill:none;stroke:#000000;stroke-width:0.3985;stroke-linecap:butt;stroke-linejoin:miter;stroke-miterlimit:10;stroke-dasharray:2.98883, 2.98883;stroke-dashoffset:0;stroke-opacity:1"
                 d="m 122.6028,14.17339 c 0,5.08967 -4.1259,9.21556 -9.21556,9.21556 -5.08968,0 -9.21556,-4.12589 -9.21556,-9.21556 0,-5.08967 4.12588,-9.21557 9.21556,-9.21557 5.08966,0 9.21556,4.1259 9.21556,9.21557 z" /></g><g
               transform="matrix(0.5,0,0,0.5,110.488,12.845)"
               id="g238"><g
                 id="g240"><g
                   transform="translate(-137.048,-53.578)"
                   id="g242"><text
                     id="text246"
                     style="font-variant:normal;font-weight:normal;font-size:9.96259975px;font-family:CMMI10;-inkscape-font-specification:CMMI10;writing-mode:lr-tb;fill:#000000;fill-opacity:1;fill-rule:nonzero;stroke:none"
                     transform="matrix(1,0,0,-1,137.048,53.578)"><tspan
                       id="tspan244"
                       y="0"
                       x="0">C</tspan></text>
<text
                     id="text250"
                     style="font-variant:normal;font-weight:normal;font-size:6.97380018px;font-family:CMR7;-inkscape-font-specification:CMR7;writing-mode:lr-tb;fill:#000000;fill-opacity:1;fill-rule:nonzero;stroke:none"
                     transform="matrix(1,0,0,-1,144.169,52.084)"><tspan
                       id="tspan248"
                       y="0"
                       x="0">2</tspan></text>
<g
                     transform="translate(137.048,53.578)"
                     id="g252" /></g></g><g
                 transform="translate(-110.488,-12.845)"
                 id="g254" /></g></g><g
             id="g256"><g
               id="g258"><path
                 id="path260"
                 style="fill:none;stroke:#000000;stroke-width:0.3985;stroke-linecap:butt;stroke-linejoin:miter;stroke-miterlimit:10;stroke-dasharray:2.98883, 2.98883;stroke-dashoffset:0;stroke-opacity:1"
                 d="m 122.6028,-14.17339 c 0,5.08967 -4.1259,9.21557 -9.21556,9.21557 -5.08968,0 -9.21556,-4.1259 -9.21556,-9.21557 0,-5.08967 4.12588,-9.21556 9.21556,-9.21556 5.08966,0 9.21556,4.12589 9.21556,9.21556 z" /></g><g
               transform="matrix(0.5,0,0,0.5,105.479,-15.294)"
               id="g262"><g
                 id="g264"><g
                   transform="translate(-132.039,-25.439)"
                   id="g266"><text
                     id="text270"
                     style="font-variant:normal;font-weight:normal;font-size:9.96259975px;font-family:CMMI10;-inkscape-font-specification:CMMI10;writing-mode:lr-tb;fill:#000000;fill-opacity:1;fill-rule:nonzero;stroke:none"
                     transform="matrix(1,0,0,-1,132.039,25.439)"><tspan
                       id="tspan268"
                       y="0"
                       x="0">C</tspan></text>
<text
                     id="text274"
                     style="font-variant:normal;font-weight:normal;font-size:6.97380018px;font-family:CMMI7;-inkscape-font-specification:CMMI7;writing-mode:lr-tb;fill:#000000;fill-opacity:1;fill-rule:nonzero;stroke:none"
                     transform="matrix(1,0,0,-1,139.16,23.945)"><tspan
                       id="tspan272"
                       y="0"
                       x="0">e</tspan></text>
<text
                     id="text278"
                     style="font-variant:normal;font-weight:normal;font-size:6.97380018px;font-family:CMR7;-inkscape-font-specification:CMR7;writing-mode:lr-tb;fill:#000000;fill-opacity:1;fill-rule:nonzero;stroke:none"
                     transform="matrix(1,0,0,-1,142.94,23.945)"><tspan
                       id="tspan276"
                       y="0"
                       x="0">+</tspan></text>
<text
                     id="text282"
                     style="font-variant:normal;font-weight:normal;font-size:6.97380018px;font-family:CMMI7;-inkscape-font-specification:CMMI7;writing-mode:lr-tb;fill:#000000;fill-opacity:1;fill-rule:nonzero;stroke:none"
                     transform="matrix(1,0,0,-1,149.056,23.945)"><tspan
                       id="tspan280"
                       y="0"
                       x="0">r</tspan></text>
<text
                     id="text286"
                     style="font-variant:normal;font-weight:normal;font-size:6.97380018px;font-family:CMSY7;-inkscape-font-specification:CMSY7;writing-mode:lr-tb;fill:#000000;fill-opacity:1;fill-rule:nonzero;stroke:none"
                     transform="matrix(1,0,0,-1,152.969,23.945)"><tspan
                       id="tspan284"
                       y="0"
                       x="0">−</tspan></text>
<text
                     id="text290"
                     style="font-variant:normal;font-weight:normal;font-size:6.97380018px;font-family:CMR7;-inkscape-font-specification:CMR7;writing-mode:lr-tb;fill:#000000;fill-opacity:1;fill-rule:nonzero;stroke:none"
                     transform="matrix(1,0,0,-1,159.196,23.945)"><tspan
                       id="tspan288"
                       y="0"
                       x="0">1</tspan></text>
<g
                     transform="translate(132.039,25.439)"
                     id="g292" /></g></g><g
                 transform="translate(-105.479,15.294)"
                 id="g294" /></g></g><g
             id="g296"><path
               id="path298"
               style="fill:none;stroke:#000000;stroke-width:0.3985;stroke-linecap:butt;stroke-linejoin:miter;stroke-miterlimit:10;stroke-dasharray:none;stroke-opacity:1"
               d="M 121.71838,10.00789 132.99303,4.37044" /><g
               transform="matrix(0.89438,-0.4472,0.4472,0.89438,132.99301,4.37044)"
               id="g300"><g
                 id="g302"><path
                   id="path304"
                   style="fill:none;stroke:#000000;stroke-width:0.31878999;stroke-linecap:round;stroke-linejoin:round;stroke-miterlimit:10;stroke-dasharray:none;stroke-opacity:1"
                   d="M -1.19551,1.59401 C -1.09587,0.99626 0,0.09961 0.29886,0 0,-0.09961 -1.09587,-0.99626 -1.19551,-1.59401" /></g></g></g><g
             id="g306"><path
               id="path308"
               style="fill:none;stroke:#000000;stroke-width:0.3985;stroke-linecap:butt;stroke-linejoin:miter;stroke-miterlimit:10;stroke-dasharray:none;stroke-opacity:1"
               d="m 110.97658,23.17119 c -3.89295,14.52849 8.71426,14.52849 5.19774,1.40498" /><g
               transform="matrix(-0.25879,-0.96593,0.96593,-0.25879,116.17432,24.57617)"
               id="g310"><g
                 id="g312"><path
                   id="path314"
                   style="fill:none;stroke:#000000;stroke-width:0.31878999;stroke-linecap:round;stroke-linejoin:round;stroke-miterlimit:10;stroke-dasharray:none;stroke-opacity:1"
                   d="M -1.19551,1.59401 C -1.09587,0.99626 0,0.09961 0.29886,0 0,-0.09961 -1.09587,-0.99626 -1.19551,-1.59401" /></g></g></g><g
             id="g316"><path
               id="path318"
               style="fill:none;stroke:#000000;stroke-width:0.3985;stroke-linecap:butt;stroke-linejoin:miter;stroke-miterlimit:10;stroke-dasharray:none;stroke-opacity:1"
               d="m 150.73169,2.41064 c 14.52862,3.89295 14.52862,-8.71423 1.40497,-5.1977" /><g
               transform="matrix(-0.96593,0.25879,-0.25879,-0.96593,152.13666,-2.78706)"
               id="g320"><g
                 id="g322"><path
                   id="path324"
                   style="fill:none;stroke:#000000;stroke-width:0.31878999;stroke-linecap:round;stroke-linejoin:round;stroke-miterlimit:10;stroke-dasharray:none;stroke-opacity:1"
                   d="M -1.19551,1.59401 C -1.09587,0.99626 0,0.09961 0.29886,0 0,-0.09961 -1.09587,-0.99626 -1.19551,-1.59401" /></g></g></g><g
             id="g326"><path
               id="path328"
               style="fill:none;stroke:#000000;stroke-width:0.3985;stroke-linecap:butt;stroke-linejoin:miter;stroke-miterlimit:10;stroke-dasharray:none;stroke-opacity:1"
               d="m 82.62976,23.17119 c -3.89293,14.52849 8.71426,14.52849 5.19775,1.40498" /><g
               transform="matrix(-0.25879,-0.96593,0.96593,-0.25879,87.82751,24.57617)"
               id="g330"><g
                 id="g332"><path
                   id="path334"
                   style="fill:none;stroke:#000000;stroke-width:0.31878999;stroke-linecap:round;stroke-linejoin:round;stroke-miterlimit:10;stroke-dasharray:none;stroke-opacity:1"
                   d="M -1.19551,1.59401 C -1.09587,0.99626 0,0.09961 0.29886,0 0,-0.09961 -1.09587,-0.99626 -1.19551,-1.59401" /></g></g></g><g
             id="g336"><path
               id="path338"
               style="fill:none;stroke:#000000;stroke-width:0.3985;stroke-linecap:butt;stroke-linejoin:miter;stroke-miterlimit:10;stroke-dasharray:none;stroke-opacity:1"
               d="m 54.28296,23.17117 c -3.89295,14.52849 8.71426,14.52849 5.19774,1.40499" /><g
               transform="matrix(-0.25879,-0.96593,0.96593,-0.25879,59.4807,24.57616)"
               id="g340"><g
                 id="g342"><path
                   id="path344"
                   style="fill:none;stroke:#000000;stroke-width:0.31878999;stroke-linecap:round;stroke-linejoin:round;stroke-miterlimit:10;stroke-dasharray:none;stroke-opacity:1"
                   d="M -1.19551,1.59401 C -1.09587,0.99626 0,0.09961 0.29886,0 0,-0.09961 -1.09587,-0.99626 -1.19551,-1.59401" /></g></g></g><g
             id="g346"><path
               id="path348"
               style="fill:none;stroke:#000000;stroke-width:0.3985;stroke-linecap:butt;stroke-linejoin:miter;stroke-miterlimit:10;stroke-dasharray:none;stroke-opacity:1"
               d="m 25.93614,23.17119 c -3.89293,14.52849 8.71426,14.52849 5.19774,1.40498" /><g
               transform="matrix(-0.25879,-0.96593,0.96593,-0.25879,31.13388,24.57617)"
               id="g350"><g
                 id="g352"><path
                   id="path354"
                   style="fill:none;stroke:#000000;stroke-width:0.31878999;stroke-linecap:round;stroke-linejoin:round;stroke-miterlimit:10;stroke-dasharray:none;stroke-opacity:1"
                   d="M -1.19551,1.59401 C -1.09587,0.99626 0,0.09961 0.29886,0 0,-0.09961 -1.09587,-0.99626 -1.19551,-1.59401" /></g></g></g><g
             id="g356"><path
               id="path358"
               style="fill:none;stroke:#000000;stroke-width:0.3985;stroke-linecap:butt;stroke-linejoin:miter;stroke-miterlimit:10;stroke-dasharray:none;stroke-opacity:1"
               d="m -8.99763,-2.41064 c -14.52865,-3.89295 -14.52865,8.71423 -1.40499,5.1977" /><g
               transform="matrix(0.96593,-0.25879,0.25879,0.96593,-10.40262,2.78706)"
               id="g360"><g
                 id="g362"><path
                   id="path364"
                   style="fill:none;stroke:#000000;stroke-width:0.31878999;stroke-linecap:round;stroke-linejoin:round;stroke-miterlimit:10;stroke-dasharray:none;stroke-opacity:1"
                   d="M -1.19551,1.59401 C -1.09587,0.99626 0,0.09961 0.29886,0 0,-0.09961 -1.09587,-0.99626 -1.19551,-1.59401" /></g></g></g><g
             id="g366"><path
               id="path368"
               style="fill:none;stroke:#000000;stroke-width:0.3985;stroke-linecap:butt;stroke-linejoin:miter;stroke-miterlimit:10;stroke-dasharray:none;stroke-opacity:1"
               d="m 30.75746,-23.17104 c 3.89293,-14.52862 -8.71426,-14.52862 -5.19774,-1.40512" /><g
               transform="matrix(0.25879,0.96593,-0.96593,0.25879,25.55972,-24.57616)"
               id="g370"><g
                 id="g372"><path
                   id="path374"
                   style="fill:none;stroke:#000000;stroke-width:0.31878999;stroke-linecap:round;stroke-linejoin:round;stroke-miterlimit:10;stroke-dasharray:none;stroke-opacity:1"
                   d="M -1.19551,1.59401 C -1.09587,0.99626 0,0.09961 0.29886,0 0,-0.09961 -1.09587,-0.99626 -1.19551,-1.59401" /></g></g></g><g
             id="g376"><path
               id="path378"
               style="fill:none;stroke:#000000;stroke-width:0.3985;stroke-linecap:butt;stroke-linejoin:miter;stroke-miterlimit:10;stroke-dasharray:none;stroke-opacity:1"
               d="M 59.10426,-23.17104 C 62.99721,-37.69966 50.39,-37.69966 53.90652,-24.57616" /><g
               transform="matrix(0.25879,0.96593,-0.96593,0.25879,53.90652,-24.57616)"
               id="g380"><g
                 id="g382"><path
                   id="path384"
                   style="fill:none;stroke:#000000;stroke-width:0.31878999;stroke-linecap:round;stroke-linejoin:round;stroke-miterlimit:10;stroke-dasharray:none;stroke-opacity:1"
                   d="M -1.19551,1.59401 C -1.09587,0.99626 0,0.09961 0.29886,0 0,-0.09961 -1.09587,-0.99626 -1.19551,-1.59401" /></g></g></g><g
             id="g386"><path
               id="path388"
               style="fill:none;stroke:#000000;stroke-width:0.3985;stroke-linecap:butt;stroke-linejoin:miter;stroke-miterlimit:10;stroke-dasharray:none;stroke-opacity:1"
               d="m 87.4511,-23.17117 c 3.89292,-14.52849 -8.71427,-14.52849 -5.19774,-1.40499" /><g
               transform="matrix(0.25879,0.96593,-0.96593,0.25879,82.25336,-24.57616)"
               id="g390"><g
                 id="g392"><path
                   id="path394"
                   style="fill:none;stroke:#000000;stroke-width:0.31878999;stroke-linecap:round;stroke-linejoin:round;stroke-miterlimit:10;stroke-dasharray:none;stroke-opacity:1"
                   d="M -1.19551,1.59401 C -1.09587,0.99626 0,0.09961 0.29886,0 0,-0.09961 -1.09587,-0.99626 -1.19551,-1.59401" /></g></g></g><g
             id="g396"><path
               id="path398"
               style="fill:none;stroke:#000000;stroke-width:0.3985;stroke-linecap:butt;stroke-linejoin:miter;stroke-miterlimit:10;stroke-dasharray:none;stroke-opacity:1"
               d="m 115.79788,-23.17104 c 3.89295,-14.52862 -8.71426,-14.52862 -5.19774,-1.40512" /><g
               transform="matrix(0.25879,0.96593,-0.96593,0.25879,110.60014,-24.57616)"
               id="g400"><g
                 id="g402"><path
                   id="path404"
                   style="fill:none;stroke:#000000;stroke-width:0.31878999;stroke-linecap:round;stroke-linejoin:round;stroke-miterlimit:10;stroke-dasharray:none;stroke-opacity:1"
                   d="M -1.19551,1.59401 C -1.09587,0.99626 0,0.09961 0.29886,0 0,-0.09961 -1.09587,-0.99626 -1.19551,-1.59401" /></g></g></g><g
             id="g406"><path
               id="path408"
               style="fill:none;stroke:#000000;stroke-width:0.3985;stroke-linecap:butt;stroke-linejoin:miter;stroke-miterlimit:10;stroke-dasharray:none;stroke-opacity:1"
               d="m 121.71838,-10.00787 11.27465,5.63745" /><g
               transform="matrix(0.89436,0.44717,-0.44717,0.89436,132.99301,-4.37044)"
               id="g410"><g
                 id="g412"><path
                   id="path414"
                   style="fill:none;stroke:#000000;stroke-width:0.31878999;stroke-linecap:round;stroke-linejoin:round;stroke-miterlimit:10;stroke-dasharray:none;stroke-opacity:1"
                   d="M -1.19551,1.59401 C -1.09587,0.99626 0,0.09961 0.29886,0 0,-0.09961 -1.09587,-0.99626 -1.19551,-1.59401" /></g></g></g><g
             id="g416"><path
               id="path418"
               style="fill:none;stroke:#000000;stroke-width:0.3985;stroke-linecap:butt;stroke-linejoin:miter;stroke-miterlimit:10;stroke-dasharray:none;stroke-opacity:1"
               d="m 94.35562,-14.17339 h 9.25815" /><g
               transform="translate(103.61377,-14.17339)"
               id="g420"><g
                 id="g422"><path
                   id="path424"
                   style="fill:none;stroke:#000000;stroke-width:0.31878999;stroke-linecap:round;stroke-linejoin:round;stroke-miterlimit:10;stroke-dasharray:none;stroke-opacity:1"
                   d="M -1.19551,1.59401 C -1.09587,0.99626 0,0.09961 0.29886,0 0,-0.09961 -1.09587,-0.99626 -1.19551,-1.59401" /></g></g></g><g
             id="g426"><path
               id="path428"
               style="fill:none;stroke:#000000;stroke-width:0.3985;stroke-linecap:butt;stroke-linejoin:miter;stroke-miterlimit:10;stroke-dasharray:none;stroke-opacity:1"
               d="m 66.00879,-14.17339 h 9.25818" /><g
               transform="translate(75.26697,-14.17339)"
               id="g430"><g
                 id="g432"><path
                   id="path434"
                   style="fill:none;stroke:#000000;stroke-width:0.31878999;stroke-linecap:round;stroke-linejoin:round;stroke-miterlimit:10;stroke-dasharray:none;stroke-opacity:1"
                   d="M -1.19551,1.59401 C -1.09587,0.99626 0,0.09961 0.29886,0 0,-0.09961 -1.09587,-0.99626 -1.19551,-1.59401" /></g></g></g><g
             id="g436"><path
               id="path438"
               style="fill:none;stroke:#000000;stroke-width:0.3985;stroke-linecap:butt;stroke-linejoin:miter;stroke-miterlimit:10;stroke-dasharray:none;stroke-opacity:1"
               d="m 37.66199,-14.17339 h 9.25816" /><g
               transform="translate(46.92015,-14.17339)"
               id="g440"><g
                 id="g442"><path
                   id="path444"
                   style="fill:none;stroke:#000000;stroke-width:0.31878999;stroke-linecap:round;stroke-linejoin:round;stroke-miterlimit:10;stroke-dasharray:none;stroke-opacity:1"
                   d="M -1.19551,1.59401 C -1.09587,0.99626 0,0.09961 0.29886,0 0,-0.09961 -1.09587,-0.99626 -1.19551,-1.59401" /></g></g></g><g
             id="g446"><path
               id="path448"
               style="fill:none;stroke:#000000;stroke-width:0.3985;stroke-linecap:butt;stroke-linejoin:miter;stroke-miterlimit:10;stroke-dasharray:none;stroke-opacity:1"
               d="M 8.33115,-4.1655 19.60579,-9.80296" /><g
               transform="matrix(0.89436,-0.44717,0.44717,0.89436,19.60577,-9.80295)"
               id="g450"><g
                 id="g452"><path
                   id="path454"
                   style="fill:none;stroke:#000000;stroke-width:0.31878999;stroke-linecap:round;stroke-linejoin:round;stroke-miterlimit:10;stroke-dasharray:none;stroke-opacity:1"
                   d="M -1.19551,1.59401 C -1.09587,0.99626 0,0.09961 0.29886,0 0,-0.09961 -1.09587,-0.99626 -1.19551,-1.59401" /></g></g></g><g
             id="g456"><path
               id="path458"
               style="fill:none;stroke:#000000;stroke-width:0.3985;stroke-linecap:butt;stroke-linejoin:miter;stroke-miterlimit:10;stroke-dasharray:none;stroke-opacity:1"
               d="M 8.33115,4.1655 19.6058,9.80296" /><g
               transform="matrix(0.89438,0.4472,-0.4472,0.89438,19.60579,9.80296)"
               id="g460"><g
                 id="g462"><path
                   id="path464"
                   style="fill:none;stroke:#000000;stroke-width:0.31878999;stroke-linecap:round;stroke-linejoin:round;stroke-miterlimit:10;stroke-dasharray:none;stroke-opacity:1"
                   d="M -1.19551,1.59401 C -1.09587,0.99626 0,0.09961 0.29886,0 0,-0.09961 -1.09587,-0.99626 -1.19551,-1.59401" /></g></g></g><g
             id="g466"><path
               id="path468"
               style="fill:none;stroke:#000000;stroke-width:0.3985;stroke-linecap:butt;stroke-linejoin:miter;stroke-miterlimit:10;stroke-dasharray:none;stroke-opacity:1"
               d="m 37.662,14.17339 h 9.25815" /><g
               transform="translate(46.92015,14.17339)"
               id="g470"><g
                 id="g472"><path
                   id="path474"
                   style="fill:none;stroke:#000000;stroke-width:0.31878999;stroke-linecap:round;stroke-linejoin:round;stroke-miterlimit:10;stroke-dasharray:none;stroke-opacity:1"
                   d="M -1.19551,1.59401 C -1.09587,0.99626 0,0.09961 0.29886,0 0,-0.09961 -1.09587,-0.99626 -1.19551,-1.59401" /></g></g></g><g
             id="g476"><path
               id="path478"
               style="fill:none;stroke:#000000;stroke-width:0.3985;stroke-linecap:butt;stroke-linejoin:miter;stroke-miterlimit:10;stroke-dasharray:none;stroke-opacity:1"
               d="m 66.0088,14.17339 h 9.25817" /><g
               transform="translate(75.26697,14.17339)"
               id="g480"><g
                 id="g482"><path
                   id="path484"
                   style="fill:none;stroke:#000000;stroke-width:0.31878999;stroke-linecap:round;stroke-linejoin:round;stroke-miterlimit:10;stroke-dasharray:none;stroke-opacity:1"
                   d="M -1.19551,1.59401 C -1.09587,0.99626 0,0.09961 0.29886,0 0,-0.09961 -1.09587,-0.99626 -1.19551,-1.59401" /></g></g></g><g
             id="g486"><path
               id="path488"
               style="fill:none;stroke:#000000;stroke-width:0.3985;stroke-linecap:butt;stroke-linejoin:miter;stroke-miterlimit:10;stroke-dasharray:none;stroke-opacity:1"
               d="m 94.35562,14.17339 h 9.25815" /><g
               transform="translate(103.61377,14.17339)"
               id="g490"><g
                 id="g492"><path
                   id="path494"
                   style="fill:none;stroke:#000000;stroke-width:0.31878999;stroke-linecap:round;stroke-linejoin:round;stroke-miterlimit:10;stroke-dasharray:none;stroke-opacity:1"
                   d="M -1.19551,1.59401 C -1.09587,0.99626 0,0.09961 0.29886,0 0,-0.09961 -1.09587,-0.99626 -1.19551,-1.59401" /></g></g></g><g
             id="g496"><g
               transform="matrix(0.5,0,0,0.5,65.193,-1.245)"
               id="g498"><g
                 id="g500"><g
                   transform="translate(-91.753,-39.488)"
                   id="g502"><text
                     id="text506"
                     style="font-variant:normal;font-weight:normal;font-size:9.96259975px;font-family:CMMI10;-inkscape-font-specification:CMMI10;writing-mode:lr-tb;fill:#000000;fill-opacity:1;fill-rule:nonzero;stroke:none"
                     transform="matrix(1,0,0,-1,91.753,39.488)"><tspan
                       id="tspan504"
                       y="0"
                       x="0 7.5337181 18.052231">r&gt;e</tspan></text>
<g
                     transform="translate(91.753,39.488)"
                     id="g508" /></g></g><g
                 transform="translate(-65.193,1.245)"
                 id="g510" /></g></g></g></g></g></g></svg>