<?xml version="1.0" encoding="UTF-8" standalone="no"?>
<svg
   xmlns:dc="http://purl.org/dc/elements/1.1/"
   xmlns:cc="http://creativecommons.org/ns#"
   xmlns:rdf="http://www.w3.org/1999/02/22-rdf-syntax-ns#"
   xmlns:svg="http://www.w3.org/2000/svg"
   xmlns="http://www.w3.org/2000/svg"
   version="1.1"
   id="svg2"
   xml:space="preserve"
   width="289.67468"
   height="74.919998"
   viewBox="0 0 289.67468 74.919998"><metadata
     id="metadata8"><rdf:RDF><cc:Work
         rdf:about=""><dc:format>image/svg+xml</dc:format><dc:type
           rdf:resource="http://purl.org/dc/dcmitype/StillImage" /></cc:Work></rdf:RDF></metadata><defs
     id="defs6"><clipPath
       clipPathUnits="userSpaceOnUse"
       id="clipPath162"><path
         d="M 0,0 H 194.27412 V 161.39575 H 0 Z"
         id="path160" /></clipPath><pattern
       patternTransform="translate(-9.733,-4.638)"
       patternUnits="userSpaceOnUse"
       x="0"
       y="0"
       width="4.98138"
       height="4.98138"
       id="pattern202"><g
         id="g200"><path
           d="M 0,0 3.08846,3.08846"
           style="fill:none;stroke:#000000;stroke-opacity:1;stroke-width:0.3985;stroke-linecap:butt;stroke-linejoin:miter;stroke-miterlimit:10;stroke-dasharray:none"
           id="path198" /></g></pattern><pattern
       patternTransform="translate(-9.733,-4.638)"
       patternUnits="userSpaceOnUse"
       x="0"
       y="0"
       width="4.98138"
       height="4.98138"
       id="pattern212"><g
         id="g210"><path
           d="M 0,0 3.08846,3.08846"
           style="fill:none;stroke:#000000;stroke-opacity:1;stroke-width:0.3985;stroke-linecap:butt;stroke-linejoin:miter;stroke-miterlimit:10;stroke-dasharray:none"
           id="path208" /></g></pattern><pattern
       patternTransform="translate(-9.733,-4.638)"
       patternUnits="userSpaceOnUse"
       x="0"
       y="0"
       width="4.98138"
       height="4.98138"
       id="pattern222"><g
         id="g220"><path
           d="M 0,0 3.08846,3.08846"
           style="fill:none;stroke:#000000;stroke-opacity:1;stroke-width:0.3985;stroke-linecap:butt;stroke-linejoin:miter;stroke-miterlimit:10;stroke-dasharray:none"
           id="path218" /></g></pattern><clipPath
       clipPathUnits="userSpaceOnUse"
       id="clipPath908"><path
         d="M 0,0 H 194.26797 V 161.39575 H 0 Z"
         id="path906" /></clipPath></defs><g
     id="g10"
     transform="matrix(1.3333333,0,0,-1.3333333,0,74.92)"><g
       id="g12"
       transform="translate(9.733,4.638)"><g
         id="g14"><g
           id="g16" /><g
           id="g18"><g
             id="g20" /><g
             id="g22" /><g
             id="g24"
             transform="scale(0.3)"><g
               id="g26" /></g><g
             id="g28" /><g
             id="g30" /><g
             id="g32" /><g
             id="g34" /><g
             id="g36"
             transform="matrix(0.3,0,0,0.3,-0.119,-0.573)"><g
               id="g38"
               transform="translate(0.398,1.912)"><g
                 id="g40"><g
                   id="g42" /><g
                   id="g44"><g
                     id="g46"><g
                       id="g48"><g
                         id="g50"><path
                           d="M 14.42628,5.55925 V 9.81174 M 52.89642,5.55925 V 9.81174 M 72.13148,5.55925 v 4.25249 m 76.94025,-4.25249 v 4.25249 m 28.8526,-4.25249 v 4.25249"
                           style="fill:none;stroke:#808080;stroke-width:0.19925;stroke-linecap:butt;stroke-linejoin:miter;stroke-miterlimit:10;stroke-dasharray:none;stroke-opacity:1"
                           id="path52" /></g></g><g
                       id="g54"><g
                         id="g56" /></g><g
                       id="g58"><path
                         d="M 0.797,7.6855 H 194.27412"
                         style="fill:none;stroke:#000000;stroke-width:0.79701;stroke-linecap:butt;stroke-linejoin:miter;stroke-miterlimit:10;stroke-dasharray:none;stroke-opacity:1"
                         id="path60" /><g
                         id="g62"
                         transform="rotate(180,0.19925,3.84275)"><g
                           id="g64"><path
                             d="M -2.55046,3.11095 C -2.0845,1.24435 -1.04614,0.36295 0,0 -1.04614,-0.36295 -2.0845,-1.24435 -2.55046,-3.11095"
                             style="fill:none;stroke:#000000;stroke-width:0.79701;stroke-linecap:round;stroke-linejoin:round;stroke-miterlimit:10;stroke-dasharray:none;stroke-opacity:1"
                             id="path66" /></g></g></g><g
                       id="g68"><path
                         d="M 192.35063,0 V 160.59874"
                         style="fill:none;stroke:#000000;stroke-width:0.79701;stroke-linecap:butt;stroke-linejoin:miter;stroke-miterlimit:10;stroke-dasharray:none;stroke-opacity:1"
                         id="path70" /><g
                         id="g72"
                         transform="rotate(90,15.676695,176.67394)"><g
                           id="g74"><path
                             d="M -2.55046,3.11095 C -2.0845,1.24435 -1.04614,0.36295 0,0 -1.04614,-0.36295 -2.0845,-1.24435 -2.55046,-3.11095"
                             style="fill:none;stroke:#000000;stroke-width:0.79701;stroke-linecap:round;stroke-linejoin:round;stroke-miterlimit:10;stroke-dasharray:none;stroke-opacity:1"
                             id="path76" /></g></g></g><g
                       id="g78"><g
                         id="g80"
                         transform="translate(14.427,1.724)"><g
                           id="g82" /><g
                           id="g84"
                           transform="translate(-14.427,-1.724)" /></g></g><g
                       id="g86"><g
                         id="g88"
                         transform="translate(52.896,1.724)"><g
                           id="g90" /><g
                           id="g92"
                           transform="translate(-52.896,-1.724)" /></g></g><g
                       id="g94"><g
                         id="g96"
                         transform="translate(72.131,1.724)"><g
                           id="g98" /><g
                           id="g100"
                           transform="translate(-72.131,-1.724)" /></g></g><g
                       id="g102"><g
                         id="g104"
                         transform="translate(149.07,1.724)"><g
                           id="g106" /><g
                           id="g108"
                           transform="translate(-149.07,-1.724)" /></g></g><g
                       id="g110"><g
                         id="g112"
                         transform="translate(177.922,1.724)"><g
                           id="g114" /><g
                           id="g116"
                           transform="translate(-177.922,-1.724)" /></g></g><g
                       id="g118"><g
                         id="g120"
                         transform="translate(194.058,26.891)"><g
                           id="g122" /><g
                           id="g124"
                           transform="translate(-194.058,-26.891)" /></g></g><g
                       id="g126"><g
                         id="g128"
                         transform="translate(194.058,57.633)"><g
                           id="g130" /><g
                           id="g132"
                           transform="translate(-194.058,-57.633)" /></g></g><g
                       id="g134"><g
                         id="g136"
                         transform="translate(194.058,88.375)"><g
                           id="g138" /><g
                           id="g140"
                           transform="translate(-194.058,-88.375)" /></g></g><g
                       id="g142"><g
                         id="g144"
                         transform="translate(194.058,119.116)"><g
                           id="g146" /><g
                           id="g148"
                           transform="translate(-194.058,-119.116)" /></g></g><g
                       id="g150"><g
                         id="g152"
                         transform="translate(194.058,149.858)"><g
                           id="g154" /><g
                           id="g156"
                           transform="translate(-194.058,-149.858)" /></g></g><g
                       id="g158"
                       clip-path="url(#clipPath162)"><g
                         id="g164"><g
                           id="g166"
                           transform="translate(90.596,17.215)"><g
                             id="g168" /><g
                             id="g170"
                             transform="translate(-90.596,-17.215)" /></g></g><g
                         id="g172"><g
                           id="g174"
                           transform="translate(32.892,17.215)"><g
                             id="g176" /><g
                             id="g178"
                             transform="translate(-32.892,-17.215)" /></g></g><g
                         id="g180"><g
                           id="g182"
                           transform="translate(70.207,17.215)"><g
                             id="g184" /><g
                             id="g186"
                             transform="translate(-70.207,-17.215)" /></g></g><g
                         id="g188"><g
                           id="g190"
                           transform="translate(167.439,17.215)"><g
                             id="g192" /><g
                             id="g194"
                             transform="translate(-167.439,-17.215)" /></g></g><g
                         id="g196"><path
                           d="m 31.73785,146.02472 h 19.23507 l 2.88525,-32.27915 H 33.66135 l -1.9235,32.27915"
                           style="fill:url(#pattern202);fill-opacity:1;fill-rule:nonzero;stroke:none"
                           id="path204" /></g><g
                         id="g206"><path
                           d="m 89.44304,84.54062 h 58.66695 L 150.0335,52.26147 H 91.36655 l -1.92351,32.27915"
                           style="fill:url(#pattern212);fill-opacity:1;fill-rule:nonzero;stroke:none"
                           id="path214" /></g><g
                         id="g216"><path
                           d="m 167.34505,53.79858 h 8.65577 l 2.88526,-32.27916 h -9.61753 l -3.84701,32.27916"
                           style="fill:url(#pattern222);fill-opacity:1;fill-rule:nonzero;stroke:none"
                           id="path224" /></g><g
                         id="g226"><g
                           id="g228"
                           transform="translate(15.196,34.584)"><g
                             id="g230" /><g
                             id="g232"
                             transform="translate(-15.196,-34.584)" /></g></g><g
                         id="g234"><g
                           id="g236"
                           transform="translate(47.703,34.584)"><g
                             id="g238" /><g
                             id="g240"
                             transform="translate(-47.703,-34.584)" /></g></g><g
                         id="g242"><g
                           id="g244"
                           transform="translate(70.207,34.584)"><g
                             id="g246" /><g
                             id="g248"
                             transform="translate(-70.207,-34.584)" /></g></g><g
                         id="g250"><g
                           id="g252"
                           transform="translate(149.647,34.584)"><g
                             id="g254" /><g
                             id="g256"
                             transform="translate(-149.647,-34.584)" /></g></g><path
                         d="m 14.42628,176.76677 c 0.74718,1.49443 2.4907,2.49069 4.98139,2.49069 h 9.27229 c 2.49069,0 4.23421,0.99626 4.98139,2.49069 0.74717,-1.49443 2.49069,-2.49069 4.98138,-2.49069 h 9.27231 c 2.49069,0 4.23421,-0.99626 4.98138,-2.49069"
                         style="fill:none;stroke:#000000;stroke-width:0.3985;stroke-linecap:butt;stroke-linejoin:miter;stroke-miterlimit:10;stroke-dasharray:none;stroke-opacity:1"
                         id="path258" /><g
                         id="g260"><g
                           id="g262" /><g
                           id="g264"
                           transform="translate(18.824,184.585)"><g
                             id="g266"><g
                               id="g268"
                               transform="translate(-28.836,-190.562)"><text
                                 transform="matrix(1,0,0,-1,28.836,190.562)"
                                 style="font-variant:normal;font-weight:normal;font-size:11.9552px;font-family:CMMI12;-inkscape-font-specification:CMMI12;writing-mode:lr-tb;fill:#000000;fill-opacity:1;fill-rule:nonzero;stroke:none"
                                 id="text272"><tspan
                                   x="0"
                                   y="0"
                                   id="tspan270">d</tspan></text><text
                                 transform="matrix(1,0,0,-1,34.919,188.768)"
                                 style="font-variant:normal;font-weight:normal;font-size:7.9701px;font-family:CMR8;-inkscape-font-specification:CMR8;writing-mode:lr-tb;fill:#000000;fill-opacity:1;fill-rule:nonzero;stroke:none"
                                 id="text276"><tspan
                                   x="0"
                                   y="0"
                                   id="tspan274">4</tspan></text><text
                                 transform="matrix(1,0,0,-1,39.651,190.562)"
                                 style="font-variant:normal;font-weight:normal;font-size:11.9552px;font-family:CMR12;-inkscape-font-specification:CMR12;writing-mode:lr-tb;fill:#000000;fill-opacity:1;fill-rule:nonzero;stroke:none"
                                 id="text280"><tspan
                                   x="0 4.5525403 10.405807"
                                   y="0"
                                   id="tspan278">(0)</tspan></text><g
                                 id="g282"
                                 transform="translate(28.836,190.562)" /></g></g><g
                             id="g284"
                             transform="translate(-18.824,-184.585)" /></g></g><path
                         d="m 52.89642,176.76677 c 0.72127,1.49443 2.40438,2.49069 4.80876,2.49069 v 0 c 2.40439,0 4.0875,0.99626 4.80877,2.49069 0.72126,-1.49443 2.40437,-2.49069 4.80876,-2.49069 v 0 c 2.4044,0 4.08749,-0.99626 4.80877,-2.49069"
                         style="fill:none;stroke:#000000;stroke-width:0.3985;stroke-linecap:butt;stroke-linejoin:miter;stroke-miterlimit:10;stroke-dasharray:none;stroke-opacity:1"
                         id="path286" /><g
                         id="g288"><g
                           id="g290" /><g
                           id="g292"
                           transform="translate(44.687,184.585)"><g
                             id="g294"><g
                               id="g296"
                               transform="translate(-54.699,-190.562)"><text
                                 transform="matrix(1,0,0,-1,54.699,190.562)"
                                 style="font-variant:normal;font-weight:normal;font-size:11.9552px;font-family:CMMI12;-inkscape-font-specification:CMMI12;writing-mode:lr-tb;fill:#000000;fill-opacity:1;fill-rule:nonzero;stroke:none"
                                 id="text300"><tspan
                                   x="0"
                                   y="0"
                                   id="tspan298">d</tspan></text><text
                                 transform="matrix(1,0,0,-1,60.782,188.768)"
                                 style="font-variant:normal;font-weight:normal;font-size:7.9701px;font-family:CMR8;-inkscape-font-specification:CMR8;writing-mode:lr-tb;fill:#000000;fill-opacity:1;fill-rule:nonzero;stroke:none"
                                 id="text304"><tspan
                                   x="0 7.0567265 9.4087029"
                                   y="0"
                                   id="tspan302">min</tspan></text><text
                                 transform="matrix(1,0,0,-1,75.394,190.562)"
                                 style="font-variant:normal;font-weight:normal;font-size:11.9552px;font-family:CMR12;-inkscape-font-specification:CMR12;writing-mode:lr-tb;fill:#000000;fill-opacity:1;fill-rule:nonzero;stroke:none"
                                 id="text308"><tspan
                                   x="0 4.5525403 10.405807"
                                   y="0"
                                   id="tspan306">(0)</tspan></text><g
                                 id="g310"
                                 transform="translate(54.699,190.562)" /></g></g><g
                             id="g312"
                             transform="translate(-44.687,-184.585)" /></g></g><path
                         d="m 72.13148,176.76677 c 0.74718,1.49443 2.4907,2.49069 4.98139,2.49069 h 28.50735 c 2.4907,0 4.23421,0.99626 4.98139,2.49069 0.74718,-1.49443 2.49069,-2.49069 4.98139,-2.49069 h 28.50735 c 2.49069,0 4.2342,-0.99626 4.98138,-2.49069"
                         style="fill:none;stroke:#000000;stroke-width:0.3985;stroke-linecap:butt;stroke-linejoin:miter;stroke-miterlimit:10;stroke-dasharray:none;stroke-opacity:1"
                         id="path314" /><g
                         id="g316"><g
                           id="g318" /><g
                           id="g320"
                           transform="translate(97.714,184.585)"><g
                             id="g322"><g
                               id="g324"
                               transform="translate(-107.726,-190.562)"><text
                                 transform="matrix(1,0,0,-1,107.726,190.562)"
                                 style="font-variant:normal;font-weight:normal;font-size:11.9552px;font-family:CMMI12;-inkscape-font-specification:CMMI12;writing-mode:lr-tb;fill:#000000;fill-opacity:1;fill-rule:nonzero;stroke:none"
                                 id="text328"><tspan
                                   x="0"
                                   y="0"
                                   id="tspan326">d</tspan></text><text
                                 transform="matrix(1,0,0,-1,113.809,188.768)"
                                 style="font-variant:normal;font-weight:normal;font-size:7.9701px;font-family:CMR8;-inkscape-font-specification:CMR8;writing-mode:lr-tb;fill:#000000;fill-opacity:1;fill-rule:nonzero;stroke:none"
                                 id="text332"><tspan
                                   x="0"
                                   y="0"
                                   id="tspan330">2</tspan></text><text
                                 transform="matrix(1,0,0,-1,118.541,190.562)"
                                 style="font-variant:normal;font-weight:normal;font-size:11.9552px;font-family:CMR12;-inkscape-font-specification:CMR12;writing-mode:lr-tb;fill:#000000;fill-opacity:1;fill-rule:nonzero;stroke:none"
                                 id="text336"><tspan
                                   x="0 4.5525403 10.405807"
                                   y="0"
                                   id="tspan334">(0)</tspan></text><g
                                 id="g338"
                                 transform="translate(107.726,190.562)" /></g></g><g
                             id="g340"
                             transform="translate(-97.714,-184.585)" /></g></g><path
                         d="m 149.07173,176.76677 c 0.74718,1.49443 2.49069,2.49069 4.98139,2.49069 h 4.46353 c 2.49069,0 4.2342,0.99626 4.98138,2.49069 0.74718,-1.49443 2.49069,-2.49069 4.98139,-2.49069 h 4.46353 c 2.49069,0 4.2342,-0.99626 4.98138,-2.49069"
                         style="fill:none;stroke:#000000;stroke-width:0.3985;stroke-linecap:butt;stroke-linejoin:miter;stroke-miterlimit:10;stroke-dasharray:none;stroke-opacity:1"
                         id="path342" /><g
                         id="g344"><g
                           id="g346" /><g
                           id="g348"
                           transform="translate(150.61,184.585)"><g
                             id="g350"><g
                               id="g352"
                               transform="translate(-160.622,-190.562)"><text
                                 transform="matrix(1,0,0,-1,160.622,190.562)"
                                 style="font-variant:normal;font-weight:normal;font-size:11.9552px;font-family:CMMI12;-inkscape-font-specification:CMMI12;writing-mode:lr-tb;fill:#000000;fill-opacity:1;fill-rule:nonzero;stroke:none"
                                 id="text356"><tspan
                                   x="0"
                                   y="0"
                                   id="tspan354">d</tspan></text><text
                                 transform="matrix(1,0,0,-1,166.705,188.768)"
                                 style="font-variant:normal;font-weight:normal;font-size:7.9701px;font-family:CMR8;-inkscape-font-specification:CMR8;writing-mode:lr-tb;fill:#000000;fill-opacity:1;fill-rule:nonzero;stroke:none"
                                 id="text360"><tspan
                                   x="0"
                                   y="0"
                                   id="tspan358">1</tspan></text><text
                                 transform="matrix(1,0,0,-1,171.437,190.562)"
                                 style="font-variant:normal;font-weight:normal;font-size:11.9552px;font-family:CMR12;-inkscape-font-specification:CMR12;writing-mode:lr-tb;fill:#000000;fill-opacity:1;fill-rule:nonzero;stroke:none"
                                 id="text364"><tspan
                                   x="0 4.5525403 10.405807"
                                   y="0"
                                   id="tspan362">(0)</tspan></text><g
                                 id="g366"
                                 transform="translate(160.622,190.562)" /></g></g><g
                             id="g368"
                             transform="translate(-150.61,-184.585)" /></g></g><g
                         id="g370"><path
                           d="M 0,176.76677 H 0.2914 0.58282 0.87424 1.16566 1.45709 1.7485 2.03993 2.33134 2.62276 2.91418 3.2056 3.49702 3.78845 4.07986 4.37128 4.6627 4.95413 5.24556 5.53697 5.8284 6.11983 6.41124 6.70265 6.99408 7.28549 7.57692 7.86833 8.15976 l 0.29143,-3.4e-4 0.29139,-1.3e-4 h 0.29143 l 0.29143,-7.7e-4 0.29141,-1.5e-4 0.29145,-0.001 0.2914,-0.002 0.29143,-0.004 0.29142,-0.007 0.29141,-0.0129 0.29143,-0.0238 0.29142,-0.044 0.29142,-0.0799 0.29142,-0.14569 0.29142,-0.26331 0.29143,-0.47175 0.2914,-0.82616 0.29142,-1.40263 0.29143,-2.24474 0.29142,-3.28691 0.29142,-4.22829 0.29144,-4.61974 0.29143,-4.23281 0.29139,-3.29354 0.29143,-2.25196 0.29142,-1.40645 0.29142,-0.83036 0.29143,-0.47311 0.29141,-0.26454 0.29143,-0.14603 0.29143,-0.0802 0.29139,-0.044 0.29143,-0.0243 0.29141,-0.0129 0.29143,-0.007 0.29143,-0.004 0.29141,-0.002 0.29144,-0.001 0.29142,-1.5e-4 0.29141,-4.8e-4 0.29143,-4.4e-4 0.29141,-3.2e-4 0.29143,-0.0307 0.29142,0.0307 h 0.29142 0.29141 0.29143 0.29141 0.29143 0.29141 0.29143 0.29142 0.29142 0.29141 0.29144 0.29141 0.29143 0.29141 0.29143 0.29143 0.2914 0.29142 0.29143 0.29141 0.29143 0.29141 0.29143 0.29143 0.2914 0.29142 0.29143"
                           style="fill:none;stroke:#000000;stroke-width:0.79701;stroke-linecap:butt;stroke-linejoin:miter;stroke-miterlimit:10;stroke-dasharray:none;stroke-opacity:1"
                           id="path372" /></g><g
                         id="g374"><path
                           d="m 28.85258,146.02472 h 0.38859 0.38858 0.38859 0.38856 0.3886 0.3886 0.38858 0.38859 0.38858 0.38858 0.38858 0.38862 0.38857 0.38859 0.38859 0.38857 0.38859 0.3886 0.38859 0.38858 0.38859 0.38857 0.38858 0.38862 0.38858 0.38859 0.38858 0.38857 0.38859 0.3886 0.38859 0.38858 0.3886 0.38856 0.38859 0.3886 0.38859 0.38859 0.38858 0.38858 0.3886 0.38858 0.38859 0.38859 0.38859 0.38856 l 0.3886,-3.2e-4 h 0.3886 l 0.38858,-6e-4 0.38859,-0.001 0.38858,-0.002 0.38858,-0.006 0.3886,-0.0131 0.38858,-0.0291 0.38859,-0.0656 0.38858,-0.14601 0.38858,-0.32221 0.38859,-0.69936 0.3886,-1.45689 0.38859,-2.79721 0.38858,-4.614 0.38859,-5.99089 0.38857,-5.76704 0.38859,-4.14945 0.3886,-2.40188 0.38859,-1.22 0.38859,-0.57749 0.38857,-0.26486 0.38858,-0.11955 0.38858,-0.0535 0.38862,-0.0238 0.38858,-0.0109 0.38859,-0.005 0.38858,-0.002 0.38857,-7.8e-4 0.38859,-3e-4 0.3886,-1.6e-4 0.38859,-3e-4 h 0.38858 0.3886 0.38857 0.38857 0.38862 0.38858 0.38859 0.38858 0.38858 0.3886 0.38858 0.3886 0.38857 0.3886 0.38856 0.3886 0.3886 0.38857 0.3886 0.38858 0.38858"
                           style="fill:none;stroke:#000000;stroke-width:0.79701;stroke-linecap:butt;stroke-linejoin:miter;stroke-miterlimit:10;stroke-dasharray:none;stroke-opacity:1"
                           id="path376" /></g><g
                         id="g378"><path
                           d="m 67.32271,115.28128 0.19427,-7.6e-4 0.19426,-9.3e-4 0.19428,-0.001 0.19429,-0.003 0.19426,-0.004 0.19427,-0.005 0.19426,-0.008 0.1943,-0.0118 0.19427,-0.0177 0.19427,-0.026 0.19426,-0.0394 0.19429,-0.0584 0.19428,-0.0876 0.19426,-0.1296 0.19429,-0.19244 0.19427,-0.28374 0.19428,-0.41473 0.19426,-0.60115 0.19427,-0.85508 0.19429,-1.1905 0.19426,-1.60463 0.19428,-2.0737 0.19427,-2.53734 0.19428,-2.90623 0.19427,-3.08358 0.19428,-3.026 0.19427,-2.74144 0.19427,-2.31448 0.19428,-1.8374 0.19427,-1.3907 0.19428,-1.01403 0.19427,-0.7192 0.19426,-0.5011 0.19429,-0.34449 0.19428,-0.23439 0.19426,-0.15832 0.19427,-0.10668 0.19428,-0.07179 0.19429,-0.04809 0.19426,-0.03214 0.19429,-0.02136 0.19426,-0.0143 0.19427,-0.0095 0.19428,-0.0066 0.19427,-0.0043 0.19428,-0.0028 0.19427,-0.0022 0.19428,-0.0011 0.19427,-0.0011 0.19426,-3.2e-4 h 0.19429 l 0.19428,-7.6e-4 h 0.19427 l 0.19426,-1.6e-4 h 0.19428 0.19429 l 0.19426,-3e-4 h 0.19427 0.19428 0.19429 0.19426 0.19427 0.19429 0.19426 0.19428 0.19427 0.19429 0.19426 0.19426 0.19429 0.19428 0.19427 0.19426 0.19429 0.19427 0.19426 0.19428 0.19429 0.19427 0.19426 0.19426 0.19431 0.19426 0.19427 0.19426 0.19429 0.19428 0.19426 0.19429 0.19427 0.19428 0.19425 0.1943 0.19427 0.19426 0.19427 0.1943 0.19427 0.19426"
                           style="fill:none;stroke:#000000;stroke-width:0.79701;stroke-linecap:butt;stroke-linejoin:miter;stroke-miterlimit:10;stroke-dasharray:none;stroke-opacity:1"
                           id="path380" /></g><g
                         id="g382"><path
                           d="m 86.55777,84.54062 h 0.77715 0.77716 0.77714 0.77716 0.77716 0.77715 0.77716 0.77716 0.77714 0.77715 0.77716 0.77714 0.77717 0.77716 0.77714 0.77716 0.77717 0.77714 0.77716 0.77715 0.77714 0.77716 0.77716 0.77715 0.77716 0.77716 0.77714 0.77716 0.77715 0.77715 0.77716 0.77716 0.77714 0.77716 0.77716 0.77715 0.77716 0.77716 0.77713 0.77716 0.77716 0.77715 0.77716 0.77716 0.77715 0.77715 0.77716 0.77715 0.77716 0.77716 0.77715 0.77716 0.77716 0.77715 0.77715 0.77716 0.77715 0.77714 0.77717 0.77714 0.77716 0.77716 0.77715 0.77716 0.77716 0.77715 0.77715 0.77715 0.77715 l 0.77716,3e-4 0.77716,-3e-4 h 0.77714 l 0.77716,-3.1e-4 0.77716,-6.1e-4 0.77715,-0.0037 0.77716,-0.01906 0.77715,-0.09439 0.77714,-0.46666 0.77716,-2.15011 0.77716,-7.39635 0.77715,-11.75925 0.77716,-6.56547 0.77716,-1.80321 0.77714,-0.38579 0.77717,-0.07764 0.77716,-0.01551 0.77713,-0.0032 0.77716,-7.5e-4 h 0.77716 0.77714 0.77717 0.77715 0.77715 0.77716 0.77716 0.77715 0.77714 0.77718 0.77714"
                           style="fill:none;stroke:#000000;stroke-width:0.79701;stroke-linecap:butt;stroke-linejoin:miter;stroke-miterlimit:10;stroke-dasharray:none;stroke-opacity:1"
                           id="path384" /></g><g
                         id="g386"><path
                           d="m 163.49803,53.79858 h 0.29143 0.29141 0.29144 0.29143 0.29144 0.29143 0.29141 0.29145 0.29143 0.29142 0.29145 0.29143 0.2914 0.29145 0.29143 0.29142 0.29145 0.29142 0.29143 0.29141 0.29145 0.29144 0.29143 0.29143 0.29144 0.29141 0.29143 0.29143 l 0.29144,-3.2e-4 h 0.29144 l 0.29141,-1.5e-4 0.29143,-4.6e-4 0.29144,-4.7e-4 0.29143,-0.0012 0.29143,-0.0018 0.29143,-0.0042 0.29144,-0.0071 0.29141,-0.01322 0.29143,-0.02383 0.29144,-0.04396 0.29143,-0.08009 0.29143,-0.1457 0.29144,-0.26394 0.29143,-0.47142 0.29141,-0.82819 0.29144,-1.4023 0.29143,-2.24681 0.29145,-3.28888 0.29142,-4.22936 0.29143,-4.61974 0.29143,-4.23264 0.29141,-3.29175 0.29144,-2.24961 0.29145,-1.40583 0.29142,-0.82928 0.29143,-0.47251 0.29143,-0.26437 0.29143,-0.14587 0.29142,-0.08023 0.29143,-0.04381 0.29144,-0.02414 0.29145,-0.01289 0.29141,-0.0074 0.29143,-0.0041 0.29144,-0.0019 0.29143,-0.0012 0.29142,-4.7e-4 0.29143,-4.4e-4 0.29145,-1.5e-4 0.29141,-3.1e-4 h 0.29143 0.29144 0.29144 0.29141 0.29145 0.29141 0.29143 0.29144 0.29143 0.29144 0.29143 0.29142 0.29143 0.29143 0.29142 0.29145 0.29143 0.29142 0.29143 0.29143 0.29143 0.29143 0.29144 0.29144 0.2914 0.29144 0.29144 0.29143 0.29143"
                           style="fill:none;stroke:#000000;stroke-width:0.79701;stroke-linecap:butt;stroke-linejoin:miter;stroke-miterlimit:10;stroke-dasharray:none;stroke-opacity:1"
                           id="path388" /></g><g
                         id="g390"><path
                           d="M 0,178.30388 H 0.19362 0.38727 0.5809 0.77455 0.96817 1.16182 1.35547 1.5491 1.74274 1.93637 2.13002 2.32365 2.51729 2.71094 2.90457 3.09822 3.29184 3.48549 3.67912 3.87277 4.0664 4.26004 4.45369 4.64732 4.84096 5.03459 5.22824 5.42189 5.61551 5.80916 6.00279 6.19644 6.39006 6.58371 l 0.19365,3e-4 0.19364,-3e-4 h 0.19364 0.19362 0.19365 l 0.19365,-3.4e-4 0.19364,3.4e-4 h 0.19363 0.19363 0.19365 0.19364 0.19363 0.19365 0.19363 l 0.19365,-3.4e-4 h 0.19364 l 0.19365,-4.4e-4 0.19363,-4.7e-4 h 0.19365 l 0.19363,-3.1e-4 0.19364,-7.8e-4 0.19365,-10e-4 0.19363,-0.002 0.19363,-0.003 0.19364,-0.004 0.19365,-0.006 0.19365,-0.009 0.19362,-0.0134 0.19364,-0.0197 0.19364,-0.03 0.19365,-0.0444 0.19362,-0.0664 0.19365,-0.0987 0.19365,-0.14633 0.19363,-0.21674 0.19363,-0.31802 0.19364,-0.46373 0.19365,-0.66695 0.19365,-0.94348 0.19363,-1.30055 0.19363,-1.7316 0.19364,-2.20401 0.19365,-2.64787 0.19363,-2.97049 0.19364,-3.0811 0.19364,-2.9574 0.19364,-2.62813 0.19365,-2.17927 0.19362,-1.70825 0.19365,-1.27993 0.19363,-0.92734 0.19365,-0.65496 0.19363,-0.4547 0.19364,-0.31169 0.19365,-0.21228 0.19363,-0.14388 0.19363,-0.0965 0.19364,-0.065 0.19365,-0.0437 0.19365,-0.0292 0.19361,-0.0198 0.19366,-0.0129 0.19363,-0.009 0.19366,-0.006 0.19362,-0.004 0.19365,-0.002 0.19365,-0.002 0.19362,-0.001 0.19365,-7.8e-4 0.19362,-5.9e-4 0.19366,-1.7e-4 0.19364,-3e-4 0.19363,-1.4e-4 h 0.19365 0.19362 0.19366 l 0.19364,-3.2e-4 h 0.19362 0.19366 0.19362 0.19366 0.19364 0.19362 l 0.19365,3.2e-4 0.19363,-3.2e-4 h 0.19365 0.19365 0.19364 0.19363 0.19362 0.19365 0.19366 0.19364 0.19361 0.19364 0.19365 0.19366 0.1936 0.19367 0.19362 0.19365 0.19365 0.19361 0.19367 0.1936 0.19365 0.19367 0.19362 0.19366 0.19362 0.19363 0.19367 0.19362 0.19366 0.1936"
                           style="fill:none;stroke:#ff0000;stroke-width:0.79701;stroke-linecap:butt;stroke-linejoin:miter;stroke-miterlimit:10;stroke-dasharray:none;stroke-opacity:1"
                           id="path392" /></g><g
                         id="g394"><path
                           d="m 28.85258,147.56183 h 0.25818 0.25818 0.25818 0.25818 0.25818 0.25819 0.25818 0.25818 0.25819 0.25818 0.25818 0.25818 0.25818 0.25818 0.25821 0.25816 0.25818 0.25819 0.25818 0.2582 0.25816 0.2582 0.25819 0.25818 0.25816 0.25819 0.25818 0.25818 0.25819 0.25818 0.25818 0.2582 0.25817 0.25817 0.25819 0.2582 0.25817 0.25818 0.25818 0.2582 0.25817 0.25817 0.25821 0.25818 0.25818 0.25817 0.25818 0.25818 0.25819 0.2582 0.25816 0.2582 0.25817 0.25818 0.25818 0.25818 0.25819 0.2582 0.25816 0.2582 0.25818 0.25818 0.25819 0.25818 0.25818 0.25819 0.25818 0.25816 0.2582 0.25817 0.25818 0.2582 l 0.25817,-3.2e-4 h 0.25818 l 0.2582,-1.5e-4 0.25818,-3.1e-4 0.25816,-4.5e-4 0.25819,-6.3e-4 0.2582,-0.001 0.25819,-0.002 0.25817,-0.004 0.25817,-0.007 0.2582,-0.0109 0.25818,-0.0192 0.25816,-0.0327 0.25821,-0.0558 0.25818,-0.095 0.25818,-0.16078 0.25819,-0.27176 0.25816,-0.4536 0.25818,-0.74533 0.2582,-1.19188 0.25819,-1.82498 0.25816,-2.62082 0.2582,-3.43436 0.25817,-3.99702 0.25819,-4.05364 0.25817,-3.58659 0.25818,-2.80153 0.25821,-1.98524 0.2582,-1.31194 0.25815,-0.82649 0.25819,-0.50556 0.25816,-0.3034 0.2582,-0.18016 0.25821,-0.10622 0.25814,-0.0627 0.2582,-0.0363 0.25818,-0.0218 0.25819,-0.0125 0.25818,-0.008 0.25818,-0.004 0.25819,-0.003 0.25815,-0.001 0.25821,-9.1e-4 0.25819,-4.6e-4 0.25817,-3e-4 h 0.25821 l 0.25815,-1.6e-4 h 0.25819 0.25821 l 0.25815,-1.53741 0.2582,1.53711 h 0.25815 0.2582 0.2582 0.25817 0.25818 0.25816 0.25821 0.25819 0.25817 0.25819 0.25815 0.25821 0.25821 0.25813 0.25821 0.25816 0.25821 0.25818 0.25817 0.2582 0.25817 0.25819 0.2582 0.25816 0.25819 0.25817"
                           style="fill:none;stroke:#ff0000;stroke-width:0.79701;stroke-linecap:butt;stroke-linejoin:miter;stroke-miterlimit:10;stroke-dasharray:none;stroke-opacity:1"
                           id="path396" /></g><g
                         id="g398"><path
                           d="m 67.32271,116.81946 h 0.1138 l 0.1138,-1.6e-4 0.1138,-3e-4 h 0.11381 l 0.1138,-1.5e-4 0.1138,-3.1e-4 0.1138,-1.7e-4 0.1138,-4.5e-4 0.11382,-4.5e-4 0.1138,-7.7e-4 0.11381,-6.1e-4 0.1138,-0.001 0.1138,-0.001 0.1138,-0.002 0.11382,-0.002 0.11378,-0.003 0.11382,-0.004 0.1138,-0.004 0.11382,-0.005 0.1138,-0.007 0.1138,-0.008 0.11381,-0.0111 0.1138,-0.0134 0.11379,-0.0174 0.11381,-0.0217 0.11382,-0.0278 0.1138,-0.035 0.1138,-0.0444 0.1138,-0.0558 0.11381,-0.0704 0.11379,-0.0892 0.1138,-0.11172 0.11383,-0.1408 0.1138,-0.17587 0.1138,-0.22072 0.1138,-0.27467 0.11381,-0.34062 0.1138,-0.4207 0.11379,-0.51616 0.1138,-0.62746 0.11383,-0.7558 0.1138,-0.8992 0.1138,-1.0571 0.11382,-1.22137 0.1138,-1.38451 0.1138,-1.53624 0.11378,-1.66504 0.11383,-1.75926 0.1138,-1.81009 0.1138,-1.80782 0.1138,-1.76196 0.11381,-1.66944 0.1138,-1.53983 0.11379,-1.38963 0.11381,-1.2264 0.11382,-1.06106 0.1138,-0.90512 0.1138,-0.76009 0.11382,-0.63098 0.1138,-0.51956 0.1138,-0.42299 0.11378,-0.34293 0.11382,-0.27652 0.11381,-0.22199 0.1138,-0.17765 0.11382,-0.14143 0.1138,-0.11312 0.1138,-0.08963 0.1138,-0.07086 0.1138,-0.05626 0.1138,-0.04455 0.11381,-0.03522 0.1138,-0.02782 0.11382,-0.02212 0.1138,-0.01754 0.1138,-0.01384 0.1138,-0.0106 0.1138,-0.0088 0.1138,-0.0069 0.11381,-0.0052 0.11382,-0.0041 0.1138,-0.0035 0.1138,-0.0026 0.1138,-0.0018 0.11381,-0.0018 0.11379,-0.0012 0.11381,-0.0012 0.11382,-6e-4 0.1138,-7.8e-4 0.1138,-4.5e-4 0.1138,-4.5e-4 0.11382,-1.7e-4 0.11378,-3.1e-4 h 0.1138 l 0.11382,-1.5e-4 0.11381,-3e-4 h 0.1138 l 0.1138,-1.6e-4 h 0.11381 0.11381 0.1138 l 0.11378,-3e-4 0.11383,3e-4 0.1138,-3e-4 h 0.1138 0.1138 0.1138 0.11382 0.11378 0.11382 0.11383 0.11378 0.1138 0.1138 0.11382 0.1138 0.11378 0.11382 0.11381 0.1138 0.11382 0.11378 0.11382 0.11378 0.11382 0.11381 0.1138 0.1138 0.1138 0.11382 0.1138 0.1138 0.1138 0.11381 0.1138 0.11382 0.11378 0.11382 0.11378 0.11382 0.11382 0.1138 0.11381 0.11379 0.11381 0.1138 0.1138 0.1138 0.1138 0.11382 0.11381 0.1138 0.1138 0.1138 0.1138 0.11382 0.11378 0.11383 0.11379 0.11381 0.1138 0.1138 0.11382 0.11378 0.11382 0.11381 0.1138 0.1138 0.1138"
                           style="fill:none;stroke:#ff0000;stroke-width:0.79701;stroke-linecap:butt;stroke-linejoin:miter;stroke-miterlimit:10;stroke-dasharray:none;stroke-opacity:1"
                           id="path400" /></g><g
                         id="g402"><path
                           d="m 86.55777,86.07773 h 0.62598 0.62599 0.62599 0.62597 0.626 0.62599 0.62596 0.62599 0.626 0.62597 0.62599 0.626 0.62597 0.62598 0.62601 0.62597 0.62599 0.626 0.62598 0.62598 0.62598 0.62599 0.62598 0.62599 0.62599 0.62598 0.62599 0.62599 0.62598 0.62599 0.62599 0.62599 0.62598 0.62598 0.62599 0.62598 0.62599 0.62599 0.62597 0.626 0.62598 0.62597 0.62601 0.62599 0.62598 0.62599 0.62599 0.62598 0.62597 0.626 0.62599 0.62597 0.626 0.62599 0.62596 0.62599 0.62601 0.62597 0.626 0.62599 0.62596 0.62599 0.62599 0.62599 0.62598 0.62599 0.626 0.62596 0.62599 0.62599 0.62599 0.62599 0.626 0.62597 0.62598 0.62599 0.62599 0.62598 0.62599 0.62599 0.62598 0.62598 0.62599 0.62597 0.626 0.626 0.62598 l 0.62598,-3.2e-4 0.62599,3.2e-4 h 0.62597 0.626 l 0.62599,-3.2e-4 0.62599,-6.1e-4 0.62598,-0.0022 0.62597,-0.0077 0.62599,-0.02951 0.62598,-0.10792 0.62599,-0.38964 0.62599,-1.35219 0.626,-4.07553 0.626,-8.46913 0.62594,-9.07654 0.62602,-4.85753 0.62593,-1.68927 0.62604,-0.49481 0.62602,-0.13758 0.62593,-0.03749 0.62601,-0.01046 0.62594,-0.0025 0.62601,-9.2e-4 0.62604,-3e-4 h 0.62593 0.62602 0.62593 0.62602 0.62601 0.62593 0.62604 0.62591 0.62604 0.62603 0.62591 0.62602 0.62595 0.62602 0.62602 0.62593 0.62603 0.62591 0.62604 0.62602 0.62592 0.62603 0.62593 0.62601 0.62604 0.62593 0.62602 0.62593 0.62603 0.62602 0.62591 0.62604 0.62593 0.62602 0.62603 0.62593 0.62602 0.62593 0.62602 0.62603 0.62593 0.62603 0.62593 0.62601 0.62603 0.62594 0.62601 0.62595 0.62602 0.62602 0.62593 0.62602 0.62591 0.62603 0.62604 0.62591 0.62604 0.62593"
                           style="fill:none;stroke:#ff0000;stroke-width:0.79701;stroke-linecap:butt;stroke-linejoin:miter;stroke-miterlimit:10;stroke-dasharray:none;stroke-opacity:1"
                           id="path404" /></g><g
                         id="g406"><path
                           d="M 0,144.48763 H 0.3227 0.64542 0.96814 1.29088 1.6136 1.93633 2.25905 2.58179 2.90451 3.22723 3.54996 3.8727 4.19542 4.51814 4.84087 5.1636 5.48633 5.80905 6.13176 6.4545 6.77722 7.09995 7.42267 7.7454 8.06813 8.39084 8.71358 9.0363 h 0.32272 0.32273 0.32274 0.32272 0.32272 0.32273 0.32274 0.3227 0.32273 0.32272 0.32274 0.32272 0.32273 0.32272 0.32274 0.32272 0.32272 0.32274 0.32272 0.32273 0.32272 0.32274 0.32271 0.32272 0.32273 0.32272 0.32273 0.32272 0.32272 0.32274 0.32272 0.32273 0.32272 0.32274 0.32272 0.32272 0.32273 0.32274 0.32272 0.32272 0.32273 0.32273 0.32271 0.32273 0.32274 0.32272 0.32272 0.32273 0.32272 0.32272 0.32273 0.32272 0.32274 0.32272 0.32272 l 0.32273,-3.3e-4 0.32274,-1.5e-4 0.32272,-4.5e-4 0.32272,-4.8e-4 0.32273,-0.001 0.32272,-0.003 0.32272,-0.005 0.32273,-0.0101 0.32272,-0.0189 0.32274,-0.0378 0.32272,-0.0735 0.32273,-0.14232 0.32273,-0.27515 0.32273,-0.52417 0.32272,-0.97435 0.32272,-1.73232 0.32274,-2.84873 0.32274,-4.12917 0.32268,-5.00932 0.32275,-4.92591 0.3227,-3.93072 0.32275,-2.64693 0.32272,-1.58536 0.32271,-0.88383 0.32274,-0.4725 0.32269,-0.24749 0.32276,-0.12802 0.32275,-0.066 0.32269,-0.0338 0.32276,-0.0171 0.32269,-0.009 0.32274,-0.005 0.32275,-0.002 0.3227,-0.001 0.32275,-4.6e-4 0.32269,-3.1e-4 0.32276,-1.5e-4 0.32274,-0.0157 0.3227,0.0154 h 0.32274 0.32269 0.32274 0.32276 0.32269 0.32272 0.32271 0.32274 0.32275 0.3227 0.32275 0.32269 0.32276 0.32274 0.32269 0.32275 0.3227 0.32275 0.32274 0.32269 0.32274 0.32271 0.32274 0.32275 0.32269 0.32276 0.32269"
                           style="fill:none;stroke:#0000ff;stroke-width:0.79701;stroke-linecap:butt;stroke-linejoin:miter;stroke-miterlimit:10;stroke-dasharray:none;stroke-opacity:1"
                           id="path408" /></g><g
                         id="g410"><path
                           d="m 48.08765,113.74557 h 0.25818 0.25817 0.2582 0.25816 0.25818 0.25819 0.25818 0.25818 0.2582 0.25817 0.25818 0.25818 0.25818 0.25818 0.25821 0.25818 0.25816 0.25819 0.25818 0.2582 0.25816 0.25819 0.2582 0.25818 0.25816 0.25819 0.25818 0.25818 0.25821 0.25816 0.25819 0.25819 0.25818 0.25816 0.25819 0.2582 0.25818 0.25817 0.25818 0.2582 0.25818 0.25817 0.2582 0.25818 0.25818 0.25819 0.25816 0.25819 0.25819 0.25819 0.25816 0.2582 0.25818 0.25818 0.25819 0.25816 0.2582 0.25819 0.25818 0.25818 0.25818 0.25818 0.25819 0.25818 0.25817 0.2582 0.25818 l 0.25816,-3.2e-4 0.2582,-4.5e-4 h 0.25818 l 0.25818,-4.6e-4 0.2582,-6.3e-4 0.25817,-10e-4 0.25818,-0.002 0.25819,-0.004 0.25818,-0.006 0.25816,-0.0112 0.2582,-0.0188 0.25819,-0.032 0.25819,-0.0547 0.25817,-0.0928 0.25817,-0.15756 0.2582,-0.26636 0.25818,-0.44453 0.25818,-0.73105 0.25819,-1.17004 0.25818,-1.79673 0.25818,-2.58781 0.25819,-3.40426 0.25817,-3.98249 0.25817,-4.06303 0.2582,-3.61246 0.25819,-2.83589 0.25817,-2.01586 0.25819,-1.33467 0.25818,-0.84172 0.25818,-0.51629 0.25819,-0.30974 0.25816,-0.18398 0.25821,-0.10853 0.2582,-0.06409 0.25815,-0.0372 0.25819,-0.02215 0.25816,-0.01289 0.2582,-0.0074 0.25821,-0.0045 0.25815,-0.0025 0.25819,-0.0015 0.25818,-9.1e-4 0.25819,-3.1e-4 0.2582,-6.1e-4 0.25816,1.5e-4 0.25819,-4.6e-4 0.25815,3.1e-4 0.25823,-3.1e-4 h 0.25817 0.25817 0.2582 0.25816 0.25819 0.25821 0.25814 0.25822 0.25816 0.25818 0.25821 0.25816 0.2582 0.25814 0.25821 0.2582 0.25816 0.25819 0.25815 0.25821 0.25821 0.25813 0.25821 0.25816 0.25822 0.25819 0.25815 0.25821 0.25816 0.25819 0.2582 0.25816 0.2582 0.25816"
                           style="fill:none;stroke:#0000ff;stroke-width:0.79701;stroke-linecap:butt;stroke-linejoin:miter;stroke-miterlimit:10;stroke-dasharray:none;stroke-opacity:1"
                           id="path412" /></g><g
                         id="g414"><path
                           d="m 86.55777,82.99646 0.12909,-0.0022 0.12907,-0.0025 0.12909,-0.004 0.12908,-0.0048 0.12909,-0.006 0.1291,-0.0083 0.12907,-0.01047 0.12909,-0.01397 0.12909,-0.01798 0.12908,-0.02366 0.1291,-0.03107 0.12908,-0.04058 0.12909,-0.05241 0.12908,-0.06856 0.12908,-0.08914 0.1291,-0.11606 0.12909,-0.15033 0.12908,-0.19444 0.12908,-0.25024 0.12908,-0.32155 0.12911,-0.41028 0.12908,-0.51953 0.12908,-0.65157 0.12909,-0.80867 0.12909,-0.98814 0.12907,-1.18944 0.1291,-1.39983 0.12908,-1.60783 0.12909,-1.79768 0.12909,-1.94583 0.12907,-2.03637 0.12909,-2.05535 0.12909,-2.00702 0.12911,-1.89048 0.12907,-1.72172 0.12907,-1.52344 0.12909,-1.31088 0.12911,-1.10388 0.12907,-0.91164 0.12909,-0.73965 0.12908,-0.59349 0.1291,-0.47188 0.12909,-0.37029 0.12907,-0.2899 0.12909,-0.22566 0.12909,-0.17491 0.12909,-0.13466 0.12907,-0.10437 0.1291,-0.07978 0.1291,-0.06146 0.12907,-0.04706 0.12909,-0.03611 0.12908,-0.02782 0.12909,-0.02107 0.1291,-0.01613 0.12907,-0.01276 0.12908,-0.0094 0.12909,-0.0069 0.1291,-0.006 0.12909,-0.0042 0.12908,-0.0032 0.12907,-0.0026 0.12911,-0.0018 0.12907,-0.0015 0.12911,-0.0011 0.12907,-9.3e-4 0.12909,-4.4e-4 0.12909,-6.1e-4 0.12907,-3.2e-4 0.12909,-3.1e-4 h 0.12911 l 0.12907,-4.6e-4 h 0.12909 l 0.12907,-1.5e-4 0.12909,1.5e-4 0.12911,-1.5e-4 h 0.12907 l 0.12909,-3.1e-4 0.12909,3.1e-4 0.12907,-3.1e-4 h 0.12911 0.12907 0.12908 0.1291 0.12907 0.12911 0.12907 0.12909 0.12909 0.12908 0.12909 0.1291 0.12907 0.1291 0.12907 0.12909 0.1291 0.12908 0.12909 0.12909 0.12907 0.12911 0.12907 0.12909 0.12909 0.12907 0.12909 0.1291 0.12906 0.12911 0.12909 0.12907 0.12911 0.12905 0.12911 0.12909 0.12907 0.12911 0.12907 0.12909 0.12909 0.12907 0.1291 0.12908 0.12911 0.12907 0.12908 0.12909 0.12909 0.1291 0.12908 0.12907 0.1291 0.12908 0.12909 0.1291 0.12906 0.1291 0.12906 0.12911 0.1291 0.12906 0.12911 0.12907 0.12909 0.1291 0.12908 0.12907 0.12909"
                           style="fill:none;stroke:#0000ff;stroke-width:0.79701;stroke-linecap:butt;stroke-linejoin:miter;stroke-miterlimit:10;stroke-dasharray:none;stroke-opacity:1"
                           id="path416" /></g><g
                         id="g418"><path
                           d="m 105.79285,52.26147 h 0.5809 0.58093 0.58092 0.58092 0.58093 0.58092 0.58091 0.58092 0.58093 0.58092 0.58092 0.58093 0.58092 0.58092 0.58091 0.58094 0.58091 0.58094 0.5809 0.58093 0.58093 0.58092 0.58092 0.58093 0.58092 0.5809 0.58095 0.58091 0.58092 0.58092 0.58093 0.58092 0.58093 0.5809 0.58093 0.58092 0.58092 0.58092 0.58093 0.58093 0.58091 0.58091 0.58095 0.58091 0.58091 0.58095 0.58092 0.5809 0.58093 0.58093 0.58092 0.58092 0.58092 0.58093 0.58092 0.58091 0.58092 0.58095 0.5809 0.58092 0.58093 0.58093 0.5809 0.58094 0.58091 0.58092 0.58092 0.58093 0.58093 0.58091 0.58093 0.58092 0.58093 0.58092 0.58091 0.58092 0.58093 0.58092 0.58092 0.58093 0.58092 0.58092 0.58093 0.58092 0.58091 0.58094 0.58091 0.58092 0.58092 0.58093 0.58092 0.58092 0.58093 0.58091 0.58091 0.58095 l 0.58091,-4.7e-4 0.58092,-9.3e-4 0.58092,-0.0032 0.58093,-0.01074 0.58096,-0.03629 0.58086,-0.12051 0.58094,-0.39688 0.5809,-1.25613 0.58096,-3.53602 0.58093,-7.37275 0.58089,-8.87319 0.58096,-5.68765 0.58086,-2.3295 0.58094,-0.77531 0.58096,-0.23934 0.5809,-0.07223 0.58094,-0.02167 0.58086,-0.0066 0.58098,-0.0018 0.58096,-3.1e-4 0.58084,-4.6e-4 h 0.58096 0.58089 0.58095 0.58095 0.58087 0.58096 0.58087 0.58095 0.58096 0.58088 0.58094 0.58088 0.58096 0.58096 0.58086 0.58096 0.58087 0.58095 0.58096 0.58088 0.58096 0.58085 0.58097 0.58095 0.58088 0.58095 0.58087 0.58095 0.58096 0.58087 0.58095 0.58089"
                           style="fill:none;stroke:#0000ff;stroke-width:0.79701;stroke-linecap:butt;stroke-linejoin:miter;stroke-miterlimit:10;stroke-dasharray:none;stroke-opacity:1"
                           id="path420" /></g><g
                         id="g422"><path
                           d="m 0,176.76677 h 8.01457 8.01457 8.01458 8.01457 8.01457 8.01457 8.01457 8.0146 8.01456 8.01459 8.01457 8.01458 8.01458 8.01458 8.0146 8.01457 8.01457 8.01457 8.01458 8.01457 8.01457 8.01457 8.01459 8.01457"
                           style="fill:none;stroke:#000000;stroke-width:0.09962;stroke-linecap:butt;stroke-linejoin:miter;stroke-miterlimit:10;stroke-dasharray:2.98883, 2.98883;stroke-dashoffset:0;stroke-opacity:1"
                           id="path424" /></g><g
                         id="g426"><path
                           d="m 0,146.02472 h 8.01457 8.01457 8.01458 8.01457 8.01457 8.01457 8.01457 8.0146 8.01456 8.01459 8.01457 8.01458 8.01458 8.01458 8.0146 8.01457 8.01457 8.01457 8.01458 8.01457 8.01457 8.01457 8.01459 8.01457"
                           style="fill:none;stroke:#000000;stroke-width:0.09962;stroke-linecap:butt;stroke-linejoin:miter;stroke-miterlimit:10;stroke-dasharray:2.98883, 2.98883;stroke-dashoffset:0;stroke-opacity:1"
                           id="path428" /></g><g
                         id="g430"><path
                           d="m 0,115.28267 h 8.01457 8.01457 8.01458 8.01457 8.01457 8.01457 8.01457 8.0146 8.01456 8.01459 8.01457 8.01458 8.01458 8.01458 8.0146 8.01457 8.01457 8.01457 8.01458 8.01457 8.01457 8.01457 8.01459 8.01457"
                           style="fill:none;stroke:#000000;stroke-width:0.09962;stroke-linecap:butt;stroke-linejoin:miter;stroke-miterlimit:10;stroke-dasharray:2.98883, 2.98883;stroke-dashoffset:0;stroke-opacity:1"
                           id="path432" /></g><g
                         id="g434"><path
                           d="m 0,84.54062 h 8.01457 8.01457 8.01458 8.01457 8.01457 8.01457 8.01457 8.0146 8.01456 8.01459 8.01457 8.01458 8.01458 8.01458 8.0146 8.01457 8.01457 8.01457 8.01458 8.01457 8.01457 8.01457 8.01459 8.01457"
                           style="fill:none;stroke:#000000;stroke-width:0.09962;stroke-linecap:butt;stroke-linejoin:miter;stroke-miterlimit:10;stroke-dasharray:2.98883, 2.98883;stroke-dashoffset:0;stroke-opacity:1"
                           id="path436" /></g><g
                         id="g438"><path
                           d="m 0,53.79858 h 8.01457 8.01457 8.01458 8.01457 8.01457 8.01457 8.01457 8.0146 8.01456 8.01459 8.01457 8.01458 8.01458 8.01458 8.0146 8.01457 8.01457 8.01457 8.01458 8.01457 8.01457 8.01457 8.01459 8.01457"
                           style="fill:none;stroke:#000000;stroke-width:0.09962;stroke-linecap:butt;stroke-linejoin:miter;stroke-miterlimit:10;stroke-dasharray:2.98883, 2.98883;stroke-dashoffset:0;stroke-opacity:1"
                           id="path440" /></g><g
                         id="g442"><path
                           d="m 0,23.05653 h 8.01457 8.01457 8.01458 8.01457 8.01457 8.01457 8.01457 8.0146 8.01456 8.01459 8.01457 8.01458 8.01458 8.01458 8.0146 8.01457 8.01457 8.01457 8.01458 8.01457 8.01457 8.01457 8.01459 8.01457"
                           style="fill:none;stroke:#000000;stroke-width:0.09962;stroke-linecap:butt;stroke-linejoin:miter;stroke-miterlimit:10;stroke-dasharray:2.98883, 2.98883;stroke-dashoffset:0;stroke-opacity:1"
                           id="path444" /></g><g
                         id="g446"><path
                           d="M 14.42628,192.1378 V 7.6855"
                           style="fill:none;stroke:#808080;stroke-width:0.09962;stroke-linecap:butt;stroke-linejoin:miter;stroke-miterlimit:10;stroke-dasharray:2.98883, 2.98883;stroke-dashoffset:0;stroke-opacity:1"
                           id="path448" /></g><g
                         id="g450"><path
                           d="M 52.89642,192.1378 V 7.6855"
                           style="fill:none;stroke:#808080;stroke-width:0.09962;stroke-linecap:butt;stroke-linejoin:miter;stroke-miterlimit:10;stroke-dasharray:2.98883, 2.98883;stroke-dashoffset:0;stroke-opacity:1"
                           id="path452" /></g><g
                         id="g454"><path
                           d="M 72.13148,192.1378 V 7.6855"
                           style="fill:none;stroke:#808080;stroke-width:0.09962;stroke-linecap:butt;stroke-linejoin:miter;stroke-miterlimit:10;stroke-dasharray:2.98883, 2.98883;stroke-dashoffset:0;stroke-opacity:1"
                           id="path456" /></g><g
                         id="g458"><path
                           d="M 149.07173,192.1378 V 7.6855"
                           style="fill:none;stroke:#808080;stroke-width:0.09962;stroke-linecap:butt;stroke-linejoin:miter;stroke-miterlimit:10;stroke-dasharray:2.98883, 2.98883;stroke-dashoffset:0;stroke-opacity:1"
                           id="path460" /></g><g
                         id="g462"><path
                           d="M 177.92433,192.1378 V 7.6855"
                           style="fill:none;stroke:#808080;stroke-width:0.09962;stroke-linecap:butt;stroke-linejoin:miter;stroke-miterlimit:10;stroke-dasharray:2.98883, 2.98883;stroke-dashoffset:0;stroke-opacity:1"
                           id="path464" /></g><g
                         id="g466"><path
                           d="M 90.59712,69.1696 V 7.6855"
                           style="fill:none;stroke:#0000ff;stroke-width:0.09962;stroke-linecap:butt;stroke-linejoin:miter;stroke-miterlimit:10;stroke-dasharray:2.98883, 2.98883;stroke-dashoffset:0;stroke-opacity:1"
                           id="path468" /></g><g
                         id="g470"><path
                           d="M 32.89194,130.6537 V 7.6855"
                           style="fill:none;stroke:#0000ff;stroke-width:0.09962;stroke-linecap:butt;stroke-linejoin:miter;stroke-miterlimit:10;stroke-dasharray:2.98883, 2.98883;stroke-dashoffset:0;stroke-opacity:1"
                           id="path472" /></g><g
                         id="g474"><path
                           d="M 167.53738,38.42755 V 7.6855"
                           style="fill:none;stroke:#0000ff;stroke-width:0.09962;stroke-linecap:butt;stroke-linejoin:miter;stroke-miterlimit:10;stroke-dasharray:2.98883, 2.98883;stroke-dashoffset:0;stroke-opacity:1"
                           id="path476" /></g></g></g><g
                     id="g478"><path
                       d="m 13.01733,159.9868 2.81791,2.8179 m -2.81791,0 2.81791,-2.8179"
                       style="fill:none;stroke:#000000;stroke-width:0.79701;stroke-linecap:butt;stroke-linejoin:miter;stroke-miterlimit:10;stroke-dasharray:none;stroke-opacity:1"
                       id="path480" /></g><g
                     id="g482"><path
                       d="m 51.48747,129.24475 2.81789,2.8179 m -2.81789,0 2.81789,-2.8179"
                       style="fill:none;stroke:#000000;stroke-width:0.79701;stroke-linecap:butt;stroke-linejoin:miter;stroke-miterlimit:10;stroke-dasharray:none;stroke-opacity:1"
                       id="path484" /></g><g
                     id="g486"><path
                       d="m 70.72253,98.5027 2.81791,2.8179 m -2.81791,0 2.81791,-2.8179"
                       style="fill:none;stroke:#000000;stroke-width:0.79701;stroke-linecap:butt;stroke-linejoin:miter;stroke-miterlimit:10;stroke-dasharray:none;stroke-opacity:1"
                       id="path488" /></g><g
                     id="g490"><path
                       d="m 147.66278,67.76065 2.8179,2.8179 m -2.8179,0 2.8179,-2.8179"
                       style="fill:none;stroke:#000000;stroke-width:0.79701;stroke-linecap:butt;stroke-linejoin:miter;stroke-miterlimit:10;stroke-dasharray:none;stroke-opacity:1"
                       id="path492" /></g><g
                     id="g494"><path
                       d="m 176.51538,37.0186 2.8179,2.8179 m -2.8179,0 2.8179,-2.8179"
                       style="fill:none;stroke:#000000;stroke-width:0.79701;stroke-linecap:butt;stroke-linejoin:miter;stroke-miterlimit:10;stroke-dasharray:none;stroke-opacity:1"
                       id="path496" /></g><g
                     id="g498"><path
                       d="m 31.48299,129.24475 2.8179,2.8179 m -2.8179,0 2.8179,-2.8179"
                       style="fill:none;stroke:#0000ff;stroke-width:0.79701;stroke-linecap:butt;stroke-linejoin:miter;stroke-miterlimit:10;stroke-dasharray:none;stroke-opacity:1"
                       id="path500" /></g><g
                     id="g502"><path
                       d="m 89.18817,67.76065 2.8179,2.8179 m -2.8179,0 2.8179,-2.8179"
                       style="fill:none;stroke:#0000ff;stroke-width:0.79701;stroke-linecap:butt;stroke-linejoin:miter;stroke-miterlimit:10;stroke-dasharray:none;stroke-opacity:1"
                       id="path504" /></g><g
                     id="g506"><path
                       d="m 166.12843,37.0186 2.8179,2.8179 m -2.8179,0 2.8179,-2.8179"
                       style="fill:none;stroke:#0000ff;stroke-width:0.79701;stroke-linecap:butt;stroke-linejoin:miter;stroke-miterlimit:10;stroke-dasharray:none;stroke-opacity:1"
                       id="path508" /></g></g></g><g
                 id="g510"
                 transform="translate(-0.398,-1.912)" /></g><g
               id="g512"
               transform="translate(0.119,0.574)" /></g><g
             id="g514" /><g
             id="g516" /></g></g><g
         id="g518"
         transform="translate(97.03,25.192)"><g
           id="g520"><g
             id="g522" /><g
             id="g524"><path
               d="m 19.98454,0 c 0,11.03728 -8.94726,19.98454 -19.98454,19.98454 -11.03728,0 -19.98454,-8.94726 -19.98454,-19.98454 0,-11.03728 8.94726,-19.98454 19.98454,-19.98454 11.03728,0 19.98454,8.94726 19.98454,19.98454 z"
               style="fill:none;stroke:#000000;stroke-width:0.3985;stroke-linecap:butt;stroke-linejoin:miter;stroke-miterlimit:10;stroke-dasharray:none;stroke-opacity:1"
               id="path526" /><g
               id="g528"><g
                 id="g530"
                 transform="matrix(0.6,0,0,0.6,24.95,-2.109)"><g
                   id="g532"><g
                     id="g534"
                     transform="translate(-131.713,-27.722)"><text
                       transform="matrix(1,0,0,-1,131.713,27.722)"
                       style="font-variant:normal;font-weight:normal;font-size:10.9091px;font-family:CMR10;-inkscape-font-specification:CMR10;writing-mode:lr-tb;fill:#000000;fill-opacity:1;fill-rule:nonzero;stroke:none"
                       id="text538"><tspan
                         x="0"
                         y="0"
                         id="tspan536">0</tspan></text><g
                       id="g540"
                       transform="translate(131.713,27.722)" /></g></g><g
                   id="g542"
                   transform="translate(-24.95,2.109)" /></g></g><g
               id="g544"><g
                 id="g546"
                 transform="matrix(0.6,0,0,0.6,16.015,18.316)"><g
                   id="g548" /><g
                   id="g550"
                   transform="translate(-16.015,-18.316)" /></g></g><g
               id="g552"><g
                 id="g554"
                 transform="matrix(0.6,0,0,0.6,16.015,-18.317)"><g
                   id="g556" /><g
                   id="g558"
                   transform="translate(-16.015,18.317)" /></g></g><g
               id="g560"><path
                 d="m 0,0 14.13112,-14.13112 c 7.8043,7.80432 7.8043,20.4581 0,28.26242"
                 style="fill:#b3b3b3;fill-opacity:0.5;fill-rule:nonzero;stroke:none"
                 id="path562" /></g><g
               id="g564"><path
                 d="m 0,0 -15.30878,12.84589 c -7.09442,-8.45475 -5.99176,-21.06034 2.463,-28.15474"
                 style="fill:#b3b3b3;fill-opacity:0.5;fill-rule:nonzero;stroke:none"
                 id="path566" /></g><g
               id="g568"><g
                 id="g570"
                 transform="matrix(0.6,0,0,0.6,6.899,-1.746)"><g
                   id="g572"><g
                     id="g574"
                     transform="translate(-113.662,-28.085)"><text
                       transform="matrix(1,0,0,-1,113.662,28.085)"
                       style="font-variant:normal;font-weight:normal;font-size:10.9091px;font-family:CMMI10;-inkscape-font-specification:CMMI10;writing-mode:lr-tb;fill:#000000;fill-opacity:1;fill-rule:nonzero;stroke:none"
                       id="text578"><tspan
                         x="0"
                         y="0"
                         id="tspan576">C</tspan></text><text
                       transform="matrix(1,0,0,-1,121.459,26.449)"
                       style="font-variant:normal;font-weight:normal;font-size:7.9701px;font-family:CMR8;-inkscape-font-specification:CMR8;writing-mode:lr-tb;fill:#000000;fill-opacity:1;fill-rule:nonzero;stroke:none"
                       id="text582"><tspan
                         x="0"
                         y="0"
                         id="tspan580">0</tspan></text><g
                       id="g584"
                       transform="translate(113.662,28.085)" /></g></g><g
                   id="g586"
                   transform="translate(-6.899,1.746)" /></g></g><g
               id="g588"><g
                 id="g590"
                 transform="matrix(0.6,0,0,0.6,-14.692,-1.746)"><g
                   id="g592"><g
                     id="g594"
                     transform="translate(-92.071,-28.085)"><text
                       transform="matrix(1,0,0,-1,92.071,28.085)"
                       style="font-variant:normal;font-weight:normal;font-size:10.9091px;font-family:CMMI10;-inkscape-font-specification:CMMI10;writing-mode:lr-tb;fill:#000000;fill-opacity:1;fill-rule:nonzero;stroke:none"
                       id="text598"><tspan
                         x="0"
                         y="0"
                         id="tspan596">C</tspan></text><text
                       transform="matrix(1,0,0,-1,99.868,26.449)"
                       style="font-variant:normal;font-weight:normal;font-size:7.9701px;font-family:CMMI8;-inkscape-font-specification:CMMI8;writing-mode:lr-tb;fill:#000000;fill-opacity:1;fill-rule:nonzero;stroke:none"
                       id="text602"><tspan
                         x="0"
                         y="0"
                         id="tspan600">π</tspan></text><g
                       id="g604"
                       transform="translate(92.071,28.085)" /></g></g><g
                   id="g606"
                   transform="translate(14.692,1.746)" /></g></g><g
               id="g608"><g
                 id="g610"
                 transform="matrix(0.6,0,0,0.6,11.324,21.915)"><g
                   id="g612" /><g
                   id="g614"
                   transform="translate(-11.324,-21.915)" /></g></g><g
               id="g616"><g
                 id="g618"
                 transform="matrix(0.6,0,0,0.6,-7.746,-23.584)"><g
                   id="g620" /><g
                   id="g622"
                   transform="translate(7.746,23.584)" /></g></g><g
               id="g624"><path
                 d="m -5.76927,-18.7794 c 0,0.58865 -0.47721,1.06585 -1.06584,1.06585 -0.58866,0 -1.06586,-0.4772 -1.06586,-1.06585 0,-0.58866 0.4772,-1.06586 1.06586,-1.06586 0.58863,0 1.06584,0.4772 1.06584,1.06586 z"
                 style="fill:#ffffff;fill-opacity:1;fill-rule:nonzero;stroke:#000000;stroke-width:0.3985;stroke-linecap:butt;stroke-linejoin:miter;stroke-miterlimit:10;stroke-dasharray:none;stroke-opacity:1"
                 id="path626" /></g><g
               id="g628"><g
                 id="g630"
                 transform="matrix(0.6,0,0,0.6,5.862,24.178)"><g
                   id="g632" /><g
                   id="g634"
                   transform="translate(-5.862,-24.178)" /></g></g><g
               id="g636"><g
                 id="g638"
                 transform="matrix(0.6,0,0,0.6,-22.699,13.149)"><g
                   id="g640"><g
                     id="g642"
                     transform="translate(-84.064,-42.98)"><text
                       transform="matrix(1,0,0,-1,84.064,42.98)"
                       style="font-variant:normal;font-weight:normal;font-size:10.9091px;font-family:CMMI10;-inkscape-font-specification:CMMI10;writing-mode:lr-tb;fill:#000000;fill-opacity:1;fill-rule:nonzero;stroke:none"
                       id="text646"><tspan
                         x="0"
                         y="0"
                         id="tspan644">e</tspan></text><g
                       id="g648"
                       transform="translate(84.064,42.98)" /></g></g><g
                   id="g650"
                   transform="translate(22.699,-13.149)" /></g></g><g
               id="g652"><g
                 id="g654"
                 transform="matrix(0.6,0,0,0.6,-23.584,-7.747)"><g
                   id="g656" /><g
                   id="g658"
                   transform="translate(23.584,7.747)" /></g></g><g
               id="g660"><g
                 id="g662"
                 transform="matrix(0.6,0,0,0.6,-19.995,-18.759)"><g
                   id="g664"><g
                     id="g666"
                     transform="translate(-86.768,-11.072)"><text
                       transform="matrix(1,0,0,-1,86.768,11.072)"
                       style="font-variant:normal;font-weight:normal;font-size:10.9091px;font-family:CMMI10;-inkscape-font-specification:CMMI10;writing-mode:lr-tb;fill:#000000;fill-opacity:1;fill-rule:nonzero;stroke:none"
                       id="text670"><tspan
                         x="0"
                         y="0"
                         id="tspan668">r</tspan></text><g
                       id="g672"
                       transform="translate(86.768,11.072)" /></g></g><g
                   id="g674"
                   transform="translate(19.995,18.759)" /></g></g><g
               id="g676"><path
                 d="m -11.78003,-15.30878 c 0,0.58866 -0.47722,1.06586 -1.06586,1.06586 -0.58865,0 -1.06585,-0.4772 -1.06585,-1.06586 0,-0.58865 0.4772,-1.06585 1.06585,-1.06585 0.58864,0 1.06586,0.4772 1.06586,1.06585 z"
                 style="fill:#999999;fill-opacity:1;fill-rule:nonzero;stroke:#000000;stroke-width:0.3985;stroke-linecap:butt;stroke-linejoin:miter;stroke-miterlimit:10;stroke-dasharray:none;stroke-opacity:1"
                 id="path678" /></g><g
               id="g680"><path
                 d="m -17.71355,-6.83511 c 0,0.58863 -0.4772,1.06584 -1.06585,1.06584 -0.58866,0 -1.06586,-0.47721 -1.06586,-1.06584 0,-0.58866 0.4772,-1.06586 1.06586,-1.06586 0.58865,0 1.06585,0.4772 1.06585,1.06586 z"
                 style="fill:#999999;fill-opacity:1;fill-rule:nonzero;stroke:#000000;stroke-width:0.3985;stroke-linecap:butt;stroke-linejoin:miter;stroke-miterlimit:10;stroke-dasharray:none;stroke-opacity:1"
                 id="path682" /></g><g
               id="g684"><path
                 d="m -14.24292,12.84589 c 0,0.58865 -0.4772,1.06585 -1.06586,1.06585 -0.58865,0 -1.06585,-0.4772 -1.06585,-1.06585 0,-0.58864 0.4772,-1.06586 1.06585,-1.06586 0.58866,0 1.06586,0.47722 1.06586,1.06586 z"
                 style="fill:#999999;fill-opacity:1;fill-rule:nonzero;stroke:#000000;stroke-width:0.3985;stroke-linecap:butt;stroke-linejoin:miter;stroke-miterlimit:10;stroke-dasharray:none;stroke-opacity:1"
                 id="path686" /></g><g
               id="g688"><path
                 d="m 21.05038,0 c 0,0.58864 -0.4772,1.06584 -1.06585,1.06584 -0.58866,0 -1.06586,-0.4772 -1.06586,-1.06584 0,-0.58864 0.4772,-1.06584 1.06586,-1.06584 0.58865,0 1.06585,0.4772 1.06585,1.06584 z"
                 style="fill:#999999;fill-opacity:1;fill-rule:nonzero;stroke:#000000;stroke-width:0.3985;stroke-linecap:butt;stroke-linejoin:miter;stroke-miterlimit:10;stroke-dasharray:none;stroke-opacity:1"
                 id="path690" /></g><g
               id="g692"><path
                 d="m 15.19698,14.13112 c 0,0.58864 -0.47722,1.06586 -1.06586,1.06586 -0.58865,0 -1.06586,-0.47722 -1.06586,-1.06586 0,-0.58865 0.47721,-1.06586 1.06586,-1.06586 0.58864,0 1.06586,0.47721 1.06586,1.06586 z"
                 style="fill:#999999;fill-opacity:1;fill-rule:nonzero;stroke:#000000;stroke-width:0.3985;stroke-linecap:butt;stroke-linejoin:miter;stroke-miterlimit:10;stroke-dasharray:none;stroke-opacity:1"
                 id="path694" /></g><g
               id="g696"><path
                 d="m 15.19698,-14.13112 c 0,0.58865 -0.47722,1.06586 -1.06586,1.06586 -0.58865,0 -1.06586,-0.47721 -1.06586,-1.06586 0,-0.58864 0.47721,-1.06586 1.06586,-1.06586 0.58864,0 1.06586,0.47722 1.06586,1.06586 z"
                 style="fill:#999999;fill-opacity:1;fill-rule:nonzero;stroke:#000000;stroke-width:0.3985;stroke-linecap:butt;stroke-linejoin:miter;stroke-miterlimit:10;stroke-dasharray:none;stroke-opacity:1"
                 id="path698" /></g><g
               id="g700"><path
                 d="m 11.0581,17.30716 c 0,0.58865 -0.4772,1.06586 -1.06585,1.06586 -0.58865,0 -1.06586,-0.47721 -1.06586,-1.06586 0,-0.58866 0.47721,-1.06586 1.06586,-1.06586 0.58865,0 1.06585,0.4772 1.06585,1.06586 z"
                 style="fill:#ffffff;fill-opacity:1;fill-rule:nonzero;stroke:#000000;stroke-width:0.3985;stroke-linecap:butt;stroke-linejoin:miter;stroke-miterlimit:10;stroke-dasharray:none;stroke-opacity:1"
                 id="path702" /></g><g
               id="g704"><path
                 d="m -8.92639,17.30716 c 0,0.58865 -0.47721,1.06586 -1.06586,1.06586 -0.58865,0 -1.06585,-0.47721 -1.06585,-1.06586 0,-0.58866 0.4772,-1.06586 1.06585,-1.06586 0.58865,0 1.06586,0.4772 1.06586,1.06586 z"
                 style="fill:#ffffff;fill-opacity:1;fill-rule:nonzero;stroke:#000000;stroke-width:0.3985;stroke-linecap:butt;stroke-linejoin:miter;stroke-miterlimit:10;stroke-dasharray:none;stroke-opacity:1"
                 id="path706" /></g><g
               id="g708"><path
                 d="m 4.53606,19.68102 c 0,0.58865 -0.47722,1.06585 -1.06586,1.06585 -0.58865,0 -1.06586,-0.4772 -1.06586,-1.06585 0,-0.58864 0.47721,-1.06586 1.06586,-1.06586 0.58864,0 1.06586,0.47722 1.06586,1.06586 z"
                 style="fill:#ffffff;fill-opacity:1;fill-rule:nonzero;stroke:#000000;stroke-width:0.3985;stroke-linecap:butt;stroke-linejoin:miter;stroke-miterlimit:10;stroke-dasharray:none;stroke-opacity:1"
                 id="path710" /></g><g
               id="g712"><g
                 id="g714"
                 transform="matrix(0.6,0,0,0.6,-11.324,21.915)"><g
                   id="g716" /><g
                   id="g718"
                   transform="translate(11.324,-21.915)" /></g></g><g
               id="g720"><path
                 d="m 1.97397,22.56271 c -3.29317,0.28788 -6.61403,-0.14895 -9.7206,-1.2794"
                 style="fill:none;stroke:#000000;stroke-width:0.79701;stroke-linecap:butt;stroke-linejoin:miter;stroke-miterlimit:10;stroke-dasharray:0.79701, 1.99255;stroke-dashoffset:0;stroke-opacity:1"
                 id="path722" /></g><g
               id="g724"><path
                 d="M -19.61475,11.32445 C -22.27689,6.71349 -23.22968,1.31041 -22.30522,-3.93298"
                 style="fill:none;stroke:#000000;stroke-width:0.79701;stroke-linecap:butt;stroke-linejoin:miter;stroke-miterlimit:10;stroke-dasharray:0.79701, 1.99255;stroke-dashoffset:0;stroke-opacity:1"
                 id="path726" /></g><g
               id="g728"><path
                 d="m 0,-22.6491 c 3.30598,0 6.57603,0.72509 9.572,2.12199"
                 style="fill:none;stroke:#000000;stroke-width:0.79701;stroke-linecap:butt;stroke-linejoin:miter;stroke-miterlimit:10;stroke-dasharray:0.79701, 1.99255;stroke-dashoffset:0;stroke-opacity:1"
                 id="path730" /></g></g></g><g
           id="g732"
           transform="translate(42.479,-25.192)"><g
             id="g734"><g
               id="g736" /><g
               id="g738"><g
                 id="g740" /><g
                 id="g742" /><g
                 id="g744"
                 transform="scale(0.3)"><g
                   id="g746" /></g><g
                 id="g748" /><g
                 id="g750" /><g
                 id="g752" /><g
                 id="g754" /><g
                 id="g756"
                 transform="matrix(0.3,0,0,0.3,-0.12,-0.574)"><g
                   id="g758"
                   transform="translate(0.399,1.912)"><g
                     id="g760"><g
                       id="g762" /><g
                       id="g764"><g
                         id="g766"><g
                           id="g768"><g
                             id="g770"><path
                               d="M 20.81454,5.55925 V 9.81174 M 45.79199,5.55925 V 9.81174 M 55.50546,5.55925 V 9.81174 M 73.54474,5.55925 V 9.81174 M 92.97165,5.55925 v 4.25249 m 29.14036,-4.25249 v 4.25249 m 29.14037,-4.25249 v 4.25249 m 26.3651,-4.25249 v 4.25249"
                               style="fill:none;stroke:#808080;stroke-width:0.19925;stroke-linecap:butt;stroke-linejoin:miter;stroke-miterlimit:10;stroke-dasharray:none;stroke-opacity:1"
                               id="path772" /></g></g><g
                           id="g774"><g
                             id="g776"><path
                               d="m 81.13223,23.05653 h 4.25189 m -4.25189,30.74205 h 4.25189 m -4.25189,30.74204 h 4.25189 m -4.25189,30.74205 h 4.25189 m -4.25189,30.74205 h 4.25189"
                               style="fill:none;stroke:#808080;stroke-width:0.19925;stroke-linecap:butt;stroke-linejoin:miter;stroke-miterlimit:10;stroke-dasharray:none;stroke-opacity:1"
                               id="path778" /></g></g><g
                           id="g780"><path
                             d="M 0,7.6855 H 191.6777"
                             style="fill:none;stroke:#000000;stroke-width:0.79701;stroke-linecap:butt;stroke-linejoin:miter;stroke-miterlimit:10;stroke-dasharray:none;stroke-opacity:1"
                             id="path782" /><g
                             id="g784"
                             transform="translate(191.6777,7.6855)"><g
                               id="g786"><path
                                 d="M 2.59026,0 -1.55415,2.0722 0,0 -1.55415,-2.0722"
                                 style="fill:#000000;fill-opacity:1;fill-rule:nonzero;stroke:none"
                                 id="path788" /></g></g></g><g
                           id="g790"><path
                             d="M 83.2582,0 V 158.80548"
                             style="fill:none;stroke:#000000;stroke-width:0.79701;stroke-linecap:butt;stroke-linejoin:miter;stroke-miterlimit:10;stroke-dasharray:none;stroke-opacity:1"
                             id="path792" /><g
                             id="g794"
                             transform="rotate(90,-37.77364,121.03184)"><g
                               id="g796"><path
                                 d="M 2.59026,0 -1.55415,2.0722 0,0 -1.55415,-2.0722"
                                 style="fill:#000000;fill-opacity:1;fill-rule:nonzero;stroke:none"
                                 id="path798" /></g></g></g><g
                           id="g800"><g
                             id="g802"
                             transform="translate(20.814,1.724)"><g
                               id="g804" /><g
                               id="g806"
                               transform="translate(-20.814,-1.724)" /></g></g><g
                           id="g808"><g
                             id="g810"
                             transform="translate(45.791,1.724)"><g
                               id="g812" /><g
                               id="g814"
                               transform="translate(-45.791,-1.724)" /></g></g><g
                           id="g816"><g
                             id="g818"
                             transform="translate(55.505,1.724)"><g
                               id="g820" /><g
                               id="g822"
                               transform="translate(-55.505,-1.724)" /></g></g><g
                           id="g824"><g
                             id="g826"
                             transform="translate(73.544,1.724)"><g
                               id="g828" /><g
                               id="g830"
                               transform="translate(-73.544,-1.724)" /></g></g><g
                           id="g832"><g
                             id="g834"
                             transform="translate(92.97,1.724)"><g
                               id="g836" /><g
                               id="g838"
                               transform="translate(-92.97,-1.724)" /></g></g><g
                           id="g840"><g
                             id="g842"
                             transform="translate(122.11,1.724)"><g
                               id="g844" /><g
                               id="g846"
                               transform="translate(-122.11,-1.724)" /></g></g><g
                           id="g848"><g
                             id="g850"
                             transform="translate(151.25,1.724)"><g
                               id="g852" /><g
                               id="g854"
                               transform="translate(-151.25,-1.724)" /></g></g><g
                           id="g856"><g
                             id="g858"
                             transform="translate(177.615,1.724)"><g
                               id="g860" /><g
                               id="g862"
                               transform="translate(-177.615,-1.724)" /></g></g><g
                           id="g864"><g
                             id="g866"
                             transform="translate(84.966,26.891)"><g
                               id="g868" /><g
                               id="g870"
                               transform="translate(-84.966,-26.891)" /></g></g><g
                           id="g872"><g
                             id="g874"
                             transform="translate(84.966,57.633)"><g
                               id="g876" /><g
                               id="g878"
                               transform="translate(-84.966,-57.633)" /></g></g><g
                           id="g880"><g
                             id="g882"
                             transform="translate(84.966,88.375)"><g
                               id="g884" /><g
                               id="g886"
                               transform="translate(-84.966,-88.375)" /></g></g><g
                           id="g888"><g
                             id="g890"
                             transform="translate(84.966,119.116)"><g
                               id="g892" /><g
                               id="g894"
                               transform="translate(-84.966,-119.116)" /></g></g><g
                           id="g896"><g
                             id="g898"
                             transform="translate(84.966,149.858)"><g
                               id="g900" /><g
                               id="g902"
                               transform="translate(-84.966,-149.858)" /></g></g><g
                           id="g904"
                           clip-path="url(#clipPath908)"><g
                             id="g910"><path
                               d="m 6.93817,146.02472 h 0.35039 0.35042 0.3504 0.3504 0.35041 0.3504 0.35041 l 0.35041,-3.2e-4 0.3504,3.2e-4 h 0.3504 0.35041 0.3504 0.35042 0.3504 0.3504 l 0.35041,-3.2e-4 h 0.35038 l 0.35042,-4.4e-4 0.35041,-1.6e-4 0.3504,-6.2e-4 0.3504,-0.001 0.3504,-0.002 0.35041,-0.003 0.35042,-0.005 0.3504,-0.008 0.3504,-0.0126 0.35041,-0.0209 0.3504,-0.0344 0.35041,-0.0572 0.35041,-0.0944 0.3504,-0.15494 0.3504,-0.25377 0.35039,-0.4107 0.3504,-0.65683 0.35042,-1.02678 0.3504,-1.5506 0.35041,-2.22244 0.3504,-2.96079 0.3504,-3.58221 0.35042,-3.85506 0.3504,-3.67103 0.35041,-3.10401 0.3504,-2.37144 0.3504,-1.67539 0.35041,-1.11854 0.35042,-0.72045 0.3504,-0.45269 0.3504,-0.27959 0.3504,-0.17122 0.3504,-0.10437 0.35042,-0.0633 0.35039,-0.0383 0.3504,-0.0232 0.35041,-0.0138 0.3504,-0.009 0.3504,-0.005 0.35042,-0.003 0.3504,-0.002 0.35041,-10e-4 0.3504,-6.3e-4 0.3504,-1.5e-4 0.35042,-3e-4 h 0.3504 l 0.3504,-1.6e-4 0.35041,-3e-4 h 0.3504 0.3504 0.35041 0.3504 l 0.3504,3e-4 0.35041,-3e-4 h 0.3504 0.35042 0.3504 0.3504 0.3504 0.35041 0.3504 0.35042 0.3504 0.3504 0.35041 0.3504 0.35042 0.35038 0.35041 0.3504 0.3504 0.35041 0.35042 0.3504 0.3504 0.3504 0.3504 0.35042 0.35041 0.3504 0.3504 0.3504"
                               style="fill:none;stroke:#000000;stroke-width:0.79701;stroke-linecap:butt;stroke-linejoin:miter;stroke-miterlimit:10;stroke-dasharray:none;stroke-opacity:1"
                               id="path912" /></g><g
                             id="g914"><path
                               d="m 41.62909,115.20642 0.0981,-0.0112 0.09811,-0.0134 0.09812,-0.0152 0.09811,-0.0177 0.09811,-0.0201 0.09812,-0.0229 0.09811,-0.0268 0.09812,-0.031 0.09811,-0.0352 0.09811,-0.0403 0.09812,-0.0467 0.09811,-0.0536 0.09812,-0.0613 0.09811,-0.0701 0.09811,-0.0807 0.09812,-0.0925 0.09811,-0.10578 0.09812,-0.1208 0.0981,-0.13773 0.09809,-0.15757 0.09812,-0.1792 0.09811,-0.20414 0.09812,-0.23118 0.09811,-0.26254 0.09812,-0.29573 0.09811,-0.33312 0.09811,-0.37503 0.09812,-0.41885 0.09811,-0.46714 0.09811,-0.51825 0.09812,-0.57267 0.09811,-0.6304 0.09811,-0.6888 0.09812,-0.74716 0.09811,-0.805 0.09812,-0.86328 0.09811,-0.91603 0.09812,-0.96467 0.09811,-1.0062 0.09811,-1.04116 0.0981,-1.06641 0.09812,-1.0815 0.09811,-1.08299 0.09811,-1.08037 0.09812,-1.06357 0.09811,-1.03658 0.09812,-1.00199 0.09811,-0.95807 0.09811,-0.90825 0.09812,-0.85483 0.09811,-0.79804 0.09812,-0.73858 0.09811,-0.6799 0.0981,-0.62152 0.09811,-0.5659 0.09812,-0.51063 0.09811,-0.46067 0.09812,-0.41303 0.09811,-0.36828 0.09811,-0.32757 0.09812,-0.29082 0.09811,-0.2576 0.0981,-0.22735 0.09812,-0.19996 0.09811,-0.17649 0.09811,-0.15432 0.09812,-0.13556 0.09811,-0.11867 0.09811,-0.10358 0.09812,-0.09102 0.09812,-0.07902 0.0981,-0.06915 0.09812,-0.06009 0.09811,-0.05226 0.09812,-0.04581 0.09811,-0.03966 0.09812,-0.03474 0.09811,-0.02996 0.09811,-0.0263 0.09812,-0.02276 0.09811,-0.01998 0.0981,-0.01705 0.09813,-0.01509 0.0981,-0.01289 0.09811,-0.01123 0.09812,-0.0098 0.09811,-0.0081 0.0981,-0.0079 0.09811,-0.0063 0.09812,-0.0055 0.09811,-0.0048 0.09812,-0.0041 0.09811,-0.0038 0.09811,-0.0033 0.09812,-0.0026 0.09811,-0.0026 0.09812,-0.0018 0.09811,-0.0019 0.09811,-0.0017"
                               style="fill:none;stroke:#000000;stroke-width:0.79701;stroke-linecap:butt;stroke-linejoin:miter;stroke-miterlimit:10;stroke-dasharray:none;stroke-opacity:1"
                               id="path916" /></g><g
                             id="g918"><path
                               d="m 51.34254,84.46437 0.08411,-0.0095 0.08409,-0.01108 0.08409,-0.01245 0.08411,-0.01381 0.08409,-0.01599 0.08411,-0.01784 0.08409,-0.02014 0.08409,-0.0226 0.08411,-0.0255 0.08409,-0.0289 0.0841,-0.03227 0.0841,-0.03659 0.08408,-0.04104 0.08411,-0.04642 0.08409,-0.05196 0.08411,-0.05826 0.08409,-0.06626 0.0841,-0.07407 0.0841,-0.08286 0.08409,-0.09343 0.08411,-0.10438 0.08409,-0.11713 0.08409,-0.13112 0.08411,-0.14709 0.08409,-0.16386 0.0841,-0.18245 0.08409,-0.20414 0.0841,-0.22657 0.0841,-0.25084 0.08409,-0.279 0.08411,-0.30772 0.08409,-0.33984 0.08409,-0.37308 0.08411,-0.4101 0.08409,-0.44758 0.08411,-0.48827 0.08409,-0.52958 0.08409,-0.57113 0.0841,-0.6161 0.0841,-0.65794 0.0841,-0.70186 0.08409,-0.74257 0.08409,-0.7816 0.08413,-0.81902 0.08409,-0.8502 0.0841,-0.87903 0.0841,-0.90102 0.08409,-0.91766 0.0841,-0.92834 0.08409,-0.92745 0.08411,-0.92842 0.08409,-0.91762 0.08409,-0.90103 0.08411,-0.87901 0.08409,-0.85121 0.08411,-0.81794 0.08409,-0.78267 0.0841,-0.74255 0.08409,-0.70099 0.0841,-0.65887 0.0841,-0.6152 0.0841,-0.57218 0.0841,-0.52965 0.0841,-0.48742 0.08408,-0.44745 0.08411,-0.40995 0.08409,-0.37413 0.08411,-0.33938 0.08409,-0.30818 0.08409,-0.27839 0.08411,-0.25177 0.08409,-0.22673 0.0841,-0.20337 0.0841,-0.1832 0.08409,-0.1637 0.0841,-0.14664 0.08409,-0.13113 0.08411,-0.11774 0.08409,-0.10437 0.08409,-0.09345 0.08411,-0.08285 0.08409,-0.07407 0.08411,-0.06579 0.08409,-0.05873 0.08409,-0.05196 0.08411,-0.04642 0.08409,-0.04105 0.0841,-0.03658 0.08411,-0.03228 0.08409,-0.0289 0.08411,-0.02549 0.08409,-0.0226 0.08411,-0.02015 0.08409,-0.01782 0.08409,-0.01567 0.0841,-0.01414 0.0841,-0.01245 0.0841,-0.01107 0.08409,-0.0099"
                               style="fill:none;stroke:#000000;stroke-width:0.79701;stroke-linecap:butt;stroke-linejoin:miter;stroke-miterlimit:10;stroke-dasharray:none;stroke-opacity:1"
                               id="path920" /></g><g
                             id="g922"><path
                               d="m 59.66837,53.79858 h 0.26629 0.26631 0.26628 0.26632 0.26629 0.26631 0.26629 0.26631 0.26629 0.26632 0.26629 0.2663 0.26629 0.26632 0.26631 0.26628 0.26631 0.2663 0.26631 l 0.26629,-3.2e-4 h 0.2663 l 0.2663,-1.5e-4 0.26631,-3.1e-4 h 0.2663 l 0.26631,-1.5e-4 0.26628,-4.7e-4 0.26631,-7.6e-4 0.2663,-6.3e-4 0.26631,-0.0014 0.2663,-0.0022 0.26629,-0.0031 0.26631,-0.0044 0.2663,-0.0062 0.26631,-0.0095 0.26628,-0.01385 0.26631,-0.01998 0.2663,-0.02951 0.26631,-0.0435 0.26629,-0.06334 0.2663,-0.09237 0.26632,-0.13466 0.26629,-0.19551 0.26631,-0.28267 0.26628,-0.40503 0.26632,-0.5761 0.26629,-0.80545 0.26631,-1.10348 0.26628,-1.4713 0.26632,-1.8897 0.26629,-2.31739 0.26632,-2.68045 0.26631,-2.90123 0.26628,-2.92087 0.26631,-2.74192 0.2663,-2.40361 0.26631,-1.98345 0.26628,-1.55893 0.26631,-1.17742 0.2663,-0.86308 0.26631,-0.61947 0.26629,-0.4376 0.2663,-0.3059 0.2663,-0.2118 0.26631,-0.14618 0.26631,-0.10005 0.26628,-0.06903 0.26631,-0.04689 0.2663,-0.0318 0.26631,-0.02214 0.2663,-0.01492 0.26629,-0.01014 0.2663,-0.0071 0.26631,-0.0046 0.2663,-0.0031 0.2663,-0.0024 0.26631,-0.0014 0.26629,-0.0011 0.26632,-7.7e-4 0.26629,-4.7e-4 h 0.2663 l 0.26629,-5.9e-4 h 0.26632 0.26629 0.26631 0.26629 l 0.26631,-3.1e-4 0.26629,-1.53711 0.26631,1.53711 h 0.2663 0.2663 0.26631 0.2663 0.26631 0.26628 0.26631 0.2663 0.26631 0.26628 0.26631"
                               style="fill:none;stroke:#000000;stroke-width:0.79701;stroke-linecap:butt;stroke-linejoin:miter;stroke-miterlimit:10;stroke-dasharray:none;stroke-opacity:1"
                               id="path924" /></g><g
                             id="g926"><path
                               d="m 83.2582,23.05653 h 0.25227 0.25229 0.25227 0.25229 l 0.2523,3.1e-4 h 0.25228 0.25229 l 0.25227,1.5e-4 0.25229,2.9e-4 0.2523,1.5e-4 0.25228,4.7e-4 0.25228,4.6e-4 0.25229,9.4e-4 0.25229,0.0014 0.25229,0.002 0.25227,0.0025 0.25229,0.0038 0.25229,0.0055 0.25229,0.0078 0.25229,0.01107 0.25227,0.01615 0.25229,0.02289 0.25229,0.03337 0.25229,0.04764 0.25229,0.06825 0.25229,0.09762 0.25227,0.13926 0.2523,0.19813 0.25228,0.28098 0.25229,0.39503 0.25229,0.54997 0.25227,0.75638 0.2523,1.02036 0.25227,1.34555 0.2523,1.71525 0.25228,2.10242 0.25228,2.45065 0.2523,2.69771 0.25229,2.78316 0.25227,2.69841 0.25229,2.45191 0.25228,2.10282 0.2523,1.71733 0.25229,1.34609 0.25227,1.02217 0.25229,0.75686 0.25229,0.55045 0.25229,0.39565 0.25229,0.28175 0.25227,0.19828 0.25229,0.13973 0.25231,0.0976 0.25227,0.06825 0.25229,0.04779 0.25227,0.03305 0.25229,0.02322 0.2523,0.01568 0.25228,0.01184 0.25229,0.0077 0.25227,0.0054 0.2523,0.0038 0.25229,0.0028 0.25227,0.0017 0.2523,0.0014 0.25228,6.3e-4 0.25229,7.6e-4 0.25229,4.7e-4 0.25228,1.5e-4 h 0.25228 l 0.25229,3.1e-4 0.25229,1.5e-4 h 0.25229 l 0.25229,0.15403 0.25227,-0.15371 h 0.25229 0.25229 0.25229 0.25229 0.25227 0.25231 0.25227 0.25229 0.25229 0.25227 0.2523 0.25229 0.25228 0.25229 0.25227 0.2523 0.25229 0.25227 0.2523 0.25228 0.25229 0.25229 0.25227 0.25229 0.25231"
                               style="fill:none;stroke:#000000;stroke-width:0.79701;stroke-linecap:butt;stroke-linejoin:miter;stroke-miterlimit:10;stroke-dasharray:none;stroke-opacity:1"
                               id="path928" /></g><g
                             id="g930"><path
                               d="m 108.23564,53.79858 h 0.37843 0.37844 0.37843 0.37845 0.37841 0.37844 l 0.37845,3.1e-4 0.37843,-3.1e-4 h 0.37842 0.37843 0.37845 0.37844 0.37843 l 0.37843,3.1e-4 h 0.37844 0.37843 l 0.37845,4.4e-4 0.37843,4.6e-4 0.37842,9.3e-4 0.37845,0.0014 0.37843,0.0023 0.37843,0.0045 0.37845,0.0075 0.37842,0.01293 0.37843,0.02229 0.37845,0.03796 0.37843,0.06593 0.37842,0.11252 0.37844,0.1926 0.37844,0.32648 0.37844,0.54768 0.37843,0.89859 0.37843,1.42812 0.37844,2.15551 0.37843,3.00771 0.37845,3.7782 0.37843,4.15443 0.37842,3.96224 0.37845,3.28996 0.37843,2.43442 0.37843,1.65098 0.37845,1.05446 0.37842,0.64882 0.37843,0.38934 0.37845,0.23012 0.37844,0.1348 0.37843,0.07884 0.37843,0.04567 0.37844,0.02675 0.37843,0.01552 0.37843,0.0091 0.37844,0.0052 0.37843,0.0029 0.37843,0.0018 0.37845,9.2e-4 0.37844,6.3e-4 h 0.37841 l 0.37845,4.5e-4 h 0.37844 0.37843 l 0.37843,3.1e-4 h 0.37844 0.37843 0.37844 0.37844 0.37842 0.37844 0.37844 0.37843 0.37843 0.37843 0.37844 0.37843 0.37845 0.37844 0.37841 0.37845 0.37844 0.37843 0.37843 0.37843 0.37844 0.37845 0.37843 0.37842 0.37845 0.37843 0.37843 0.37845 0.37842 0.37843 0.37844 0.37844 0.37842 0.37844 0.37844 0.37844 0.37843 0.37843"
                               style="fill:none;stroke:#000000;stroke-width:0.79701;stroke-linecap:butt;stroke-linejoin:miter;stroke-miterlimit:10;stroke-dasharray:none;stroke-opacity:1"
                               id="path932" /></g><g
                             id="g934"><path
                               d="m 145.70183,84.55092 0.15417,0.0026 0.15416,0.0031 0.15416,0.0044 0.15416,0.0046 0.15418,0.0063 0.15417,0.0078 0.15416,0.0095 0.15416,0.01231 0.15417,0.0149 0.15418,0.01875 0.15416,0.02368 0.15416,0.02934 0.15418,0.03643 0.15415,0.04551 0.15418,0.05671 0.15416,0.07041 0.15417,0.08716 0.15416,0.10883 0.15416,0.13464 0.15418,0.16587 0.15416,0.20518 0.15417,0.25224 0.15416,0.30944 0.15417,0.37628 0.15416,0.45756 0.15418,0.55109 0.15416,0.65785 0.15416,0.77962 0.15416,0.91287 0.15419,1.05512 0.15416,1.2001 0.15416,1.34254 0.15415,1.47208 0.1542,1.58121 0.15416,1.65973 0.15416,1.70047 0.15416,1.69704 0.15417,1.66055 0.15417,1.58142 0.15416,1.47343 0.15416,1.34262 0.15418,1.20174 0.15416,1.05576 0.15417,0.91388 0.15416,0.78066 0.15418,0.65928 0.15416,0.55151 0.15417,0.45775 0.15416,0.37736 0.15418,0.31018 0.15416,0.2524 0.15416,0.20489 0.15415,0.16663 0.15419,0.13478 0.15416,0.10883 0.15416,0.0875 0.15416,0.0706 0.15418,0.0566 0.15417,0.0457 0.15416,0.0364 0.15416,0.0296 0.15416,0.0234 0.15419,0.0191 0.15416,0.0149 0.15416,0.0123 0.15416,0.01 0.15418,0.008 0.15417,0.006 0.15416,0.005 0.15416,0.004 0.15417,0.003 0.15418,0.003 0.15416,0.002 0.15416,0.002 0.15417,0.001 0.15416,10e-4 0.15416,6.3e-4 0.15417,7.6e-4 0.15418,6.3e-4 0.15416,3e-4 0.15416,4.6e-4 0.15418,1.7e-4 0.15417,3e-4 h 0.15416 l 0.15416,1.5e-4 h 0.15416 0.15419 l 0.15416,3.1e-4 0.15416,1.4e-4 h 0.15416 0.15417 0.15418 l 0.15415,3.2e-4 h 0.15417 0.15416 0.15419 0.15416 0.15415 0.15417"
                               style="fill:none;stroke:#000000;stroke-width:0.79701;stroke-linecap:butt;stroke-linejoin:miter;stroke-miterlimit:10;stroke-dasharray:none;stroke-opacity:1"
                               id="path936" /></g><g
                             id="g938"><path
                               d="m 160.96584,115.28267 h 0.25227 0.25229 0.25229 0.25229 0.25228 0.25228 0.2523 0.25228 0.25228 0.2523 0.25227 0.2523 0.25229 0.25227 0.25229 0.25228 0.2523 0.25229 0.25227 0.25229 0.25229 0.25229 0.25229 0.25227 0.25229 0.2523 0.25228 0.25229 0.25227 0.25229 0.2523 l 0.25228,3e-4 h 0.25229 l 0.25227,1.6e-4 h 0.25229 l 0.2523,3e-4 h 0.25228 l 0.25228,4.6e-4 0.2523,3.2e-4 0.25228,7.6e-4 0.25229,0.001 0.25227,10e-4 0.25229,0.002 0.25229,0.003 0.25229,0.005 0.25229,0.006 0.25227,0.009 0.25229,0.0135 0.25229,0.0186 0.25229,0.0282 0.25229,0.0398 0.25229,0.057 0.25227,0.0816 0.25231,0.11638 0.25227,0.16632 0.25229,0.23639 0.25229,0.33355 0.25227,0.46619 0.2523,0.64606 0.25228,0.88046 0.25229,1.17587 0.25228,1.52465 0.25228,1.90937 0.2523,2.28465 0.25229,2.59136 0.25227,2.76341 0.25229,2.76113 0.25228,2.59227 0.2523,2.2867 0.25229,1.91163 0.25227,1.52803 0.25229,1.17696 0.25231,0.88244 0.25227,0.64743 0.25229,0.46712 0.25227,0.33415 0.25229,0.23656 0.25231,0.16647 0.25227,0.11713 0.25229,0.0818 0.25227,0.057 0.25229,0.0398 0.25231,0.0277 0.25227,0.0195 0.25229,0.0134 0.25229,0.009 0.25228,0.007 0.25229,0.004 0.25228,0.003 0.25229,0.002 0.25228,0.001 0.25229,0.001 0.25229,7.6e-4 0.25228,3.2e-4 0.25228,4.6e-4 h 0.25229 l 0.25229,2.9e-4 0.25229,1.5e-4 h 0.25229"
                               style="fill:none;stroke:#000000;stroke-width:0.79701;stroke-linecap:butt;stroke-linejoin:miter;stroke-miterlimit:10;stroke-dasharray:none;stroke-opacity:1"
                               id="path940" /></g><g
                             id="g942"><path
                               d="M 20.81454,161.39575 V 7.6855"
                               style="fill:none;stroke:#808080;stroke-width:0.19925;stroke-linecap:butt;stroke-linejoin:miter;stroke-miterlimit:10;stroke-dasharray:2.98883, 2.98883;stroke-dashoffset:0;stroke-opacity:1"
                               id="path944" /></g><g
                             id="g946"><path
                               d="M 45.79199,161.39575 V 7.6855"
                               style="fill:none;stroke:#808080;stroke-width:0.19925;stroke-linecap:butt;stroke-linejoin:miter;stroke-miterlimit:10;stroke-dasharray:2.98883, 2.98883;stroke-dashoffset:0;stroke-opacity:1"
                               id="path948" /></g><g
                             id="g950"><path
                               d="M 55.50546,161.39575 V 7.6855"
                               style="fill:none;stroke:#808080;stroke-width:0.19925;stroke-linecap:butt;stroke-linejoin:miter;stroke-miterlimit:10;stroke-dasharray:2.98883, 2.98883;stroke-dashoffset:0;stroke-opacity:1"
                               id="path952" /></g><g
                             id="g954"><path
                               d="M 73.54474,161.39575 V 7.6855"
                               style="fill:none;stroke:#808080;stroke-width:0.19925;stroke-linecap:butt;stroke-linejoin:miter;stroke-miterlimit:10;stroke-dasharray:2.98883, 2.98883;stroke-dashoffset:0;stroke-opacity:1"
                               id="path956" /></g><g
                             id="g958"><path
                               d="M 151.25238,169.08125 V 7.6855"
                               style="fill:none;stroke:#808080;stroke-width:0.19925;stroke-linecap:butt;stroke-linejoin:miter;stroke-miterlimit:10;stroke-dasharray:2.98883, 2.98883;stroke-dashoffset:0;stroke-opacity:1"
                               id="path960" /></g><g
                             id="g962"><path
                               d="M 122.11201,169.08125 V 7.6855"
                               style="fill:none;stroke:#808080;stroke-width:0.19925;stroke-linecap:butt;stroke-linejoin:miter;stroke-miterlimit:10;stroke-dasharray:2.98883, 2.98883;stroke-dashoffset:0;stroke-opacity:1"
                               id="path964" /></g><g
                             id="g966"><path
                               d="M 92.97165,169.08125 V 7.6855"
                               style="fill:none;stroke:#808080;stroke-width:0.19925;stroke-linecap:butt;stroke-linejoin:miter;stroke-miterlimit:10;stroke-dasharray:2.98883, 2.98883;stroke-dashoffset:0;stroke-opacity:1"
                               id="path968" /></g><g
                             id="g970"><path
                               d="M 177.61748,169.08125 V 7.6855"
                               style="fill:none;stroke:#808080;stroke-width:0.19925;stroke-linecap:butt;stroke-linejoin:miter;stroke-miterlimit:10;stroke-dasharray:2.98883, 2.98883;stroke-dashoffset:0;stroke-opacity:1"
                               id="path972" /></g><g
                             id="g974"><path
                               d="m 0,146.02472 h 8.09448 8.09452 8.09448 8.09451 8.09448 8.09452 8.09448 8.09451 8.09452 8.09448 8.09451 8.09448 8.09452 8.09448 8.09451 8.09448 8.09452 8.09451 8.09448 8.09451 8.09449 8.09449 8.0945 8.09451"
                               style="fill:none;stroke:#000000;stroke-width:0.19925;stroke-linecap:butt;stroke-linejoin:miter;stroke-miterlimit:10;stroke-dasharray:2.98883, 2.98883;stroke-dashoffset:0;stroke-opacity:1"
                               id="path976" /></g><g
                             id="g978"><path
                               d="m 0,115.28267 h 8.09448 8.09452 8.09448 8.09451 8.09448 8.09452 8.09448 8.09451 8.09452 8.09448 8.09451 8.09448 8.09452 8.09448 8.09451 8.09448 8.09452 8.09451 8.09448 8.09451 8.09449 8.09449 8.0945 8.09451"
                               style="fill:none;stroke:#000000;stroke-width:0.19925;stroke-linecap:butt;stroke-linejoin:miter;stroke-miterlimit:10;stroke-dasharray:2.98883, 2.98883;stroke-dashoffset:0;stroke-opacity:1"
                               id="path980" /></g><g
                             id="g982"><path
                               d="m 0,84.54062 h 8.09448 8.09452 8.09448 8.09451 8.09448 8.09452 8.09448 8.09451 8.09452 8.09448 8.09451 8.09448 8.09452 8.09448 8.09451 8.09448 8.09452 8.09451 8.09448 8.09451 8.09449 8.09449 8.0945 8.09451"
                               style="fill:none;stroke:#000000;stroke-width:0.19925;stroke-linecap:butt;stroke-linejoin:miter;stroke-miterlimit:10;stroke-dasharray:2.98883, 2.98883;stroke-dashoffset:0;stroke-opacity:1"
                               id="path984" /></g><g
                             id="g986"><path
                               d="m 0,53.79858 h 8.09448 8.09452 8.09448 8.09451 8.09448 8.09452 8.09448 8.09451 8.09452 8.09448 8.09451 8.09448 8.09452 8.09448 8.09451 8.09448 8.09452 8.09451 8.09448 8.09451 8.09449 8.09449 8.0945 8.09451"
                               style="fill:none;stroke:#000000;stroke-width:0.19925;stroke-linecap:butt;stroke-linejoin:miter;stroke-miterlimit:10;stroke-dasharray:2.98883, 2.98883;stroke-dashoffset:0;stroke-opacity:1"
                               id="path988" /></g><g
                             id="g990"><path
                               d="m 0,23.05653 h 8.09448 8.09452 8.09448 8.09451 8.09448 8.09452 8.09448 8.09451 8.09452 8.09448 8.09451 8.09448 8.09452 8.09448 8.09451 8.09448 8.09452 8.09451 8.09448 8.09451 8.09449 8.09449 8.0945 8.09451"
                               style="fill:none;stroke:#000000;stroke-width:0.19925;stroke-linecap:butt;stroke-linejoin:miter;stroke-miterlimit:10;stroke-dasharray:2.98883, 2.98883;stroke-dashoffset:0;stroke-opacity:1"
                               id="path992" /></g></g></g><g
                         id="g994"><path
                           d="m 44.38306,98.5027 2.81788,2.8179 m -2.81788,0 2.81788,-2.8179"
                           style="fill:none;stroke:#000000;stroke-width:0.79701;stroke-linecap:butt;stroke-linejoin:miter;stroke-miterlimit:10;stroke-dasharray:none;stroke-opacity:1"
                           id="path996" /></g><g
                         id="g998"><path
                           d="m 19.4056,129.24475 2.8179,2.8179 m -2.8179,0 2.8179,-2.8179"
                           style="fill:none;stroke:#000000;stroke-width:0.79701;stroke-linecap:butt;stroke-linejoin:miter;stroke-miterlimit:10;stroke-dasharray:none;stroke-opacity:1"
                           id="path1000" /></g><g
                         id="g1002"><path
                           d="m 54.09651,67.76065 2.81789,2.8179 m -2.81789,0 2.81789,-2.8179"
                           style="fill:none;stroke:#000000;stroke-width:0.79701;stroke-linecap:butt;stroke-linejoin:miter;stroke-miterlimit:10;stroke-dasharray:none;stroke-opacity:1"
                           id="path1004" /></g><g
                         id="g1006"><path
                           d="m 72.13579,37.0186 2.81788,2.8179 m -2.81788,0 2.81788,-2.8179"
                           style="fill:none;stroke:#000000;stroke-width:0.79701;stroke-linecap:butt;stroke-linejoin:miter;stroke-miterlimit:10;stroke-dasharray:none;stroke-opacity:1"
                           id="path1008" /></g><g
                         id="g1010"><path
                           d="m 91.5627,37.0186 2.8179,2.8179 m -2.8179,0 2.8179,-2.8179"
                           style="fill:none;stroke:#000000;stroke-width:0.79701;stroke-linecap:butt;stroke-linejoin:miter;stroke-miterlimit:10;stroke-dasharray:none;stroke-opacity:1"
                           id="path1012" /></g><g
                         id="g1014"><path
                           d="m 120.70306,67.76065 2.81791,2.8179 m -2.81791,0 2.81791,-2.8179"
                           style="fill:none;stroke:#000000;stroke-width:0.79701;stroke-linecap:butt;stroke-linejoin:miter;stroke-miterlimit:10;stroke-dasharray:none;stroke-opacity:1"
                           id="path1016" /></g><g
                         id="g1018"><path
                           d="m 149.84343,98.5027 2.8179,2.8179 m -2.8179,0 2.8179,-2.8179"
                           style="fill:none;stroke:#000000;stroke-width:0.79701;stroke-linecap:butt;stroke-linejoin:miter;stroke-miterlimit:10;stroke-dasharray:none;stroke-opacity:1"
                           id="path1020" /></g><g
                         id="g1022"><path
                           d="m 176.20853,129.24475 2.8179,2.8179 m -2.8179,0 2.8179,-2.8179"
                           style="fill:none;stroke:#000000;stroke-width:0.79701;stroke-linecap:butt;stroke-linejoin:miter;stroke-miterlimit:10;stroke-dasharray:none;stroke-opacity:1"
                           id="path1024" /></g></g></g><g
                     id="g1026"
                     transform="translate(-0.398,-1.912)" /></g><g
                   id="g1028"
                   transform="translate(0.119,0.574)" /></g><g
                 id="g1030" /><g
                 id="g1032" /></g></g></g></g></g></g></svg>
