<?xml version="1.0" encoding="UTF-8"?>
<!DOCTYPE svg PUBLIC "-//W3C//DTD SVG 1.1//EN" "http://www.w3.org/Graphics/SVG/1.1/DTD/svg11.dtd">
<svg version="1.1" xmlns="http://www.w3.org/2000/svg" xmlns:xlink="http://www.w3.org/1999/xlink" x="0" y="0" width="183" height="100" viewBox="0, 0, 183, 100">
  <g id="Background">
    <rect x="0" y="0" width="183" height="100" fill="#000000" fill-opacity="0"/>
  </g>
  <defs>
    <linearGradient id="Gradient_1" gradientUnits="userSpaceOnUse" x1="21.717" y1="31.254" x2="69.227" y2="78.763">
      <stop offset="0" stop-color="#0A558C"/>
      <stop offset="1" stop-color="#32B4C8"/>
    </linearGradient>
  </defs>
  <g id="Layer_1">
    <path d="M72.977,75.013 L62.975,65.01 L72.977,55.009 L65.476,47.507 L55.473,57.509 L45.471,47.507 L37.97,55.009 L47.972,65.01 L37.971,75.012 L45.472,82.513 L55.473,72.512 L65.476,82.514 z M25.467,27.503 L17.966,35.005 L35.469,52.509 L42.971,45.006 z M45.471,27.503 L37.97,35.005 L45.471,42.506 L52.973,35.005 z M42.971,25.003 L35.469,32.503 L27.968,25.003 L35.469,17.501 z" fill="url(#Gradient_1)"/>
    <path d="M154.959,61.431 C159.028,61.431 160.537,59.968 160.537,57.178 C160.537,54.573 159.073,52.882 154.959,52.882 L150.34,52.882 L150.34,61.431 z M154.273,47.943 C157.793,47.943 158.982,46.481 158.982,44.103 C158.982,41.863 157.793,40.4 154.227,40.4 L150.34,40.4 L150.34,47.943 z M144.305,35.462 L155.004,35.462 C162.365,35.462 165.201,38.754 165.201,43.6 C165.201,47.029 163.508,49.133 160.811,50.046 C163.92,50.779 166.8,53.202 166.8,57.591 C166.8,64.083 162.229,66.369 155.142,66.369 L144.305,66.369 z M122.157,59.495 C122.157,59.495 122.14,59.473 122.111,59.438 C122.038,59.351 121.968,59.26 121.9,59.17 C121.627,58.818 121.173,58.22 120.708,57.541 L116.975,61.274 C118.276,63.689 121.256,66.872 128.002,66.872 C134.449,66.872 139.112,63.397 139.112,57.407 C139.112,53.476 137.1,50.641 131.568,48.904 L127.636,47.716 C125.35,46.983 124.436,45.841 124.436,44.011 C124.436,41.771 125.99,40.125 128.825,40.125 C131.63,40.125 133.541,41.201 134.688,42.862 C134.7,42.879 134.955,43.263 134.968,43.28 L138.77,39.479 C137.109,37.14 134.102,35.005 128.825,35.005 C121.236,35.005 118.217,39.576 118.217,44.378 C118.217,48.218 120.138,51.236 125.533,52.927 L129.419,54.116 C131.752,54.848 132.894,55.945 132.894,57.865 C132.894,60.196 131.157,61.751 128.002,61.751 C124.964,61.751 123.286,60.821 122.157,59.495 M138.77,39.479 L138.77,39.479 C138.792,39.512 138.747,39.446 138.77,39.479 M106.394,35.462 L112.383,35.462 L112.383,66.369 L106.394,66.369 L106.394,52.836 L94.015,52.836 L94.015,66.369 L87.98,66.369 L87.98,35.462 L94.015,35.462 L94.015,47.898 L106.394,47.898 z" fill="#000000"/>
  </g>
</svg>
