<?xml version="1.0" encoding="UTF-8"?>
<!DOCTYPE svg PUBLIC "-//W3C//DTD SVG 1.1//EN" "http://www.w3.org/Graphics/SVG/1.1/DTD/svg11.dtd">
<svg version="1.1" xmlns="http://www.w3.org/2000/svg" xmlns:xlink="http://www.w3.org/1999/xlink" x="0" y="0" width="183" height="100" viewBox="0, 0, 183, 100">
  <g id="Background">
    <rect x="0" y="0" width="183" height="100" fill="#000000" fill-opacity="0"/>
  </g>
  <g id="Layer_1">
    <path d="M72.977,75.013 L62.975,65.011 L72.977,55.009 L65.476,47.507 L55.473,57.509 L45.471,47.507 L37.97,55.009 L47.972,65.011 L37.97,75.012 L45.472,82.513 L55.473,72.512 L65.475,82.514 z M25.468,27.504 L17.967,35.005 L35.469,52.509 L42.971,45.006 z M45.471,27.504 L37.97,35.005 L45.471,42.506 L52.973,35.005 z M42.971,25.003 L35.469,32.504 L27.968,25.003 L35.469,17.501 z M154.959,61.431 C159.028,61.431 160.537,59.968 160.537,57.179 C160.537,54.573 159.073,52.882 154.959,52.882 L150.341,52.882 L150.341,61.431 z M154.273,47.943 C157.794,47.943 158.982,46.48 158.982,44.103 C158.982,41.862 157.794,40.399 154.227,40.399 L150.341,40.399 L150.341,47.943 z M144.306,35.462 L155.004,35.462 C162.365,35.462 165.2,38.753 165.2,43.6 C165.2,47.029 163.509,49.132 160.812,50.046 C163.92,50.778 166.8,53.201 166.8,57.591 C166.8,64.083 162.229,66.369 155.142,66.369 L144.306,66.369 z M122.157,59.494 C122.157,59.494 122.14,59.473 122.111,59.437 C122.038,59.35 121.969,59.26 121.9,59.169 C121.627,58.818 121.173,58.219 120.708,57.54 L116.976,61.274 C118.276,63.689 121.256,66.872 128.003,66.872 C134.449,66.872 139.112,63.397 139.112,57.407 C139.112,53.475 137.1,50.641 131.568,48.903 L127.636,47.715 C125.351,46.983 124.436,45.84 124.436,44.011 C124.436,41.771 125.991,40.125 128.825,40.125 C131.631,40.125 133.541,41.2 134.687,42.862 C134.7,42.879 134.955,43.263 134.967,43.28 L138.77,39.478 C137.109,37.139 134.102,35.004 128.825,35.004 C121.235,35.004 118.217,39.576 118.217,44.377 C118.217,48.218 120.138,51.236 125.533,52.927 L129.42,54.116 C131.751,54.847 132.894,55.945 132.894,57.865 C132.894,60.196 131.157,61.751 128.003,61.751 C124.964,61.751 123.286,60.821 122.157,59.494 M138.77,39.478 L138.77,39.478 L138.77,39.479 C138.793,39.511 138.748,39.446 138.77,39.478 M106.394,35.462 L112.383,35.462 L112.383,66.369 L106.394,66.369 L106.394,52.835 L94.015,52.835 L94.015,66.369 L87.98,66.369 L87.98,35.462 L94.015,35.462 L94.015,47.897 L106.394,47.897 z" fill="#000000"/>
  </g>
</svg>
